<?xml version="1.0" encoding="UTF-8" standalone="no"?>
<!-- Created with Inkscape (http://www.inkscape.org/) -->

<svg
   xmlns:dc="http://purl.org/dc/elements/1.1/"
   xmlns:cc="http://creativecommons.org/ns#"
   xmlns:rdf="http://www.w3.org/1999/02/22-rdf-syntax-ns#"
   xmlns:svg="http://www.w3.org/2000/svg"
   xmlns="http://www.w3.org/2000/svg"
   xmlns:xlink="http://www.w3.org/1999/xlink"
   xmlns:sodipodi="http://sodipodi.sourceforge.net/DTD/sodipodi-0.dtd"
   xmlns:inkscape="http://www.inkscape.org/namespaces/inkscape"
   width="450"
   height="450"
   id="svg2"
   version="1.1"
   inkscape:version="0.48.3.1 r9886"
   sodipodi:docname="audience.svg">
  <defs
     id="defs4">
    <inkscape:path-effect
       effect="spiro"
       id="path-effect4360"
       is_visible="true" />
    <inkscape:path-effect
       effect="spiro"
       id="path-effect4356"
       is_visible="true" />
  </defs>
  <sodipodi:namedview
     id="base"
     pagecolor="#ffffff"
     bordercolor="#666666"
     borderopacity="1.0"
     inkscape:pageopacity="0.0"
     inkscape:pageshadow="2"
     inkscape:zoom="0.49497475"
     inkscape:cx="222.24276"
     inkscape:cy="453.83041"
     inkscape:document-units="px"
     inkscape:current-layer="layer1"
     showgrid="false"
     inkscape:window-width="1366"
     inkscape:window-height="718"
     inkscape:window-x="0"
     inkscape:window-y="0"
     inkscape:window-maximized="1" />
  <metadata
     id="metadata7">
    <rdf:RDF>
      <cc:Work
         rdf:about="">
        <dc:format>image/svg+xml</dc:format>
        <dc:type
           rdf:resource="http://purl.org/dc/dcmitype/StillImage" />
        <dc:title></dc:title>
      </cc:Work>
    </rdf:RDF>
  </metadata>
  <g
     inkscape:label="Layer 1"
     inkscape:groupmode="layer"
     id="layer1"
     transform="translate(0,-602.3622)">
    <image
       y="611.5213"
       x="6.33425"
       id="image4309"
       xlink:href="file:///home/martin/Downloads/clap.jpg"
       height="436.05032"
       width="438.5545" />
    <g
       id="g4328"
       transform="matrix(2.9236966,0,0,3.3802352,-455.19211,-1858.4817)">
      <path
         style="fill:#d7cae7"
         d="m 256.16962,856.92846 c 0.75871,-3.76433 -1.51263,-5.45521 -6.10392,-4.54401 -3.59823,0.7141 -10.54356,-2.81343 -13.63223,-6.92383 -1.6876,-2.24584 -2.07081,-4.18874 -2.0468,-10.37725 0.0342,-8.81278 1.27224,-11.75044 8.43639,-20.01792 2.60113,-3.00173 5.51978,-6.97672 6.48588,-8.83332 3.43095,-6.5934 10.9336,-12.77951 21.27045,-17.53798 5.37776,-2.4756 10.90274,-5.56259 12.27774,-6.85997 15.73348,-14.8453 28.66008,-13.35587 23.79958,2.74224 -0.91374,3.02631 -2.67535,5.12601 -7.37619,8.79185 -6.76993,5.27935 -9.08235,9.22818 -7.90724,13.50287 0.41376,1.50514 0.94633,6.80619 1.18349,11.78011 l 0.4312,9.04349 -4.10243,4.70353 c -2.25634,2.58694 -5.38719,7.51521 -6.95746,10.95171 -3.2364,7.08284 -11.0276,13.13506 -18.57095,14.42597 -2.2,0.3765 -4.85886,1.04271 -5.90857,1.48049 -1.70667,0.71175 -1.84196,0.46549 -1.27894,-2.32798 z m -87.27348,-21.29725 c -1.79157,-0.89963 -3.24711,-3.39239 -5.35106,-9.16422 -5.7833,-15.86555 -6.39515,-20.12266 -4.27716,-29.75923 0.2399,-1.09154 0.47062,-2.46241 0.5127,-3.04638 0.20926,-2.90393 7.43866,-9.34933 12.66153,-11.28842 5.92216,-2.19872 13.74367,-9.53453 20.14347,-18.89262 1.77567,-2.59646 4.59543,-6.1729 6.26614,-7.94765 1.67071,-1.77474 3.76639,-4.45095 4.65706,-5.94714 2.09726,-3.52307 5.93924,-5.72675 11.43965,-6.56155 5.30934,-0.8058 7.189,-1.68347 12.40866,-5.79403 6.36282,-5.0108 12.66607,-6.98956 16.30946,-5.11998 1.61498,0.82871 3.18028,2.43242 3.47843,3.56379 0.52311,1.985 0.96062,2.03357 12.49189,1.3869 l 11.94979,-0.67014 2.32327,3.11823 c 1.2778,1.71502 3.13865,3.11822 4.13522,3.11822 2.58059,0 5.81194,3.54377 5.81194,6.37387 0,1.32255 -1.125,3.73133 -2.5,5.35286 -1.375,1.62152 -2.5,3.58737 -2.5,4.36854 0,1.77793 -3.49833,5.00103 -7.73307,7.12469 -1.77819,0.89173 -3.96428,3.06502 -4.85796,4.82953 -2.33373,4.60775 -4.29695,5.951 -19.92622,13.63368 -13.32231,6.54868 -20.15983,11.57659 -23.10425,16.98952 -1.8742,3.44546 -12.08715,10.93864 -17.65447,12.95297 -4.08014,1.47625 -6.24616,2.90559 -7.21215,4.75925 -1.85943,3.56807 -23.70108,18.117 -26.82698,17.8697 -0.1017,-0.008 -1.29234,-0.57073 -2.64589,-1.25039 z m 3.14288,-17.34076 c 4.11135,-1.44223 4.86024,-2.07288 4.41879,-3.72115 -0.29234,-1.09154 -1.49358,-5.51122 -2.66942,-9.82151 -1.74464,-6.39536 -1.96141,-8.72259 -1.17846,-12.65193 1.1233,-5.63747 0.85133,-5.75241 -4.50356,-1.90318 -4.98497,3.58331 -6.62545,8.01342 -6.03158,16.28824 0.41532,5.78692 2.90532,13.54607 4.3471,13.54607 0.36675,0 2.89446,-0.78144 5.61713,-1.73654 z"
         id="path4348"
         inkscape:connector-curvature="0" />
      <path
         style="fill:#c8b2e1"
         d="m 255.85713,859.26983 c 0,-0.2472 0.53691,-1.61879 1.19314,-3.04798 1.52562,-3.3226 0.0329,-4.40467 -6.10528,-4.42582 -5.3093,-0.0183 -12.00152,-3.58656 -14.12453,-7.53118 -0.90265,-1.67714 -1.4496,-5.41566 -1.4275,-9.75722 0.0405,-7.96421 1.35645,-11.14134 7.84716,-18.94602 2.26943,-2.72885 5.90491,-7.58453 8.07884,-10.79041 3.40549,-5.02205 12.78719,-13.52113 14.92528,-13.52113 1.8967,0 15.82008,-7.17775 18.76329,-9.6728 10.09371,-8.55678 17.69845,-11.19988 21.19461,-7.36637 3.9828,4.36708 0.54162,12.65345 -7.87269,18.95745 -5.99841,4.494 -9.11774,9.72555 -7.96904,13.36517 1.39059,4.40605 2.2451,18.96098 1.22912,20.93578 -0.56157,1.09154 -2.55691,3.68878 -4.4341,5.77165 -1.87718,2.08287 -4.56886,6.4316 -5.98151,9.66384 -2.28658,5.23184 -3.3423,6.36809 -9.61958,10.35335 -4.00061,2.53986 -8.24693,4.47654 -9.81515,4.47654 -1.52022,0 -3.04214,0.44654 -3.38206,0.99231 -0.61571,0.98859 -2.5,1.39774 -2.5,0.54284 z m -87.22366,-24.54469 c -1.81304,-1.36951 -4.77634,-8.70036 -4.77634,-11.81608 0,-1.6703 0.31227,-1.61967 3.57933,0.58036 3.85724,2.59746 7.25728,2.54566 12.74401,-0.19418 2.79206,-1.39424 2.80409,-1.43939 1.08619,-4.07559 -0.95543,-1.46616 -2.31554,-3.55881 -3.02247,-4.65035 -2.02571,-3.12779 -4.38706,-13.32028 -4.38706,-18.93619 0,-7.43236 2.8948,-12.89098 11.98964,-22.60845 4.4057,-4.7073 8.01036,-9.03384 8.01036,-9.61452 0,-0.58069 2.18808,-3.37339 4.8624,-6.20601 2.67432,-2.83262 5.41063,-6.19289 6.08068,-7.46727 1.43571,-2.73057 8.29554,-6.06302 12.55692,-6.10004 1.90112,-0.0165 4.84342,-1.41302 8.03263,-3.81253 2.76795,-2.08256 7.32946,-5.06764 10.13669,-6.63353 4.8979,-2.73206 5.20667,-2.78034 7.64459,-1.19524 1.39729,0.9085 2.68578,2.66753 2.86331,3.90895 0.31884,2.22957 0.4718,2.25284 12.5239,1.9056 12.18386,-0.35103 12.20469,-0.34772 14.7167,2.34193 1.38356,1.4814 3.99305,3.42575 5.79887,4.32077 4.1715,2.06751 4.66451,5.13801 1.58857,9.89386 -1.29524,2.00262 -2.84186,4.53268 -3.43694,5.62234 -0.59508,1.08967 -3.02605,3.10946 -5.40216,4.48843 -2.37611,1.37897 -5.18448,4.04239 -6.24083,5.91871 -2.60034,4.61881 -3.17517,5.00393 -19.5134,13.07321 -13.78605,6.8088 -14.5755,7.36882 -22.46888,15.93882 -8.31549,9.02829 -13.78063,13.021 -20.24856,14.79314 -2.30102,0.63046 -4.26605,2.07517 -5.44984,4.0068 -1.01823,1.66145 -4.7766,4.92765 -8.35195,7.25822 -3.57534,2.33056 -8.04392,5.40546 -9.93017,6.83312 -4.22587,3.19842 -8.66551,4.17869 -10.98619,2.42572 z m 75.64187,-58.96201 c 1.90209,-0.72428 2.12967,-4.35921 0.27292,-4.35921 -0.71988,0 -2.18238,0.66132 -3.25,1.4696 -1.68015,1.27202 -1.73946,1.60351 -0.44113,2.46557 1.80236,1.19673 1.49058,1.15805 3.41821,0.42404 z m -12.73921,-6.54317 c 3.40928,-1.22333 4.45459,-2.77758 1.86805,-2.77758 -2.06717,0 -6.54705,2.14597 -6.54705,3.1362 0,1.1104 0.74388,1.05339 4.679,-0.35862 z m 29.09206,-1.59989 c 0.24358,-0.72513 -0.21359,-0.9469 -1.1875,-0.57605 -0.87096,0.33165 -1.58356,1.03897 -1.58356,1.57183 0,1.30428 2.27278,0.48756 2.77106,-0.99578 z m -5.14894,-5.14692 c 0.20784,0 0.37788,-0.71951 0.37788,-1.5989 0,-1.30764 -0.6831,-1.47433 -3.75,-0.91509 -4.46886,0.81489 -5.72808,1.83103 -4.90539,3.95844 0.55211,1.42772 0.95698,1.43406 4.2549,0.0667 2.00461,-0.83114 3.81478,-1.51115 4.02261,-1.51115 z m 13.87788,-20.83847 c 0.33992,-0.54576 -0.30852,-0.9923 -1.44098,-0.9923 -1.13246,0 -2.05902,0.44654 -2.05902,0.9923 0,0.54577 0.64844,0.99231 1.44098,0.99231 0.79254,0 1.7191,-0.44654 2.05902,-0.99231 z m -108.48758,74.93409 c -1.49373,-1.78599 -2.83951,-12.93944 -1.9841,-16.44362 0.55224,-2.26225 0.63831,-2.20021 1.28183,0.92396 0.37942,1.84197 0.68985,5.0503 0.68985,7.12963 0,2.07933 0.46259,4.98794 1.02798,6.46358 1.21851,3.18027 0.7602,4.04965 -1.01556,1.92645 z m -1.01242,-20.73619 c 0,-0.81865 0.45,-1.76444 1,-2.10174 0.55,-0.33731 1,0.0565 1,0.87518 0,0.81865 -0.45,1.76444 -1,2.10174 -0.55,0.33731 -1,-0.0565 -1,-0.87518 z m 7.86078,-9.49497 c 1.29843,-1.11853 2.76093,-2.03369 3.25,-2.03369 1.74819,0 0.83727,0.96632 -2.36078,2.50436 -3.25,1.56303 -3.25,1.56303 -0.88922,-0.47067 z"
         id="path4346"
         inkscape:connector-curvature="0" />
      <path
         style="fill:#c2aadd"
         d="m 256.38714,858.77518 c -0.35642,-0.57228 -0.17149,-1.0405 0.41097,-1.0405 0.58246,0 1.05902,-1.10063 1.05902,-2.44586 0,-3.05698 -3.22233,-4.9027 -7.18599,-4.11607 -3.33899,0.66267 -9.12839,-1.8491 -12.31122,-5.34129 -1.54573,-1.69597 -2.07625,-3.91826 -2.34682,-9.8306 -0.4223,-9.22768 0.69034,-12.25524 7.51154,-20.43925 2.72932,-3.27462 5.91918,-7.51673 7.08858,-9.42693 4.28272,-6.99573 11.302,-12.57178 21.24391,-16.87595 5.225,-2.26207 10.625,-5.15972 12,-6.43922 11.72694,-10.91247 24,-13.08604 24,-4.25041 0,4.43328 -1.50908,6.63898 -9.79023,14.30964 -8.64162,8.00455 -7.98199,5.53697 -6.72672,25.16364 l 0.60292,9.42692 -5.04298,5.9109 c -2.77365,3.25099 -5.04467,6.60003 -5.04673,7.44231 -0.0119,4.88662 -11.68859,14.84913 -19.29489,16.46236 -1.76075,0.37344 -3.72381,1.09564 -4.36234,1.60489 -0.73046,0.58256 -1.40128,0.54007 -1.80902,-0.11458 z m -12.78015,-29.40409 c -0.95295,-0.94563 -2.86349,0.58605 -2.1533,1.72632 0.42212,0.67774 0.98146,0.66062 1.69964,-0.052 0.58876,-0.58423 0.79291,-1.33766 0.45366,-1.67429 z m 7.25014,-5.92958 c 0,-1.63739 -1.58044,-1.91402 -2.5,-0.43759 -0.81551,1.30936 0.38021,3.16751 1.5691,2.43839 0.51199,-0.314 0.9309,-1.21436 0.9309,-2.0008 z m 15,-0.43759 c 0,-1.96802 -0.46709,-2.47491 -1.97045,-2.13836 -2.32716,0.52097 -2.62096,1.16024 -1.00059,2.17711 1.92155,1.20588 2.97104,1.19219 2.97104,-0.0388 z m 9.68064,-2.2327 c 3.85793,-4.04878 4.93404,-8.70898 2.17629,-9.4246 -1.27419,-0.33065 -1.72914,-1.07129 -1.36239,-2.21793 0.30284,-0.94683 -0.1078,-2.26373 -0.91252,-2.92646 -0.80473,-0.66272 -1.21674,-1.84211 -0.91559,-2.62087 1.15611,-2.98959 -0.56341,-1.2276 -2.6166,2.68124 -2.48478,4.73048 -2.0277,9.35345 1.01967,10.3132 2.45165,0.77214 2.43535,1.69793 -0.0695,3.94735 -2.05655,1.84683 -2.61665,3.47307 -1.19617,3.47307 0.44211,0 2.18668,-1.45125 3.87681,-3.225 z m 9.86481,-29.9722 c 2.33665,-2.31868 3.38403,-6.4951 1.62886,-6.4951 -1.09119,0 -4.62612,3.89138 -6.08453,6.69807 -1.64416,3.16418 1.19266,3.03495 4.45567,-0.20297 z m -115.08017,44.09692 c -2.74928,-1.01966 -3.88836,-2.67133 -5.35951,-7.77132 -1.55971,-5.40703 -1.26206,-5.67507 2.91012,-2.62061 4.03186,2.95173 9.81497,3.26666 14.07982,0.76673 3.56779,-2.09134 3.60316,-3.06705 0.22608,-6.23606 -5.39392,-5.06158 -9.49346,-20.774 -7.41682,-28.42671 1.42943,-5.26767 6.1798,-12.45126 12.98626,-19.63804 3.13371,-3.30881 6.91431,-7.90296 8.40133,-10.20922 1.48702,-2.30627 3.78401,-4.89563 5.10443,-5.75414 1.32041,-0.85852 2.93476,-2.84023 3.58744,-4.40382 1.27126,-3.04549 8.77139,-6.98345 13.30047,-6.98345 1.32778,0 4.39435,-1.3549 6.81462,-3.01089 13.86207,-9.48467 14.85933,-10.03581 16.96135,-9.37379 1.16694,0.36753 2.74979,2.15987 3.51744,3.98299 l 1.39573,3.31476 11.9782,-0.16541 c 11.97821,-0.16541 11.97821,-0.16541 15.31059,3.03962 1.83281,1.76277 3.80372,3.20503 4.37979,3.20503 3.95553,0 5.17305,7.19248 1.70149,10.05146 -0.80281,0.66115 -2.07889,2.67271 -2.83572,4.47014 -0.97384,2.31279 -2.72262,3.89614 -5.98279,5.41681 -3.1514,1.46993 -5.02418,3.12707 -5.92814,5.24556 -1.89267,4.43552 -3.43559,5.49425 -19.74811,13.55073 -14.18392,7.00522 -14.86877,7.48833 -21.49779,15.16517 -7.48402,8.667 -14.49018,13.81625 -21.14546,15.54109 -3.00377,0.77848 -4.56326,1.81587 -5.19041,3.4527 -0.49308,1.28693 -1.93583,3.05998 -3.2061,3.94012 -1.27027,0.88014 -5.88828,4.09228 -10.26224,7.1381 -9.20947,6.41303 -11.29284,7.34692 -14.08207,6.31245 z m 43.20743,-39.33769 c 3.0314,-1.99665 5.73674,-4.21235 6.01185,-4.92376 0.27511,-0.71142 1.33561,-1.5566 2.35667,-1.87817 1.02106,-0.32158 2.11945,-1.4069 2.44087,-2.41183 0.32143,-1.00492 2.03194,-2.42011 3.80115,-3.14487 1.76921,-0.72475 4.35464,-2.55022 5.7454,-4.05661 2.32318,-2.51633 2.82984,-2.65635 6.23543,-1.72326 3.76275,1.03096 7.73592,-0.0239 7.73592,-2.0538 0,-0.51132 2.40472,-1.62336 5.34382,-2.47121 6.72759,-1.94072 9.18172,-3.66208 8.33663,-5.84742 -0.5713,-1.47731 -0.95898,-1.51116 -3.41248,-0.29795 -2.93709,1.45232 -9.42112,3.19265 -15.36423,4.12379 -6.23688,0.97716 -16.70381,7.29105 -20.81259,12.55463 -1.34244,1.71973 -3.39334,2.81372 -6.07157,3.23869 -6.87529,1.09094 -15.0859,10.13659 -10.76958,11.86486 2.25866,0.90438 2.85578,0.69361 8.42271,-2.97309 z m 2.89246,-17.70287 c 6.21582,-3.33032 11.57079,-5.23591 30.626,-10.89842 9.3938,-2.79149 13.62931,-5.3406 12.33273,-7.42236 -0.58241,-0.93512 -2.15879,-1.07823 -5.90911,-0.53647 -2.81313,0.40638 -6.84089,0.83195 -8.95056,0.9457 -2.10967,0.11376 -4.13833,0.69263 -4.50814,1.28638 -0.68034,1.09235 -6.78715,3.30136 -19.79544,7.16057 -8.05651,2.39015 -9.81892,3.8968 -10.7793,9.21506 -0.81805,4.53008 -0.9938,4.5238 6.98382,0.24954 z m -3.15705,-17.35879 c -1.01746,-1.00963 -5.40812,2.10342 -5.40812,3.83444 0,2.07268 1.63041,1.93683 3.91061,-0.32582 1.7093,-1.69616 2.18971,-2.82174 1.49751,-3.50862 z m 12.42987,-0.60357 c 1.51253,0.92761 11.93486,-2.06007 14.69093,-4.21132 1.50744,-1.17663 3.35511,-2.13932 4.10594,-2.13932 0.75083,0 1.36514,-0.39512 1.36514,-0.87804 0,-1.47395 -13.22013,-0.007 -17.87712,1.98385 -2.40741,1.02911 -4.89479,1.87111 -5.52749,1.87111 -1.79632,0 -5.68897,3.01618 -5.10426,3.95499 0.28852,0.46325 2.1021,0.41005 4.03016,-0.11822 1.92807,-0.52827 3.87058,-0.73664 4.3167,-0.46305 z m 47.11915,-1.95501 c 1.10291,-1.06309 1.17599,-1.68353 0.30061,-2.55217 -1.33601,-1.32574 -10.40587,2.07056 -11.10752,4.15931 -0.56353,1.67759 8.85178,0.27741 10.80691,-1.60714 z m -13.70714,-5.52079 c 3.90146,-2.07175 1.40228,-4.82869 -4.37724,-4.82869 -3.279,0 -8.42472,4.26483 -7.30836,6.05724 0.74156,1.19065 8.70684,0.35323 11.6856,-1.22855 z m -46.37618,-3.68212 c -1.13333,-0.41174 -3.87382,1.70385 -3.87382,2.99049 0,0.50442 1.08335,0.11484 2.40744,-0.86573 1.3241,-0.98058 1.98397,-1.93672 1.46638,-2.12476 z m 65.8825,-0.89849 c 0.27614,-0.8347 -0.74233,-1.24039 -3.11397,-1.24039 -3.48567,0 -5.23145,1.06928 -3.9011,2.38939 1.10786,1.09934 6.56708,0.20517 7.01507,-1.149 z m -42.83021,-0.65589 c 1.80597,-2.15932 -0.50791,-3.00294 -4.78269,-1.74374 -2.00388,0.59027 -5.44342,1.49296 -7.64342,2.00598 -3.6908,0.86066 -3.41039,0.94069 3.62756,1.03532 5.44813,0.0732 7.96214,-0.2975 8.79855,-1.29756 z m 15.57389,-3.56142 c 0,-2.23582 -4.88497,-1.94002 -5.32405,0.32239 -0.28417,1.46423 0.19175,1.74914 2.4863,1.48846 1.71138,-0.19442 2.83775,-0.91319 2.83775,-1.81085 z m 18.82411,-1.39145 c 0.65394,-1.69104 -0.1259,-2.58288 -2.24078,-2.56259 -2.39575,0.023 -4.42646,1.60801 -3.65243,2.85079 0.98081,1.57477 5.25358,1.36582 5.89321,-0.2882 z m -110.9879,62.91453 c 0,-4.09327 0.17651,-5.76779 0.39226,-3.72116 0.21574,2.04664 0.21574,5.39568 0,7.44231 -0.21575,2.04664 -0.39226,0.37212 -0.39226,-3.72115 z"
         id="path4344"
         inkscape:connector-curvature="0" />
      <path
         style="fill:#bda2dc"
         d="m 256.38714,858.77518 c -0.35642,-0.57228 -0.21963,-1.0405 0.30398,-1.0405 0.52362,0 1.25271,-0.77753 1.62021,-1.72784 1.03848,-2.68541 -2.90026,-5.21831 -8.11464,-5.21831 -9.34321,0 -13.45889,-4.14679 -14.11015,-14.21684 -0.56236,-8.69537 1.36642,-13.98224 7.54761,-20.68825 2.17539,-2.36008 4.75904,-5.85168 5.74145,-7.75911 3.77444,-7.32834 13.23019,-15.08017 23.48153,-19.25017 5.56023,-2.26176 10.96898,-5.2453 13.04216,-7.19423 1.94819,-1.83142 3.94419,-3.32986 4.43555,-3.32986 0.49136,0 1.91108,-0.94872 3.15492,-2.10825 3.06107,-2.85361 9.68048,-4.01371 12.34294,-2.16319 4.7544,3.30449 1.57835,11.3701 -7.17003,18.20839 -7.32128,5.72277 -9.1695,8.8253 -8.40257,14.10505 0.33619,2.3144 0.80619,8.09656 1.04444,12.84925 l 0.4332,8.64126 -4.27485,4.7549 c -2.35117,2.61519 -5.43015,7.28074 -6.84218,10.36789 -2.76448,6.04404 -10.27787,11.96038 -17.76358,13.98774 -1.925,0.52135 -4.02244,1.36971 -4.66097,1.88524 -0.73866,0.59636 -1.39671,0.55883 -1.80902,-0.10317 z m -16.03001,-21.87896 c 0,-0.72769 -0.5625,-1.50913 -1.25,-1.73654 -0.74359,-0.24595 -1.25,0.45757 -1.25,1.73654 0,1.27898 0.50641,1.98249 1.25,1.73654 0.6875,-0.22741 1.25,-1.00885 1.25,-1.73654 z m 3.3,-5.16 c 1.62082,-1.60835 1.519,-3.77077 -0.17756,-3.77077 -1.84566,0 -3.95615,2.63064 -3.14951,3.92577 0.84463,1.35613 1.8515,1.30922 3.32707,-0.155 z m 26.56163,-1.29 c 0.31658,-0.81865 0.32982,-2.12402 0.0294,-2.90082 -0.32401,-0.83786 0.40059,-1.89739 1.78138,-2.60477 8.10187,-4.1506 12.09111,-12.68283 6.72066,-14.37423 -1.05718,-0.33295 -1.65073,-1.04114 -1.31901,-1.57375 0.33173,-0.53261 0.27809,-1.72845 -0.11918,-2.65741 -0.39727,-0.92896 -0.62582,-3.38983 -0.50789,-5.4686 0.20535,-3.61976 0.12425,-3.72466 -1.91787,-2.48077 -2.3251,1.41628 -6.02912,8.7836 -6.02912,11.99202 0,2.09787 -6.07929,8.65679 -8.02376,8.65679 -2.38835,0 -0.27435,3.56811 3.21639,5.42878 3.18877,1.69972 3.59627,2.31668 3.1132,4.71347 -0.6087,3.02005 1.9653,4.08922 3.0558,1.26929 z m -18.36163,-6.45 c 0,-3.25573 -1.0718,-3.79392 -2.98943,-1.5011 -1.50707,1.80194 -0.63573,4.47803 1.45804,4.47803 1.03488,0 1.53139,-0.9652 1.53139,-2.97693 z M 284.877,792.72608 c 3.58688,-2.24687 3.98013,-2.89612 3.98013,-6.57103 0,-4.00093 -0.0424,-4.05022 -2.25,-2.61436 -2.48767,1.61804 -8.75,9.32138 -8.75,10.76344 0,1.63426 2.95071,0.97094 7.01987,-1.57805 z m 14.72562,-13.84495 c 3.42295,-3.14952 2.21744,-4.33121 -2.25805,-2.21342 -3.41427,1.61563 -4.15847,2.67034 -2.82077,3.99774 1.15802,1.14912 2.34327,0.73271 5.07882,-1.78432 z m -132.14846,53.79779 c -0.79699,-1.22799 -1.76825,-3.96437 -2.15836,-6.08086 l -0.70927,-3.84816 3.86743,2.60778 c 4.7068,3.17375 9.44571,3.35683 14.03514,0.54223 4.05012,-2.48386 4.14466,-3.23588 0.77034,-6.12756 -5.13924,-4.40416 -8.40231,-14.55808 -8.40231,-26.1461 0,-4.50583 0.59409,-6.07692 4.46262,-11.80154 2.45445,-3.63206 5.60575,-7.496 7.00289,-8.58654 1.39714,-1.09054 4.52985,-4.74025 6.96157,-8.11045 2.43172,-3.37021 6.03042,-7.6665 7.99711,-9.54731 1.9667,-1.88081 3.57581,-3.98577 3.57581,-4.67769 0,-2.10005 7.19753,-6.29111 10.80407,-6.29111 3.5223,0 10.66884,-3.62699 13.70401,-6.95502 0.99104,-1.08666 2.3223,-1.97575 2.95835,-1.97575 0.63604,0 2.06339,-0.83845 3.17188,-1.86322 4.47968,-4.14136 10.36169,-2.53109 10.36169,2.83662 0,2.71995 4.01521,3.53033 10.43177,2.10542 6.18143,-1.37271 10.78762,-0.35682 8.16715,1.80125 -2.15811,1.7773 -1.08842,3.05839 2.55372,3.05839 2.1936,0 3.17955,-0.55001 3.55761,-1.98462 0.68175,-2.58695 0.98062,-2.52287 4.20404,0.90127 l 2.71672,2.88588 -2.98716,0.85012 c -5.55673,1.58139 -3.78274,5.2904 1.85839,3.88546 1.61211,-0.4015 2.49776,-1.31907 2.49776,-2.58778 0,-2.53583 1.62768,-2.52557 3,0.0189 1.16207,2.15464 0.27361,4.66197 -2.4454,6.90119 -0.85503,0.70415 -1.5546,2.04084 -1.5546,2.97042 0,2.01124 -3.28244,5.16288 -7.66499,7.35956 -1.7497,0.87701 -4.21293,3.47148 -5.50846,5.80197 -2.14705,3.86224 -3.62306,4.84698 -17.61037,11.74901 -15.16393,7.48264 -21.75749,12.26151 -24.7689,17.95197 -1.96691,3.71671 -12.50532,11.29592 -18.41417,13.24343 -3.50263,1.15444 -5.37565,2.4345 -6.26923,4.28455 -0.70085,1.45104 -2.76584,3.53904 -4.58885,4.64 -1.82301,1.10096 -6.54347,4.34607 -10.48991,7.21136 -8.18782,5.94471 -12.59727,6.8147 -15.08809,2.97692 z m 17.57143,-27.011 c 1.4355,-3.12636 -0.0453,-5.09826 -4.29326,-5.71692 -3.80925,-0.55478 -4.5531,1.01218 -2.42187,5.10181 1.96211,3.76513 5.1353,4.05579 6.71513,0.61511 z m 28.18764,-7.68754 c 2.27914,-1.75602 7.10768,-5.77486 10.73008,-8.93077 3.6224,-3.1559 7.22819,-5.738 8.01287,-5.738 0.78468,0 1.8709,-1.00471 2.41382,-2.23269 0.84039,-1.90079 1.75498,-2.2327 6.15231,-2.2327 3.85223,0 5.75867,-0.53259 7.5,-2.09523 1.28415,-1.15238 3.88977,-2.61238 5.79025,-3.24445 5.24077,-1.74297 8.04457,-3.90751 8.04457,-6.21041 0,-1.71753 -0.43309,-1.97143 -2.5,-1.46559 -7.54548,1.84664 -7.89789,1.69128 -2.7514,-1.21295 2.88674,-1.62901 7.16174,-3.27632 9.5,-3.66069 5.64583,-0.92806 7.7514,-2.12705 7.7514,-4.41395 0,-2.94563 -1.40666,-3.14942 -6.45212,-0.93474 -4.89719,2.1496 -13.71401,3.39138 -21.88947,3.08297 -3.77284,-0.14233 -5.20768,0.25649 -6.5,1.80669 -3.31999,3.98246 -24.76297,8.98781 -26.50711,6.18743 -1.49108,-2.39406 2.70802,-3.93961 18.33323,-6.74784 5.7903,-1.04065 9.21737,-2.20804 10.79235,-3.67628 1.86026,-1.73417 2.65795,-1.93442 4.11325,-1.03256 1.74404,1.08079 12.55441,-0.99421 15.91409,-3.05464 2.77742,-1.70333 0.004,-5.55825 -3.84578,-5.34565 -3.9549,0.2184 -4.92842,-0.2925 -4.69665,-2.4648 0.20564,-1.92741 -0.29256,-2.27587 -3.64357,-2.54846 -5.96447,-0.4852 -7.48044,3.15245 -2.30988,5.5427 2.38271,1.10149 2.57522,0.97577 -4.89238,3.19516 -7.94509,2.3613 -10.68052,-0.20168 -3.66596,-3.43487 2.3375,-1.07742 4.25,-2.24577 4.25,-2.59634 0,-2.58847 -32.2363,2.68056 -34.49152,5.63765 -2.2456,2.94448 -1.90749,4.7295 0.74152,3.91478 1.2375,-0.3806 3.375,-0.91285 4.75,-1.18278 1.375,-0.26994 3.4,-0.86823 4.5,-1.32954 6.00411,-2.51797 16.46886,-1.65056 11.55703,0.95795 -3.6448,1.93564 -13.37728,4.94129 -16.08479,4.96743 -5.59057,0.054 -8.04776,7.01552 -7.42526,21.03674 0.25489,5.74104 -0.017,7.90867 -1.10442,8.80419 -0.79341,0.65341 -1.45033,1.69151 -1.45984,2.30689 -0.0342,2.21699 -4.58592,5.50144 -6.82048,4.92158 -1.26298,-0.32773 -2.16224,-0.10026 -2.16224,0.54696 0,0.60942 0.69887,1.10804 1.55305,1.10804 0.85418,0 3.20864,1.11634 5.23214,2.48077 4.80579,3.2405 6.58287,3.13115 11.57091,-0.712 z m -3.87264,-13.64991 c 0.33082,-0.53116 2.26988,-1.71913 4.30902,-2.63993 2.03913,-0.9208 5.05752,-2.89227 6.70752,-4.38104 1.65,-1.48877 5.475,-3.40366 8.5,-4.25531 l 5.5,-1.54846 -3.65038,3.17409 c -2.00772,1.74575 -5.38272,4.23553 -7.5,5.53285 -6.28104,3.84854 -15.38171,6.55114 -13.86616,4.1178 z m -50.14725,20.81191 c 0,-4.09327 0.17651,-5.76779 0.39226,-3.72116 0.21574,2.04664 0.21574,5.39568 0,7.44231 -0.21575,2.04664 -0.39226,0.37212 -0.39226,-3.72115 z"
         id="path4342"
         inkscape:connector-curvature="0" />
      <path
         style="fill:#b193d5"
         d="m 257.60713,858.06981 c 1.94968,-0.78067 1.47638,-5.10662 -0.68426,-6.25406 -1.06384,-0.56497 -3.78177,-1.02722 -6.03984,-1.02722 -4.70105,0 -11.47044,-3.06979 -12.99246,-5.89185 -1.49915,-2.77964 -1.26751,-5.02353 0.51858,-5.02353 0.85361,0 2.01005,-1.30382 2.56988,-2.89737 0.55982,-1.59355 1.61897,-3.12626 2.35368,-3.40603 0.7347,-0.27976 1.64797,-1.91892 2.02949,-3.64258 0.58359,-2.63665 1.03491,-3.03084 2.8443,-2.48429 4.69409,1.41792 4.65063,1.45477 4.65063,-3.94281 0,-4.35202 -1.16325,-4.36954 -5.48344,-0.0826 -1.87923,1.86477 -4.31097,3.67212 -5.40386,4.01632 -1.09289,0.3442 -2.56082,1.91204 -3.26207,3.48409 -1.70857,3.83022 -3.07404,2.74311 -2.24766,-1.78944 0.9223,-5.05875 2.55366,-7.95365 7.68029,-13.62902 2.43411,-2.69466 5.12093,-6.23899 5.97071,-7.87629 4.50309,-8.6763 17.63878,-18.03631 29.43479,-20.97414 2.77671,-0.69156 2.77671,-0.69156 1.0209,1.70668 -0.9657,1.31902 -2.56896,3.61957 -3.56281,5.11233 -0.99385,1.49276 -3.28671,3.72545 -5.09524,4.96154 -1.93853,1.32494 -3.8073,3.77567 -4.55279,5.9706 -0.6955,2.04774 -2.55475,5.32374 -4.13168,7.27998 -6.12084,7.59317 -6.24775,8.11432 -2.74074,11.25433 1.71952,1.53957 3.69786,2.98824 4.39632,3.21927 0.69845,0.23102 1.31657,1.73788 1.3736,3.34857 0.15436,4.36012 3.73819,4.05062 5.20395,-0.4494 0.74507,-2.28744 2.17548,-3.88917 4.43086,-4.96154 2.10219,-0.99954 4.20546,-3.23055 5.70263,-6.04899 l 2.37204,-4.46539 -2.40241,-2.05664 c -4.14989,-3.55263 -4.02789,-14.1956 0.18044,-15.73975 6.19726,-2.27395 8.61617,-4.88353 8.61617,-9.29535 0,-3.46233 0.17981,-3.6698 3.18065,-3.6698 3.86395,0 9.67859,-4.97965 8.96711,-7.67943 -0.52244,-1.98246 0.59705,-2.21837 3.41798,-0.72027 4.73335,2.51373 1.04867,11.18274 -7.62957,17.95024 -7.23141,5.63923 -10.09528,10.92693 -8.3646,15.44396 0.57107,1.49045 1.21522,6.38876 1.43146,10.88512 0.39317,8.1752 0.39317,8.1752 -3.94111,13.43625 -2.38386,2.89358 -5.35492,7.63767 -6.60235,10.54243 -1.88565,4.39087 -3.29588,5.94508 -8.36382,9.21776 -3.35266,2.16503 -7.22075,4.16913 -8.59575,4.45358 -1.375,0.28444 -3.28139,0.93673 -4.23643,1.44953 -0.95504,0.5128 -2.08004,0.89712 -2.5,0.85403 -0.41996,-0.0431 -0.20107,-0.30357 0.48643,-0.57884 z m -90.1051,-25.39089 c -1.38398,-2.20524 -2.99859,-8.6827 -2.16431,-8.6827 0.23683,0 2.08837,1.11635 4.11455,2.48077 4.24995,2.86191 8.16268,3.14091 12.70452,0.90592 l 3.20034,-1.57486 -3,2.85477 c -7.09728,6.7537 -12.26091,8.14969 -14.8551,4.0161 z m 19.26314,-9.28881 c -1.00719,-1.20425 -1.02851,-1.95151 -0.0979,-3.43023 1.80798,-2.87277 1.42729,-3.43064 -0.90923,-1.33239 -2.07694,1.86514 -2.12436,1.85369 -4.49767,-1.08659 -2.69913,-3.34393 -4.95198,-9.20788 -3.92793,-10.22405 0.37107,-0.36821 1.11328,0.10824 1.64936,1.05879 1.29187,2.29069 3.29415,2.17938 7.9993,-0.44473 3.01199,-1.67981 4.16636,-1.90502 5.08616,-0.9923 3.88131,3.85145 17.18312,-2.77409 30.78984,-15.33622 1.925,-1.77722 5.75,-4.20144 8.5,-5.38716 2.75,-1.18573 5.675,-2.71068 6.5,-3.38878 0.825,-0.6781 2.82255,-1.54584 4.43901,-1.92831 1.61645,-0.38248 4.29879,-1.67043 5.96075,-2.86213 1.66196,-1.19169 5.26604,-3.28306 8.00906,-4.64748 6.00363,-2.98631 7.58964,-5.13178 5.844,-7.90549 -1.38036,-2.1933 0.71427,-4.0022 4.63439,-4.0022 5.49027,0 9.8017,-4.7032 6.92669,-7.5561 -1.18888,-1.17973 -2.11455,-1.10296 -6.35278,0.52686 -4.72643,1.81757 -17.49684,4.19778 -18.37779,3.42535 -0.85408,-0.74887 0.71488,-1.37105 5.93437,-2.35329 2.95084,-0.55531 6.38818,-1.67481 7.63855,-2.48778 1.42978,-0.92962 4.70641,-1.47812 8.83001,-1.47812 6.02331,0 6.64927,-0.20178 7.69569,-2.48077 0.6265,-1.36442 1.51685,-2.48077 1.97857,-2.48077 1.46392,0 0.90517,5.2294 -0.75302,7.04758 -0.87588,0.96039 -2.33838,3.20957 -3.25,4.99818 -0.93402,1.83255 -3.6217,4.3809 -6.1575,5.83829 -2.475,1.42245 -4.98995,3.5591 -5.58878,4.74812 -2.21916,4.40631 -5.20657,6.47664 -19.16601,13.2824 -13.73641,6.69702 -14.58697,7.29223 -22.01681,15.40708 -8.72551,9.52999 -13.7945,13.36739 -20.15578,15.25862 -3.17305,0.94335 -4.9247,2.21627 -6.35119,4.6154 -2.67649,4.50141 -8.99489,7.77253 -10.81339,5.59822 z m -27.5799,-17.75158 c 0.004,-3.82038 0.18518,-5.26167 0.40166,-3.20287 0.21647,2.05881 0.21284,5.18458 -0.008,6.94616 -0.22091,1.76157 -0.39803,0.0771 -0.39359,-3.74329 z m 24.40314,-7.9382 c -2.20601,-1.9264 -3.2521,-2.23542 -5.14717,-1.52045 -7.96767,3.00599 -2.65149,-11.49932 8.52877,-23.27098 3.63708,-3.82947 7.3402,-8.37374 8.22914,-10.09837 0.88894,-1.72463 3.24697,-4.46953 5.24007,-6.09977 3.60641,-2.94984 3.63327,-2.95468 5.59541,-1.00763 1.96213,1.94704 1.94782,1.98139 -2.98234,7.1542 -3.03258,3.18184 -5.23271,6.52068 -5.67271,8.60871 -0.39532,1.87602 -1.37996,4.5273 -2.18807,5.89172 -0.93832,1.58425 -0.36847,1.22565 1.57683,-0.99231 1.67537,-1.91019 3.31891,-4.2791 3.65232,-5.26424 0.3334,-0.98513 1.1305,-1.61068 1.77133,-1.3901 1.86352,0.64145 0.75903,6.9655 -1.52486,8.73102 -1.42303,1.10004 -1.84464,2.20563 -1.38688,3.6368 0.47436,1.48309 0.0269,2.49471 -1.60522,3.62909 -2.98381,2.07387 -3.8179,1.98391 -3.8179,-0.4118 0,-2.86492 -1.84666,-2.43847 -3.22268,0.74423 -0.6489,1.50087 -2.04525,3.99217 -3.10302,5.53624 -1.57839,2.30403 -1.7216,3.24646 -0.79875,5.2563 1.94724,4.24087 1.01377,4.49836 -3.14427,0.86734 z m 103.26872,-16.36957 c 0,-1.20298 2.80451,-2.51314 3.62877,-1.69521 0.29839,0.29609 -0.39602,1.03677 -1.54312,1.64596 -1.44619,0.76802 -2.08565,0.78312 -2.08565,0.0493 z m -66,-2.92442 c 0,-1.3503 4.13525,-4.0255 6.22251,-4.0255 2.85173,0 2.05951,1.48359 -1.75644,3.28929 -4.09453,1.93752 -4.46607,1.99877 -4.46607,0.73621 z m -0.0611,-12.99373 c -1.8161,-1.11378 2.73962,-3.57682 8.06108,-4.35821 2.475,-0.36342 5.57962,-0.92781 6.89915,-1.25419 3.59147,-0.88835 1.72435,1.38169 -2.71753,3.30395 -4.89194,2.11703 -10.75285,3.22215 -12.2427,2.30845 z m -0.43892,-12.86254 c 0.33992,-0.54577 1.71648,-0.99231 3.05902,-0.99231 1.34254,0 2.44098,0.44654 2.44098,0.99231 0,0.54577 -1.37656,0.99231 -3.05902,0.99231 -1.7847,0 -2.80156,-0.41338 -2.44098,-0.99231 z m 16.5,-3.00807 c 0,-1.27902 2.84907,-2.434 3.76417,-1.52595 0.37285,0.36998 0.0159,1.08812 -0.79313,1.59586 -1.93575,1.21479 -2.97104,1.19043 -2.97104,-0.0699 z m 27.5,-2.14691 c -1.1,-0.61898 -2.29208,-1.56354 -2.64908,-2.09904 -0.35699,-0.5355 -1.29776,-0.72663 -2.0906,-0.42472 -0.81476,0.31024 -2.58567,-0.65399 -4.07298,-2.21768 l -2.63146,-2.76659 3.09706,-0.61465 c 6.26648,-1.24366 10.17904,-0.17732 6.84706,1.86612 -2.57339,1.57821 -0.88555,3.47308 3.09362,3.47308 3.25262,0 4.20107,-0.40773 4.61663,-1.98462 0.64832,-2.46011 1.50941,-2.50037 3.63476,-0.16994 2.13038,2.33593 2.09072,3.14687 -0.15388,3.14687 -0.99488,0 -2.68238,0.6556 -3.75,1.4569 -2.33585,1.75316 -3.32105,1.80859 -5.94113,0.33427 z m -52,-1.79117 c 2.79107,-1.19014 5.74125,-1.19014 5,0 -0.33992,0.54576 -2.05398,0.96092 -3.80902,0.92256 -2.68981,-0.0588 -2.87686,-0.20369 -1.19098,-0.92256 z m 8.5,-1.4683 c 0,-0.26179 1.6875,-1.33062 3.75,-2.37518 2.0625,-1.04455 4.60724,-2.83978 5.65499,-3.98939 1.04774,-1.14962 2.51024,-2.09021 3.25,-2.09021 0.73975,0 2.2194,-0.86767 3.28811,-1.92815 1.87921,-1.86476 3.30562,-2.40511 5.69832,-2.15865 0.62778,0.0647 1.86164,1.90372 2.7419,4.0868 0.88027,2.18308 2.12913,3.96923 2.77525,3.96923 3.11724,0 -0.62617,1.20863 -6.1378,1.9817 -7.35842,1.03211 -9.32245,0.52475 -8.45594,-2.18438 0.81581,-2.55064 -2.03827,-1.15692 -5.30822,2.59214 -1.89423,2.17177 -7.25661,3.72071 -7.25661,2.09609 z"
         id="path4340"
         inkscape:connector-curvature="0" />
      <path
         style="fill:#a17ccd"
         d="m 259.85713,855.40771 c 0,-2.67697 -3.97898,-5.04172 -8.20209,-4.87462 -6.12799,0.24249 -13.79791,-4.1138 -13.79791,-7.83682 0,-1.00694 0.68912,-1.83082 1.53138,-1.83082 0.84227,0 1.80364,-0.70401 2.13639,-1.56447 0.33275,-0.86047 1.69884,-1.97716 3.03576,-2.48154 1.76097,-0.66437 2.26823,-1.42518 1.84094,-2.76112 -0.68459,-2.14035 0.24575,-5.10056 1.60301,-5.10056 0.51343,0 2.2328,0.95322 3.82083,2.11827 3.43234,2.51812 5.72297,1.92858 6.64322,-1.70977 0.48698,-1.92537 0.22077,-2.9035 -0.9702,-3.56488 -1.81498,-1.0079 -2.21627,-2.79746 -0.62731,-2.79746 2.80491,0 7.96178,4.58416 7.9736,7.08806 0.0112,2.36825 1.56657,3.82732 4.07998,3.82732 0.49721,0 2.0857,-1.7719 3.52998,-3.93757 1.44427,-2.16565 3.58643,-4.24005 4.76035,-4.60977 2.67522,-0.84256 4.2126,-2.69572 6.80459,-8.20228 l 2.0456,-4.34577 -2.49913,-2.10423 c -3.46889,-2.92075 -4.13765,-6.72521 -1.88769,-10.73867 1.64209,-2.92913 3.63054,-4.62767 9.80812,-8.37812 1.6124,-0.97891 1.69338,-1.4296 0.5867,-3.26537 -1.71205,-2.83998 -0.77818,-4.0336 3.15581,-4.0336 3.72511,0 8.6267,-4.29837 8.89236,-7.79801 0.20432,-2.69159 2.39421,-2.77138 3.24284,-0.11816 1.3976,4.36959 -0.56647,7.80838 -8.54054,14.95316 -7.96382,7.13561 -10.93104,12.03739 -9.43047,15.57893 1.34504,3.17449 2.25477,18.49024 1.2206,20.54946 -0.54819,1.09154 -2.28174,3.33425 -3.85233,4.98382 -1.57059,1.64956 -4.16246,5.6684 -5.7597,8.93076 -3.4117,6.96839 -4.70848,8.24552 -12.49624,12.30688 -6.37734,3.32582 -8.64845,3.77671 -8.64845,1.71695 z m -90.68744,-21.27572 c -1.32103,-0.83353 -3.31256,-5.49609 -3.31256,-7.75537 0,-1.09585 0.93016,-0.83244 3.73213,1.05691 2.05268,1.38409 4.97768,2.51654 6.5,2.51654 3.60774,0 3.52599,1.54463 -0.18247,3.44759 -3.26332,1.67455 -4.95477,1.85891 -6.7371,0.73433 z m 68.75725,-8.39268 c 0.5116,-1.77014 0.93019,-3.29608 0.93019,-3.39096 0,-0.0949 2.3625,-3.10705 5.25,-6.6937 2.8875,-3.58666 6.825,-8.74789 8.75,-11.46941 1.925,-2.72151 5.525,-6.43429 8,-8.25063 4.19477,-3.07843 17.79095,-9.19199 18.61776,-8.37153 0.67033,0.66518 -6.74557,8.64853 -8.03379,8.64853 -3.11916,0 -12.54609,10.41236 -14.37432,15.87692 -1.38139,4.12893 -2.55114,5.82008 -4.80462,6.94615 -1.63827,0.81866 -5.53039,3.38625 -8.64915,5.70577 -6.80268,5.05936 -6.86268,5.0699 -5.68607,0.99886 z m -50.54467,-3.68734 c -0.32609,-0.52357 -0.0322,-1.84287 0.65313,-2.93179 1.74722,-2.77622 0.2556,-3.75963 -2.26678,-1.49447 -2.07697,1.86517 -2.12802,1.8551 -4.50613,-0.88835 -2.44264,-2.81789 -3.17552,-5.64114 -1.46438,-5.64114 0.51754,0 1.25119,0.49806 1.63032,1.10679 0.69492,1.11576 3.51714,0.91262 14.11738,-1.01615 6.31553,-1.14915 14.23619,-6.01668 24.31132,-14.94019 10.7823,-9.54984 14.53555,-10.63438 6.75,-1.95048 -2.3375,2.60722 -5.33008,6.15416 -6.65018,7.8821 -3.12167,4.08611 -11.47372,9.4774 -16.83281,10.86569 -2.62124,0.67904 -4.66781,1.93386 -5.37497,3.29556 -2.86341,5.51382 -8.54182,8.64277 -10.3669,5.71243 z M 159.167,804.64622 c 0.006,-3.27461 0.1923,-4.4946 0.41486,-2.71107 0.22256,1.78352 0.21797,4.46275 -0.0102,5.95384 -0.22818,1.4911 -0.41027,0.0318 -0.40466,-3.24277 z m 16.69672,-14.14038 c 0.004,-0.9551 0.91768,-3.07616 2.03124,-4.71346 1.11356,-1.63731 2.74988,-4.45538 3.63626,-6.26239 0.88639,-1.807 3.84435,-5.15365 6.57324,-7.43698 2.7289,-2.28334 5.76673,-5.71681 6.75074,-7.62992 0.98401,-1.91313 2.73699,-4.32906 3.89552,-5.36874 2.02426,-1.81661 2.10641,-1.819 2.10641,-0.0614 0,1.96757 -4.01253,8.38377 -5.25,8.39495 -0.4125,0.004 -0.75,0.62984 -0.75,1.39134 0,2.4545 -6.1376,15.90659 -8.35305,18.3078 -4.24221,4.59792 -10.65271,6.63355 -10.64036,3.3788 z m 58.99341,-3.65312 c 0,-0.86772 7.06623,-4.6769 8.0638,-4.34693 0.58304,0.19285 -0.9928,1.34033 -3.50187,2.54995 -2.50906,1.20962 -4.56193,2.01826 -4.56193,1.79698 z m 15.51175,-8.52152 c 0.34639,-0.55615 2.76371,-2.0842 5.37183,-3.39567 5.87625,-2.95481 7.38876,-4.71148 7.51642,-8.72976 0.0896,-2.82068 0.49573,-3.22922 3.90973,-3.93309 5.76132,-1.18782 7.69027,-2.53983 7.69027,-5.39017 0,-1.57176 1.19887,-3.65518 3.13725,-5.45197 4.10359,-3.80385 4.84418,-2.87322 1.5113,1.89912 -1.4567,2.08586 -2.64855,4.25743 -2.64855,4.82572 0,1.3928 -3.11667,4.10189 -7.17059,6.23285 -1.83117,0.96256 -4.22941,3.43413 -5.32941,5.49236 -1.27878,2.39275 -3.80305,4.77058 -7,6.59391 -5.06238,2.88726 -8.13926,3.70475 -6.98825,1.8567 z m -25.51175,-14.86575 c 0.825,-0.52905 2.625,-0.96191 4,-0.96191 1.97894,0 2.18736,0.20048 1,0.96191 -0.825,0.52906 -2.625,0.96192 -4,0.96192 -1.97894,0 -2.18736,-0.20049 -1,-0.96192 z m 46,-19.29143 c 0,-2.05138 2.07294,-3.0355 3.05902,-1.45227 0.50246,0.80675 0.35826,1.64231 -0.36181,2.09655 -1.81798,1.14682 -2.69721,0.9368 -2.69721,-0.64428 z m -33.5722,-4.84898 c -0.28018,-0.72454 -0.0698,-2.46478 0.46754,-3.8672 0.53734,-1.40242 0.7057,-2.81904 0.37415,-3.14805 -0.33155,-0.329 0.80102,-0.59818 2.51684,-0.59818 2.73996,0 3.24253,0.44157 4.12917,3.62803 0.55524,1.99541 0.77483,4.00484 0.48799,4.46538 -0.8475,1.36074 -7.41674,0.9654 -7.97569,-0.47998 z"
         id="path4338"
         inkscape:connector-curvature="0" />
      <path
         style="fill:#976dc8"
         d="m 258.55137,852.24564 c -2.12978,-1.85928 -3.93674,-2.45031 -7.5,-2.45313 -4.90174,-0.004 -10.77274,-2.71325 -11.83571,-5.46199 -0.73004,-1.88782 3.61544,-5.59403 5.64147,-4.81154 3.8809,1.49888 5.00899,1.48554 5.60913,-0.0664 0.35902,-0.92841 -0.10374,-2.44631 -1.06821,-3.50383 -0.9359,-1.02621 -1.55297,-2.81859 -1.37128,-3.98309 0.32777,-2.10067 0.35735,-2.09742 3.77464,0.41432 4.71752,3.46743 6.71731,3.21419 9.33101,-1.18164 l 2.20784,-3.71322 0.51293,2.96899 c 0.719,4.16185 6.99825,4.95626 8.76482,1.10889 0.61983,-1.34993 3.38713,-3.92266 6.14956,-5.71719 7.0319,-4.56807 10.06931,-12.34458 6.07519,-15.55394 -2.78131,-2.23484 -3.19056,-8.63462 -0.78512,-12.27755 0.91167,-1.38067 3.70544,-3.46551 6.20839,-4.63299 2.84706,-1.32798 4.77361,-2.96017 5.14593,-4.35968 0.32731,-1.23035 2.02387,-3.13008 3.77014,-4.22162 1.74627,-1.09154 4.15068,-3.90282 5.34313,-6.24728 1.89102,-3.7179 2.252,-4.00039 2.82452,-2.2104 1.19114,3.72406 -0.54627,7.40524 -5.63096,11.93076 -12.62061,11.23269 -14.45614,14.465 -12.0663,21.24842 0.59353,1.68471 1.09963,6.4642 1.12466,10.62107 0.0455,7.55796 0.0455,7.55796 -4.41521,12.40385 -2.4534,2.66524 -4.47064,5.29933 -4.48277,5.85355 -0.0506,2.31406 -4.86357,9.75374 -7.06701,10.92391 -2.0244,1.07509 -2.56329,1.01931 -3.59195,-0.37182 -1.12217,-1.51759 -1.34312,-1.51368 -3.03666,0.0538 -4.20127,3.88856 -6.34121,5.74998 -6.57642,5.72047 -0.1375,-0.0173 -1.51259,-1.13359 -3.05576,-2.48076 z m -88.80135,-18.68329 c -1.50938,-0.74274 -2.5136,-2.21649 -2.71983,-3.99149 -0.17981,-1.5477 0.0452,-2.62583 0.5,-2.39585 0.45482,0.22998 2.73486,1.28335 5.06677,2.34083 4.89956,2.22186 5.12011,2.70379 1.90306,4.1583 -1.71904,0.77723 -3.00485,0.74696 -4.75,-0.11179 z m 69.10711,-8.92109 c 0,-1.54374 4.83585,-8.40066 7.40636,-10.50173 0.9569,-0.78214 2.57067,-3.03816 3.58616,-5.01337 3.0126,-5.85975 10.68917,-13.58746 15.77955,-15.88465 2.60036,-1.17349 5.50932,-2.54817 6.46436,-3.05484 4.01665,-2.13092 5.23629,-1.02328 2.26357,2.05571 -1.5808,1.6373 -3.2593,2.97692 -3.73,2.97692 -0.4707,0 -3.36593,1.88058 -6.43385,4.17906 -5.82147,4.36145 -9.21211,8.79986 -11.2105,14.67479 -0.82275,2.41876 -2.9595,4.75332 -7.03875,7.69038 -6.38507,4.59726 -7.0869,4.88224 -7.0869,2.87773 z m -50.48039,-2.59817 c -0.35679,-0.57285 -0.30428,-2.04226 0.11669,-3.26536 0.42096,-1.2231 0.78751,-2.67035 0.81454,-3.21612 0.027,-0.54577 3.05916,-1.73858 6.73804,-2.65069 7.63985,-1.89415 14.99686,-6.54311 24.76142,-15.64699 7.48532,-6.97884 8.64597,-7.60037 3.91606,-2.09704 -1.8515,2.15425 -4.4168,5.28447 -5.70067,6.95604 -3.31742,4.31921 -10.08604,8.67495 -15.63501,10.06145 -3.8908,0.97218 -4.99742,1.76256 -6.08537,4.34635 -1.93753,4.6015 -7.39414,7.97141 -8.9257,5.51236 z m -7.56545,-6.07032 c -1.48569,-2.75469 -0.89956,-3.11573 2.91568,-1.79596 2.5697,0.88891 2.96846,1.37478 2.03972,2.48525 -1.65712,1.98133 -3.66573,1.70194 -4.9554,-0.68929 z m -21.6818,-10.83039 c 0,-2.45596 0.19502,-3.46068 0.43337,-2.2327 0.23836,1.22799 0.23836,3.23741 0,4.46539 -0.23835,1.22798 -0.43337,0.22327 -0.43337,-2.23269 z m 21.72764,-21.71036 c 0,-2.00465 2.0165,-5.3438 5.31616,-8.8031 4.07673,-4.27397 5.16782,-4.08034 2.79575,0.49615 -2.1461,4.14049 -8.11191,10.24975 -8.11191,8.30695 z m 83,-17.94704 c 0,-1.11074 0.6382,-2.01953 1.41821,-2.01953 0.78002,0 2.24252,-0.30687 3.25,-0.68194 1.63318,-0.608 1.67807,-0.49454 0.41403,1.04648 -2.57536,3.13971 -5.08224,3.95605 -5.08224,1.65499 z m -25,-26.67914 c 0,-1.4668 2.17156,-7.09423 2.73758,-7.09423 1.16778,0 3.20048,3.59006 3.23062,5.70577 0.026,1.82624 -0.51433,2.23269 -2.9682,2.23269 -1.65,0 -3,-0.37991 -3,-0.84423 z"
         id="path4336"
         inkscape:connector-curvature="0" />
      <path
         style="fill:#875bba"
         d="m 259.90411,851.80966 c -0.67532,-0.41416 -1.76092,-1.81806 -2.41245,-3.11977 -0.65153,-1.30171 -2.2768,-2.52127 -3.61171,-2.71012 -2.09551,-0.29646 -2.25082,-0.13258 -1.13672,1.1995 2.03855,2.43741 -3.187,3.31534 -7.52244,1.26382 -4.22426,-1.99892 -5.13934,-4.09007 -2.87585,-6.57196 1.70053,-1.86462 1.78163,-1.85973 4.703,0.28353 2.9263,2.14686 2.99474,2.15086 4.39091,0.25616 0.78006,-1.05858 1.41828,-2.95568 1.41828,-4.2158 0,-2.56076 0.66484,-2.74571 4.57167,-1.27176 2.25124,0.84934 2.92771,0.69938 4.056,-0.8991 1.09204,-1.54709 2.14397,-1.81331 5.43462,-1.37534 3.75977,0.50042 4.31506,0.2607 7.06515,-3.04997 1.64157,-1.97619 4.55427,-4.33217 6.47267,-5.23551 6.05909,-2.85311 9.70839,-13.97192 5.53724,-16.87104 -3.56359,-2.47683 -2.95371,-8.69984 1.26265,-12.88377 1.87,-1.85561 4.04867,-3.37385 4.84149,-3.37385 1.99261,0 13.73122,-12.30846 13.87699,-14.55065 0.0652,-1.00233 0.0722,-2.49223 0.0157,-3.31088 -0.0566,-0.81866 0.39611,-0.5122 1.00591,0.68102 1.21049,2.36862 0.35232,7.67653 -1.09738,6.78746 -0.49428,-0.30313 -1.17842,0.32343 -1.52031,1.39236 -0.3419,1.06893 -3.32007,4.26322 -6.61817,7.09843 -9.56127,8.21936 -9.92296,9.75375 -7.26051,30.80139 0.53897,4.26069 0.3157,4.87822 -3.13332,8.66651 -2.04249,2.24341 -5.13039,6.84575 -6.862,10.22743 -4.89462,9.55879 -7.18232,9.66795 -12.19442,0.58193 -1.01457,-1.83921 -2.31196,-2.72884 -3.97963,-2.72884 -3.24668,0 -3.12128,0.99825 0.56569,4.50342 1.71274,1.62829 2.91339,3.69883 2.75,4.74242 -0.33497,2.13945 -5.92461,4.79817 -7.74303,3.68298 z m -92.23086,-20.37533 c -1.66205,-3.61974 -0.48595,-3.97773 4.11792,-1.25343 4.40526,2.60677 4.36829,3.7384 -0.12215,3.7384 -2.07595,0 -3.16605,-0.67792 -3.99577,-2.48497 z m 72.18388,-8.34472 c 0,-0.49863 1.78559,-3.06623 3.96798,-5.70577 2.18239,-2.63953 6.00546,-7.75883 8.49572,-11.37622 5.24896,-7.62472 9.67821,-11.27781 16.81043,-13.86467 5.94872,-2.15761 7.41163,-1.72567 2.7524,0.81267 -9.72405,5.29765 -16.39664,11.78055 -20.52978,19.94615 -2.92437,5.7775 -11.49675,13.37391 -11.49675,10.18784 z m -52,-1.62343 c 0,-3.27018 4.5187,-7.31207 8.25,-7.37948 1.63768,-0.0296 0.61678,3.73392 -1.56445,5.76732 -2.05815,1.91866 -6.68555,3.03451 -6.68555,1.61216 z m -6.02006,-4.93624 c -1.6514,-1.97452 -1.03221,-2.43267 1.8343,-1.35722 1.27284,0.47754 2.03378,1.31857 1.69099,1.86896 -0.88075,1.4141 -2.05744,1.24329 -3.52529,-0.51174 z m -22.70758,-11.38756 c 0,-2.45596 0.19502,-3.46068 0.43337,-2.2327 0.23836,1.22799 0.23836,3.23741 0,4.46539 -0.23835,1.22798 -0.43337,0.22327 -0.43337,-2.23269 z m 24.91514,-27.84664 c 0.24062,-0.71632 1.02812,-1.49776 1.75,-1.73654 0.75,-0.24807 1.125,0.12404 0.875,0.86827 -0.24062,0.71633 -1.02812,1.49777 -1.75,1.73654 -0.75,0.24808 -1.125,-0.12404 -0.875,-0.86827 z m 57.86756,-38.60421 c -1.09104,-0.66911 -1.18539,-1.41592 -0.39963,-3.16331 l 1.02858,-2.28742 1.25064,2.31886 c 1.40681,2.60844 0.29303,4.46429 -1.87959,3.13187 z"
         id="path4334"
         inkscape:connector-curvature="0" />
      <path
         style="fill:#7848b2"
         d="m 261.36815,846.83072 c -1.57473,-1.63103 -3.68392,-3.22401 -4.68709,-3.53995 -2.09238,-0.65899 -2.56329,-5.40224 -0.53634,-5.40224 1.95427,0 11.04578,9.57734 10.27155,10.82043 -1.04146,1.67216 -1.94472,1.33609 -5.04812,-1.87824 z m -16.48312,-1.46652 c -1.97732,-2.3642 -0.78809,-3.7255 1.7273,-1.9772 1.23464,0.85812 2.2448,1.98144 2.2448,2.49626 0,1.44721 -2.61319,1.10572 -3.9721,-0.51906 z m 28.91981,-0.71729 c -0.65323,-1.26115 -2.57198,-3.74424 -4.26387,-5.51799 l -3.07617,-3.225 2.65721,0 c 2.41281,0 6.73512,-3.26444 6.73512,-5.08672 0,-0.40879 2.22496,-1.94493 4.94436,-3.41362 3.57213,-1.92925 5.33781,-3.64923 6.36203,-6.19741 l 1.41769,-3.52706 1.22806,3.69244 c 1.31599,3.95682 0.10207,7.05623 -4.12974,10.54414 -1.00592,0.8291 -3.33075,4.38623 -5.16629,7.90473 -3.76866,7.22409 -5.00557,8.11401 -6.7084,4.82649 z m -104.19771,-11.7994 c -0.9625,-0.55629 -1.75,-1.6843 -1.75,-2.5067 0,-1.27976 0.42451,-1.24642 2.94562,0.23139 1.62009,0.94964 2.71853,2.09124 2.44098,2.53686 -0.65084,1.04498 -1.4791,0.98541 -3.6366,-0.26155 z m 19.2818,-12.57244 c 0.0662,-1.54944 2.55386,-3.89482 4.7182,-4.44836 2.90893,-0.74398 3.16631,2.65152 0.31574,4.16537 -2.25532,1.19772 -5.07981,1.35651 -5.03394,0.28299 z m 54.85343,-2.07275 c 2.47157,-3.4443 4.97909,-5.58689 5.70059,-4.87094 0.68654,0.68126 -5.47216,7.68792 -6.75751,7.68792 -0.53047,0 -0.0549,-1.26764 1.05692,-2.81698 z m 42.2353,-10.43039 c -2.06691,-2.47832 -0.74027,-8.60353 2.46109,-11.36313 3.39565,-2.92707 4.02865,-2.24494 1.80331,1.94328 -0.9694,1.82447 -2.01508,5.06247 -2.32374,7.19556 -0.50095,3.46203 -0.70926,3.70079 -1.94066,2.22429 z m -29.12053,-6.45897 c 0,-1.15331 7.01844,-7.08597 8.38283,-7.08597 0.50993,0 0.0699,0.94127 -0.97784,2.09171 -2.73886,3.00732 -7.40499,6.15437 -7.40499,4.99426 z m 49.0856,-19.48981 c 0.0302,-1.09154 0.44171,-2.8777 0.9144,-3.96923 0.78709,-1.81758 0.86406,-1.77582 0.9144,0.49615 0.0302,1.36442 -0.38124,3.15058 -0.9144,3.96923 -0.80009,1.22853 -0.95977,1.14188 -0.9144,-0.49615 z"
         id="path4332"
         inkscape:connector-curvature="0" />
      <path
         style="fill:#6b3ba5"
         d="m 274.79949,840.30839 c -2.3919,-2.5265 -2.40226,-2.6089 -0.50123,-3.98829 1.06762,-0.77468 3.09262,-1.46029 4.5,-1.5236 1.69478,-0.0762 1.96792,-0.26835 0.80887,-0.56892 -2.90404,-0.75306 -1.98292,-3.1144 2.24894,-5.76531 2.19942,-1.37775 4.55767,-3.39278 5.24055,-4.47783 1.70525,-2.70954 2.76051,-2.47155 2.76051,0.62257 0,1.75734 -1.28168,3.75996 -3.96926,6.20192 -2.1831,1.98359 -4.58211,5.36754 -5.33115,7.5199 -1.7014,4.889 -2.6832,5.22658 -5.75723,1.97956 z m -84.56205,-20.82587 c 0.34083,-0.88135 0.61969,-1.78921 0.61969,-2.01745 0,-0.22825 0.9,-0.415 2,-0.415 2.8037,0 2.48963,1.44468 -0.61969,2.85048 -2.28155,1.03155 -2.5397,0.9776 -2,-0.41803 z m 96.29572,-15.8286 c 0.32663,-1.63731 0.96945,-3.64674 1.42851,-4.46539 1.4983,-2.672 0.98204,1.11623 -0.60856,4.46539 l -1.4138,2.97692 0.59385,-2.97692 z"
         id="path4330"
         inkscape:connector-curvature="0" />
    </g>
    <path
       style="fill:#aa87de;stroke:none"
       d="m 209.94886,761.94189 31.32535,-15.99576 39.6787,-9.356 29.49802,-11.92137"
       id="path4354"
       inkscape:path-effect="#path-effect4356"
       inkscape:original-d="m 209.94886,761.94189 c 10.44179,-5.33192 22.05826,-11.26742 31.32535,-15.99576 3.45569,-2.45307 37.65179,-7.56164 39.6787,-9.356 4.04619,-0.85514 28.71489,-12.42435 29.49802,-11.92137"
       inkscape:connector-curvature="0"
       sodipodi:nodetypes="cccc" />
  </g>
</svg>
