<?xml version="1.0" encoding="UTF-8" standalone="no"?>
<!-- Created with Inkscape (http://www.inkscape.org/) -->

<svg
   xmlns:dc="http://purl.org/dc/elements/1.1/"
   xmlns:cc="http://creativecommons.org/ns#"
   xmlns:rdf="http://www.w3.org/1999/02/22-rdf-syntax-ns#"
   xmlns:svg="http://www.w3.org/2000/svg"
   xmlns="http://www.w3.org/2000/svg"
   xmlns:sodipodi="http://sodipodi.sourceforge.net/DTD/sodipodi-0.dtd"
   xmlns:inkscape="http://www.inkscape.org/namespaces/inkscape"
   width="450"
   height="450"
   id="svg2"
   version="1.1"
   inkscape:version="0.48.4 r9939"
   sodipodi:docname="contestants.svg">
  <defs
     id="defs4">
    <inkscape:path-effect
       effect="spiro"
       id="path-effect4360"
       is_visible="true" />
    <inkscape:path-effect
       effect="spiro"
       id="path-effect4356"
       is_visible="true" />
  </defs>
  <sodipodi:namedview
     id="base"
     pagecolor="#ffffff"
     bordercolor="#666666"
     borderopacity="1.0"
     inkscape:pageopacity="0.0"
     inkscape:pageshadow="2"
     inkscape:zoom="0.49497475"
     inkscape:cx="391.03305"
     inkscape:cy="427.1784"
     inkscape:document-units="px"
     inkscape:current-layer="layer1"
     showgrid="false"
     inkscape:window-width="1680"
     inkscape:window-height="989"
     inkscape:window-x="-9"
     inkscape:window-y="-9"
     inkscape:window-maximized="1" />
  <metadata
     id="metadata7">
    <rdf:RDF>
      <cc:Work
         rdf:about="">
        <dc:format>image/svg+xml</dc:format>
        <dc:type
           rdf:resource="http://purl.org/dc/dcmitype/StillImage" />
        <dc:title />
      </cc:Work>
    </rdf:RDF>
  </metadata>
  <g
     inkscape:label="Layer 1"
     inkscape:groupmode="layer"
     id="layer1"
     transform="translate(0,-602.3622)">
    <g
       id="g5008">
      <path
         style="fill:#e4d5f0"
         d="M 101.17737,982.74779 C 81.599038,979.97044 55.306106,970.70832 47.331402,963.77969 45.744869,962.40125 39.687197,958.52747 33.869909,955.17125 18.930936,946.55243 5.0319468,935.49784 5.0275698,932.23148 c -0.00204,-1.52581 -0.8690991,-2.77419 -1.9267879,-2.77419 -1.2555647,0 -1.9230704,-37.2937 -1.9230704,-107.44238 0,-94.0737 0.3576612,-107.38179 2.8744801,-106.95549 3.8857625,0.65818 14.4331534,12.53357 14.4331534,16.25041 0,1.6409 1.170601,3.50187 2.601336,4.13549 2.314679,1.02507 6.415155,10.21535 12.406114,27.80546 1.896439,5.56815 33.724072,24.24673 39.882115,26.3871 2.906305,1.01015 14.82776,18.24992 20.098967,31.26517 2.181385,5.3861 6.127721,13.78775 8.769633,18.67033 2.64191,4.88258 5.51948,10.23955 6.39459,11.90438 2.33277,4.43789 7.56816,1.6247 18.50072,-9.94123 5.28845,-5.5948 12.70208,-11.99747 16.47475,-14.22814 3.77267,-2.23067 7.98919,-5.62682 9.37006,-7.547 1.38086,-1.92018 3.6251,-3.49124 4.98721,-3.49124 4.80333,0 18.20628,-11.8527 18.20628,-16.10044 0,-4.00499 4.03329,-9.12104 17.05111,-21.62861 3.17611,-3.05161 5.83122,-7.43571 5.90024,-9.74243 0.069,-2.30673 1.63991,-5.567 3.49087,-7.24505 2.53676,-2.2998 2.66161,-2.90648 0.50707,-2.46403 -2.00014,0.41076 -2.9611,-1.60188 -3.20072,-6.70362 -0.18826,-4.00983 -1.2613,-10.33263 -2.38437,-14.05066 -1.1549,-3.82334 -0.86488,-12.43643 -0.85225,-19.8965 0.01,-5.82516 0.30585,-11.75611 0.44481,-13.13645 0.43352,-4.30619 2.76735,-11.18531 4.30177,-12.73345 3.88734,-3.92209 10.21433,-7.87356 12.98073,-10.00326 2.76641,-2.1297 6.5138,-3.87745 8.32755,-3.88387 1.81374,-0.006 4.16952,-1.89169 5.23509,-4.18947 2.21182,-4.76958 9.69964,-7.05733 25.62603,-7.8295 8.03055,-0.38936 11.77217,-1.62663 13.58859,-4.49344 3.32747,-5.2517 9.78251,-3.63022 10.5592,2.65242 0.67703,5.47656 2.32699,6.23683 5.52515,2.54592 2.33532,-2.6951 10.20643,0.90282 10.20643,4.66541 0,1.14635 2.81249,3.74734 6.24998,5.77997 8.06612,4.76962 8.59151,5.86998 10.13617,21.22942 -0.0855,2.85661 2.54994,17.19472 3.5694,25.70576 -0.1302,3.34218 -1.576,12.04273 -3.21294,19.33456 -1.63693,7.29184 -2.52149,14.10706 -1.96566,15.14495 1.67655,3.13068 -7.51396,12.92372 -16.21926,17.28258 -13.13161,6.57517 -10.73149,14.59366 7.50529,39.4324 4.55065,6.19804 9.47399,11.51984 12.28247,12.60081 4.56338,0.98403 8.37436,3.41787 12.11142,9.09604 1.86266,3.80012 10.25845,9.02255 12.78867,14.45515 1.37663,2.95573 2.84759,7.2149 5.53653,11.43902 2.60934,-4.44969 8.55287,-14.13669 9.58469,-17.23988 0.63242,-1.90199 3.11914,-4.48474 5.52604,-5.7395 2.40692,-1.25473 6.53965,-3.72179 9.18387,-5.48235 2.64423,-1.76056 7.1364,-3.21575 9.98262,-3.23374 2.84622,-0.0179 5.70979,-1.03138 6.36348,-2.25203 0.65369,-1.22064 3.26018,-2.21935 5.79221,-2.21935 7.76375,0 13.15554,-4.24144 19.92732,-15.67574 3.56885,-6.02609 7.52857,-10.95653 8.79937,-10.95653 1.27079,0 4.26405,-2.39979 6.65167,-5.33287 4.51135,-5.54198 19.28077,-9.104 19.54132,-4.71288 0.0743,1.2529 0.87888,0.28058 1.7879,-2.16071 0.96642,-2.59549 1.68348,26.89596 1.72675,71.01938 0.0579,58.94542 -0.47812,76.29708 -2.44903,79.29201 -3.15042,4.78726 -30.22496,20.36183 -41.13706,23.66397 -4.47727,1.35487 -11.47873,3.4596 -15.55879,4.67714 -13.11917,3.9149 -39.25264,9.11307 -55.59064,11.0574 -15.79687,1.87995 -20.58614,0.84751 -31.22151,-6.73055 -1.58653,-1.13045 -5.91344,-3.99619 -9.61535,-6.36831 -6.22119,-3.9864 -19.60196,-21.59972 -27.59833,-36.3281 -5.42614,-9.99433 -12.78615,-26.48206 -12.78615,-28.64325 0,-1.0978 -1.76371,-6.19226 -3.91934,-11.32106 -2.15562,-5.12878 -5.28809,-16.31602 -6.96101,-24.86054 -4.31502,-22.03913 -5.53467,-24.33337 -10.12168,-19.03965 -1.98343,2.28902 -6.03805,9.00741 -9.01029,14.92978 -2.97222,5.92238 -8.90169,16.44909 -13.17656,23.3927 -20.141,32.71475 -23.11295,37.31074 -24.12659,37.31074 -0.59719,0 -2.51292,2.74646 -4.25717,6.10323 -1.74424,3.35678 -9.26529,13.32621 -16.71343,22.15428 -7.46574,8.84894 -13.10845,17.35518 -12.57567,18.95749 1.40674,4.23069 -8.65734,11.95174 -17.48479,13.41412 -4.18802,0.69381 -10.21073,1.72284 -13.3838,2.28675 -3.17306,0.5639 -11.39419,0.22733 -18.26917,-0.74794 z"
         id="path5028"
         inkscape:connector-curvature="0"
         sodipodi:nodetypes="ssssssssssssssssssssssscssssscsssssssccscssccscscscssssscssssssssssssssssssssss" />
      <path
         style="fill:#dac6eb"
         d="M 88.677416,979.68503 C 75.061051,975.48994 51.12392,965.45912 48.3196,962.77317 47.018622,961.52709 39.99004,956.89518 32.700532,952.48002 20.226982,944.92495 9.0629718,936.39976 3.5630084,930.22971 1.6674486,928.10319 1.2492191,904.2706 1.6399381,820.64448 l 0.4993086,-106.86771 5.3641259,4.87 c 7.0768414,6.42495 19.7301724,29.10372 23.4507504,42.03114 2.882172,10.01433 3.497278,10.60143 21.732403,20.74268 10.321454,5.74015 19.747472,10.06108 20.802607,10.43664 2.660666,0.94702 13.163084,16.95757 18.086168,29.20256 5.89468,14.6616 17.221829,35.15876 19.429449,35.15876 3.71015,0 10.37626,-5.12853 18.05715,-13.89212 4.23075,-4.82715 11.37015,-10.71385 15.86533,-13.08159 4.49517,-2.36774 8.17305,-5.18965 8.17305,-6.27092 0,-1.08127 1.81198,-2.62966 4.02663,-3.44085 7.40682,-2.71302 20.97328,-14.63017 20.97328,-18.42349 0,-4.51262 8.77025,-15.91041 12.24257,-15.91041 3.84847,0 11.85998,-11.01797 11.23427,-15.45014 -0.30884,-2.18769 0.77289,-4.56859 2.40384,-5.29087 4.0837,-1.8085 3.74022,-5.53631 -1.85564,-20.13902 -4.26784,-11.13715 -4.62447,-14.02732 -3.10797,-25.18774 1.00541,-7.91135 1.54669,-12.36628 2.09232,-16.32987 0.74124,-2.58852 3.51889,-9.41405 7.18266,-13.12651 3.66378,-3.71245 9.2177,-7.33994 12.34206,-8.06109 3.12435,-0.72114 6.81172,-3.17481 8.19416,-5.45261 1.93405,-3.18666 6.36856,-4.59239 19.23517,-6.09747 11.49306,-1.34442 17.905,-3.19194 20.50612,-5.90861 2.08146,-2.17391 3.99551,-3.54256 4.25345,-3.04144 0.25794,0.50112 1.45126,2.90855 2.65185,5.34984 1.47996,3.00941 3.80213,4.233 7.21152,3.79987 3.10366,-0.39429 5.03139,0.45529 5.03585,2.21936 0.004,1.572 3.85093,4.68231 8.54881,6.91178 8.18961,3.88655 8.62826,4.57247 10.6448,16.64517 1.15676,6.92537 2.92583,16.81179 3.93125,21.96982 1.116,5.72533 1.14277,11.34431 0.0687,14.42581 -0.96764,2.77616 -2.89548,11.43269 -4.28409,19.23673 -2.61139,14.67603 -3.59945,15.97546 -19.74972,25.97374 -10.18369,6.3045 -8.61318,13.06116 8.04453,34.60927 5.55287,7.18309 10.09612,14.02112 10.09612,15.19563 0,1.1745 2.59615,2.13546 5.76921,2.13546 7.85793,0.72173 6.67323,2.96996 18.38981,15.58567 5.57654,4.01144 8.5832,8.96544 11.30561,18.62807 0.99542,3.53311 2.30792,2.26446 7.75865,-7.4994 7.42203,-13.29509 18.2658,-22.10398 27.33606,-22.20636 3.37512,-0.0381 6.67138,-1.06798 7.32507,-2.28862 0.65369,-1.22065 3.38372,-2.21936 6.06675,-2.21936 7.25853,0 14.42397,-5.88349 20.52616,-16.8539 2.99153,-5.3781 6.17031,-9.77837 7.06396,-9.77837 0.89367,0 4.09774,-2.4014 7.12019,-5.33644 3.27012,-3.17557 8.58612,-5.62508 13.12826,-6.04924 4.51068,-0.42122 8.16763,-2.09662 8.94007,-4.09581 0.71894,-1.86067 1.36797,30.81026 1.4423,72.60207 l 0.13519,75.98508 -7.21151,5.22561 c -12.04706,8.72952 -37.9022,21.34962 -48.48474,23.66576 -5.49208,1.20203 -10.56772,2.6002 -11.27918,3.10703 -3.23683,2.30591 -37.42756,7.8338 -51.2934,8.29303 -26.10674,0.86461 -43.67368,-12.4543 -63.42502,-48.08767 -10.7845,-19.45634 -19.47616,-43.46966 -25.18507,-69.58142 -2.50597,-11.46186 -5.07123,-21.43405 -5.70061,-22.1604 -1.44098,-1.66296 -6.95467,6.42035 -14.33393,21.0141 -13.4803,26.65968 -29.05585,51.46269 -48.52152,77.26721 -4.51985,5.9917 -12.24853,15.29353 -17.17484,20.67074 -4.92631,5.37721 -9.47978,12.18091 -10.11882,15.11936 -0.63905,2.93843 -2.80837,6.35954 -4.82072,7.60245 -6.16693,3.80892 -40.341903,4.80508 -51.103275,1.48956 z M 165.92058,847.8144 c 15.23759,-4.88566 34.02985,-26.97061 32.15501,-37.78905 -0.90252,-5.20788 0.19211,-7.53163 6.78743,-14.40808 4.32493,-4.50931 8.69924,-8.19875 9.7207,-8.19875 1.02144,0 1.35905,-1.49806 0.75025,-3.32903 -1.7738,-5.33464 -3.10584,-4.36103 -22.56184,16.49104 -10.1712,10.90103 -20.43447,20.53116 -22.80726,21.40029 -6.27278,2.29763 -18.78766,12.24853 -18.78766,14.93855 0,1.26747 -1.38285,4.06796 -3.073,6.22329 -6.86791,8.75818 -0.29992,10.48042 17.81637,4.67174 z m 63.58561,-84.50481 c 5.951,-6.40418 7.41353,-9.2119 5.78029,-11.09678 -5.26777,-6.07936 -16.80181,2.96375 -16.80181,13.17324 0,8.48363 1.46521,8.20758 11.02152,-2.07646 z m 16.26422,-30.26528 c 0.20528,-2.85482 -12.74773,-7.37679 -21.76184,-7.59718 -3.83681,-0.0938 -8.05333,-1.66863 -9.37004,-3.4996 -3.07361,-4.27407 -7.69228,-4.29945 -7.69228,-0.0423 0,1.80957 2.37682,3.83627 5.28844,4.50944 2.90865,0.67247 10.48074,3.10764 16.82687,5.41147 12.31876,4.47208 16.45319,4.7735 16.70885,1.21815 z m 15.02181,-7.67419 c 0,-3.60935 -16.20171,-13.30531 -25.6293,-15.33794 -4.92037,-1.06084 -10.21164,-3.1409 -11.75838,-4.62235 -2.9834,-2.85748 -10.68908,-1.22721 -10.68908,2.26145 0,1.13838 3.05662,2.06979 6.79251,2.06979 7.59586,0 15.96222,3.97887 25.7033,12.22399 6.48813,5.49172 15.58095,7.47886 15.58095,3.40506 z m 10.35377,-13.78674 c 4.35347,-1.42803 9.70193,-4.42416 11.88548,-6.65807 2.18355,-2.23391 5.64508,-4.1475 7.69228,-4.25242 2.42398,-0.12422 1.71004,-0.89075 -2.04701,-2.19774 -4.99931,-1.73914 -6.24592,-1.2596 -9.34145,3.59341 -2.76024,4.32739 -4.16175,5.03575 -6.16573,3.11635 -1.42643,-1.36622 -3.55133,-1.80086 -4.722,-0.96588 -1.17067,0.83499 -3.59955,-0.0182 -5.39752,-1.89608 -1.79796,-1.87782 -7.58476,-4.55342 -12.85953,-5.94577 -5.27479,-1.39235 -11.87981,-3.32309 -14.67784,-4.29053 -2.79801,-0.96744 -6.11509,-1.0259 -7.37128,-0.12992 -1.34894,0.96213 1.25726,2.65814 6.36601,4.14273 4.75749,1.38252 11.10341,4.85768 14.10203,7.72258 11.23881,10.73764 12.32387,11.11131 22.53656,7.76134 z"
         id="path5026"
         inkscape:connector-curvature="0"
         sodipodi:nodetypes="csssscsssssssssssssssccsssssssscssssssssccssssssssssscssssssssssssccsssssssssssssscsssssccsssssssssssssssssssss" />
      <path
         style="fill:#cdb1e4"
         d="m 106.94659,981.24997 c -12.545736,-1.13203 -36.878101,-7.6811 -41.293146,-11.11411 -2.086299,-1.62224 -4.889647,-2.94953 -6.229668,-2.94953 -3.177927,0 -39.564697,-23.33475 -49.9980152,-32.06363 l -8.0980496,-6.77509 -0.075,-107.2812 -0.075,-107.2812 6.0186235,5.8446 c 10.5789713,10.27308 20.7899463,29.83696 23.7840913,45.56953 1.037718,5.45263 2.975496,7.84854 8.369893,10.34873 3.860753,1.78937 11.900281,6.19095 17.865621,9.78128 5.965341,3.59034 12.260237,5.98369 13.778476,6.52788 2.994378,1.07329 15.018334,17.55272 20.51761,31.26517 3.803695,9.48452 15.090694,31.3635 17.659684,34.23193 1.28958,1.43989 13.339,-4.83915 15.08251,-7.85961 0.52884,-0.91615 5.27258,-5.77034 10.54163,-10.78709 11.47039,-10.92112 16.92112,-12.2437 10.30233,-2.4998 -11.66373,17.17081 -13.15168,19.89909 -13.15168,24.11462 0,2.48137 0.67775,4.99497 1.50611,5.58581 3.0954,2.20779 20.80461,-3.79526 25.98431,-8.80816 2.95631,-2.86111 9.01398,-6.36824 13.46149,-7.79365 22.8163,-7.31246 23.23159,-7.58902 29.64689,-19.7434 5.19071,-9.83429 6.00154,-13.16925 5.08273,-20.90553 -1.19676,-10.07655 0.13712,-12.28022 11.36029,-18.76793 4.27039,-2.46855 6.03139,-4.90836 5.60423,-7.76453 -0.40625,-2.71641 2.60336,-7.47806 8.65382,-13.6916 l 9.27668,-9.52672 -5.32283,-6.2624 c -5.0391,-5.92858 -5.59571,-6.08551 -10.44227,-2.94411 -2.81568,1.82506 -7.77617,8.40099 -11.02327,14.61319 -12.05802,23.06877 -39.98874,54.27376 -48.42545,54.10225 -3.26464,-0.0664 -3.1728,-0.5154 0.90789,-4.43871 2.49697,-2.40069 5.74215,-4.36488 7.21151,-4.36488 1.47045,0 2.69888,-2.24505 2.73233,-4.99355 0.0627,-5.15473 7.93268,-17.20001 11.23786,-17.20001 3.31084,0 13.70129,-11.37775 13.70129,-15.00318 0,-1.93151 1.42926,-5.33448 3.17616,-7.56217 2.96759,-3.78437 2.84007,-4.96294 -1.94213,-17.94859 -4.45414,-12.09489 -4.95296,-15.72345 -3.84429,-27.96483 0.32595,-6.83234 0.88941,-14.61565 3.45725,-20.17958 0.79326,-1.73184 2.3515,-4.90161 3.66618,-6.47574 6.85125,-8.20337 13.84842,-11.39498 17.63641,-11.39498 1.63407,0 3.46916,-1.49806 4.07796,-3.32903 1.24109,-3.73253 11.33616,-4.58148 13.1954,-1.10968 0.65369,1.22064 3.30091,2.21935 5.88271,2.21935 3.10434,0 4.69418,1.25622 4.69418,3.70912 0,2.04002 1.48115,5.59793 3.29145,7.90647 3.20108,4.08213 3.00312,4.15492 -7.21152,2.65156 -5.77663,-0.85019 -12.02951,-2.45331 -13.89528,-3.56249 -4.35569,-2.5894 -17.19717,0.12299 -16.24569,3.43143 0.80432,2.79678 6.37863,5.04688 17.34548,7.00159 4.02756,0.71787 8.78716,3.31802 10.57689,5.77812 7.77645,10.68922 23.48499,12.50408 35.94626,4.15298 3.17307,-2.12648 8.14901,-4.51299 11.05765,-5.30338 6.37431,-1.73212 6.99329,-7.76139 1.39687,-13.6064 -2.98336,-3.11587 -4.41955,-3.45513 -6.15383,-1.45365 -1.24423,1.43594 -3.78949,2.61079 -5.65612,2.61079 -1.86662,0 -4.32013,1.99742 -5.45225,4.43871 -2.68043,5.78009 -6.74599,5.63853 -10.38763,-0.36168 -3.55403,-5.85582 -2.17042,-9.18834 3.02474,-7.28541 2.56645,0.94006 5.081,-0.11172 7.53512,-3.15176 3.66345,-4.53808 3.64443,-4.57443 -3.53291,-6.75193 -3.96891,-1.20412 -10.15283,-1.9923 -13.74203,-1.75152 -9.73754,0.65323 -9.29277,-4.08282 0.68623,-7.30723 4.79831,-1.55042 8.7242,-3.64247 8.7242,-4.649 0,-1.00652 2.08107,0.37166 4.6246,3.06263 8.42992,8.91857 10.56181,10.44105 14.62043,10.44105 11.77583,0 19.13821,13.43655 19.24582,35.12417 0.0154,3.26365 0.83208,7.39849 1.81307,9.18852 0.981,1.79002 1.08177,4.2868 0.22393,5.54838 -0.85783,1.26159 -2.64992,9.28476 -3.98241,17.82928 -2.84057,18.21497 -5.11431,21.76186 -18.70831,29.18366 -6.35565,3.46994 -10.13177,6.92916 -10.10985,9.2614 0.0833,8.84997 28.22177,47.97344 32.98618,45.86349 3.78972,-1.67831 24.16373,20.98869 26.84549,29.86681 2.75851,9.13224 4.21392,8.61205 11.32136,-4.04653 7.81871,-13.92537 15.05622,-19.97915 25.94503,-21.70157 4.80745,-0.76045 9.20095,-2.24187 9.76335,-3.29203 0.56238,-1.05017 3.1918,-1.90939 5.84314,-1.90939 7.24318,0 11.1328,-3.20753 18.77347,-15.48133 3.81791,-6.13302 8.09032,-11.15094 9.49424,-11.15094 1.40392,0 4.58504,-2.49677 7.06917,-5.54839 3.26139,-4.00645 6.52197,-5.54839 11.73263,-5.54839 5.25035,0 7.45921,-1.05799 8.10867,-3.88387 0.49092,-2.13613 0.77072,30.53414 0.62176,72.60061 l -0.27082,76.48445 -16.3461,9.48888 c -24.19998,14.04801 -31.60138,16.60391 -76.04886,26.26175 -42.55607,9.24683 -63.51948,-1.8252 -88.38384,-46.6808 -9.07706,-16.37511 -19.57141,-44.36088 -23.30253,-62.14196 -5.55829,-26.48874 -6.65398,-29.9613 -9.45361,-29.9613 -1.54576,0 -2.81049,1.01408 -2.81049,2.25349 0,1.23945 -3.20647,7.98074 -7.12551,14.98065 -3.91903,6.99994 -11.87935,21.2162 -17.6896,31.59169 -14.19287,25.34448 -25.00729,40.96 -43.90121,63.39132 -8.70754,10.3378 -17.1212,21.67336 -18.69701,25.19015 -2.31771,5.1725 -4.43677,6.59824 -11.0911,7.46237 -4.52429,0.5875 -9.95674,1.53348 -12.07212,2.10217 -2.11537,0.56869 -7.74036,0.68261 -12.49995,0.25314 z M 248.27774,731.88181 c -1.14155,-4.15086 -0.64088,-4.38185 6.60115,-3.04538 17.6935,3.26521 2.97036,-14.07553 -17.15213,-20.20157 -5.50742,-1.67666 -11.67833,-4.78727 -13.71313,-6.91246 -3.52495,-3.68152 -3.94716,-3.65092 -8.94122,0.64804 -2.88285,2.4816 -5.54725,6.40359 -5.92086,8.71552 -0.37362,2.31192 -1.92907,5.83255 -3.45657,7.8236 -3.83037,4.99276 1.17959,10.74303 9.56168,10.97456 3.36193,0.0929 9.14145,1.51495 12.84336,3.16019 3.70191,1.64524 10.03424,3.06732 14.07186,3.16019 6.52227,0.15 7.20332,-0.33214 6.10586,-4.32269 z m -22.09308,-8.25144 c -10.45885,-1.45584 -15.3286,-7.79136 -7.74741,-10.07933 5.87805,-1.77397 19.1918,2.95377 21.33543,7.57627 2.07949,4.48419 1.46184,4.59797 -13.58802,2.50306 z m -71.16131,100.48561 c 0,-1.92755 1.67022,-3.40712 3.84614,-3.40712 2.11537,0 3.84614,0.46421 3.84614,1.03159 0,0.56738 -1.73077,2.10058 -3.84614,3.40712 -3.0698,1.89602 -3.84614,1.6878 -3.84614,-1.03159 z"
         id="path5024"
         inkscape:connector-curvature="0"
         sodipodi:nodetypes="sssscccssssssssssssssssssscssscsssssssccssssssssssssssssssssssssssscsssscsssscssssssscsssssssssssssssssssscssssssssssss" />
      <path
         style="fill:#c09ddd"
         d="M 87.715881,977.13335 C 65.441071,970.81684 36.222799,955.07873 11.377876,936.01473 L 1.3858019,928.34761 1.2817567,821.00036 1.1777115,713.6531 l 5.8719002,6.62536 c 8.8561863,9.99258 18.8995643,29.09233 22.2528013,42.31873 1.72319,6.7969 4.344197,12.30511 6.18314,12.99426 1.755618,0.65792 10.213806,5.08623 18.795973,9.84068 8.582168,4.75445 16.752944,7.99729 17.720741,8.64446 1.227375,0.82075 3.145456,2.2471 4.402702,4.99355 1.257246,2.74645 4.749221,8.46691 7.759943,12.71212 3.010721,4.24522 5.498503,9.23877 5.528405,11.09678 0.0299,1.85802 3.275081,9.0389 7.211514,15.95754 3.936429,6.91862 8.106359,14.38975 9.266499,16.60251 1.25719,2.39786 4.01202,3.84146 6.81905,3.57334 4.32546,-0.41313 4.64401,0.19974 3.9044,7.51094 -0.52195,5.15969 0.12364,8.67382 1.83477,9.98735 6.02933,4.62824 40.38535,-6.15539 44.63593,-14.01028 1.20912,-2.23439 4.15369,-4.06254 6.54348,-4.06254 2.3898,0 4.34509,-1.33856 4.34509,-2.97458 0,-1.78804 4.41077,-4.19107 11.05766,-6.02433 6.46736,-1.78371 12.65428,-5.1117 14.90379,-8.01684 10.90004,-14.07681 15.40758,-22.08406 15.62495,-27.7563 0.13211,-3.45022 0.34855,-9.20196 0.48077,-12.78163 0.165,-4.46493 1.47814,-6.96189 4.18246,-7.95245 2.16815,-0.79416 6.8989,-4.8563 10.51277,-9.02698 3.6139,-4.17067 8.38865,-7.58305 10.61055,-7.58305 3.21127,0 3.7805,-0.94298 2.77537,-4.59775 -0.79717,-2.89868 -0.0754,-6.11402 1.95303,-8.7008 3.03142,-3.86575 2.95803,-4.25764 -1.26897,-6.77636 -2.46755,-1.47032 -6.34525,-4.62428 -8.61713,-7.0088 -5.8149,-6.10322 -14.24289,-0.80698 -22.06637,13.86673 -3.22493,6.0487 -6.65467,10.99763 -7.62162,10.99763 -2.37178,0 -2.2433,-6.05006 0.16494,-7.76775 3.19674,-2.28009 2.15049,-10.43982 -2.9647,-23.1215 -5.39599,-13.37782 -4.4342,-16.6573 4.0065,-13.66131 24.76928,8.79175 43.18882,11.22779 43.18882,5.71183 0,-4.57546 14.04851,-4.53202 17.34621,0.0537 1.33792,1.86046 2.87758,2.86909 3.42149,2.24139 0.5439,-0.6277 -1.31019,-3.60028 -4.12018,-6.60573 -6.40675,-6.85236 -6.51858,-11.84164 -0.30573,-13.64121 6.60119,-1.91205 10.16685,0.0948 10.91281,6.14191 0.85251,6.91112 5.51238,7.46541 11.23279,1.33613 l 4.72396,-5.06163 -7.40709,-1.10967 c -7.08022,-1.06072 -7.24867,-1.27195 -3.81726,-4.78709 1.97438,-2.02258 7.26767,-4.80752 11.76285,-6.18877 4.49518,-1.38125 8.17305,-3.53052 8.17305,-4.77616 0,-1.24563 0.86538,-1.64755 1.92307,-0.89315 1.05769,0.7544 1.92307,4.37448 1.92307,8.04463 0,3.67014 0.94555,8.71197 2.10122,11.20407 1.51959,3.27683 1.51959,5.20232 0,6.95603 -1.15567,1.33373 -2.11426,5.97038 -2.13018,10.30367 -0.0677,18.42811 -5.85106,28.93432 -20.47707,37.19937 -5.64471,3.18978 -10.2631,6.90377 -10.2631,8.25332 0,3.55632 9.00561,18.72187 17.22475,29.00669 3.90193,4.88259 8.5938,11.67354 10.42639,15.09102 2.44467,4.55891 4.32806,5.84874 7.0724,4.84353 5.22394,-1.91347 26.81472,23.11467 26.81472,31.08376 0,9.23314 5.29902,6.50972 12.45565,-6.40153 7.46897,-13.4748 16.88279,-21.31354 25.59612,-21.31354 3.22693,0 8.31709,-1.45846 11.31144,-3.24102 2.99436,-1.78256 7.78756,-3.78843 10.65155,-4.45748 3.33147,-0.77826 7.31378,-4.74994 11.05511,-11.02559 6.90752,-11.58652 19.7909,-22.22013 29.45677,-24.31283 4.15766,-0.90016 7.25282,-3.01275 7.77488,-5.30673 0.47703,-2.09617 0.96772,30.25273 1.09042,71.88642 l 0.22307,75.69765 -16.82686,10.04864 c -20.16517,12.0422 -38.52916,18.57501 -70.04419,24.91748 -43.60537,8.77571 -62.1532,3.23492 -81.50661,-24.34844 -17.84723,-25.4367 -30.7424,-56.69705 -37.98535,-92.08377 -5.30643,-25.92551 -7.58221,-27.07073 -16.71316,-8.41038 -19.1222,39.07886 -37.7176,68.2016 -64.22723,100.58792 -9.4116,11.49797 -18.08839,23.17156 -19.28176,25.94132 -3.48699,8.09317 -32.47569,10.82417 -53.029009,4.99581 z M 312.71512,879.76764 c 0,-9.36659 -6.35211,-16.07246 -12.76076,-13.47142 -6.96973,2.82877 -7.87248,8.21566 -2.36851,14.13339 6.21551,6.68279 15.12927,6.29278 15.12927,-0.66197 z M 441.56084,858.8078 c 0,-2.88977 -2.28609,-4.81165 -4.14574,-3.48525 -1.98887,1.41859 -0.27394,5.33471 2.33617,5.33471 0.99527,0 1.80957,-0.83226 1.80957,-1.84946 z M 299.3552,739.70238 c -0.15076,-3.29417 -4.4531,-2.68899 -5.45123,0.76679 -0.53919,1.86675 0.33994,2.69871 2.34515,2.21936 1.76422,-0.42174 3.16195,-1.76551 3.10608,-2.98615 z m -119.03483,62.28033 c 0.36543,-2.03603 1.52981,-3.64911 2.5875,-3.58464 2.85439,0.174 2.33,5.13919 -0.66443,6.29111 -1.61753,0.62225 -2.33843,-0.39231 -1.92307,-2.70647 z m 8.48125,-9.89292 c -0.58519,-1.09274 0.29989,-2.59081 1.96686,-3.32903 5.29525,-2.34504 7.17545,-1.53984 4.63935,1.9868 -2.71576,3.77644 -5.04878,4.25046 -6.60621,1.34223 z m 38.81763,-70.83107 c -3.96633,-0.37885 -7.21151,-1.75791 -7.21151,-3.06458 0,-2.34418 12.76617,-1.11788 14.98182,1.43913 1.70418,1.96675 -0.14558,2.35372 -7.77031,1.62545 z m -25.13049,-13.03581 c 0.98561,-7.51252 8.77997,-20.67539 12.24288,-20.67539 2.58176,0 -0.78119,12.27619 -4.10915,15.00017 -1.87725,1.53654 -3.6887,4.9538 -4.02547,7.59391 -0.33677,2.6401 -1.64888,5.19395 -2.91582,5.67522 -1.64222,0.62382 -1.98455,-1.55624 -1.19244,-7.59391 z m 33.30354,-2.92055 c -2.2562,-1.68271 -1.75726,-2.15879 2.29034,-2.18537 2.84622,-0.0186 5.70979,0.96473 6.36348,2.18537 1.51763,2.83389 -4.8541,2.83389 -8.65382,0 z m 34.59769,-10.01153 c -1.97762,-2.75003 -1.69145,-3.3046 1.70519,-3.3046 2.24488,0 4.0816,0.93977 4.0816,2.08837 0,3.84495 -3.38479,4.55634 -5.78679,1.21623 z m 29.81779,-3.32107 c -2.76647,-6.17401 -3.99535,-6.97657 -9.53883,-6.22969 -4.6068,0.62067 -6.10131,0.0696 -5.41429,-1.99665 2.33555,-7.02403 17.01571,-0.70119 18.4559,7.94907 1.39034,8.35088 0.15865,8.44838 -3.50278,0.27727 z m -63.65823,-4.20388 c -3.886,-2.73471 -6.91017,-3.51926 -8.65382,-2.24504 -3.60696,2.63588 -7.48799,2.53602 -7.48799,-0.19268 0,-1.22064 1.66896,-2.21935 3.70878,-2.21935 2.03984,0 4.94598,-1.42782 6.45811,-3.17292 3.46939,-4.00392 17.81096,-0.42001 19.57734,4.89231 2.42928,7.30596 -5.08812,8.92948 -13.60242,2.93768 z"
         id="path5022"
         inkscape:connector-curvature="0"
         sodipodi:nodetypes="cscccssssssssssssssssssccsssscsssssssssssssscssssssssssssssssssssssscsssssssccssssssssssssssssssssssssssssssscsssssssscsssssssss" />
      <path
         style="fill:#bb94da"
         d="M 96.369698,979.06734 C 69.918616,971.98019 34.837892,953.93079 14.381557,936.88361 9.4802519,932.79913 4.5043072,929.45729 3.3239023,929.45729 c -1.5501161,0 -2.1461908,-29.97265 -2.1461908,-107.91771 l 0,-107.91771 6.7149596,8.46051 c 3.6932279,4.65328 7.2130709,10.27172 7.8218729,12.48542 0.608802,2.21369 1.902366,4.0249 2.874585,4.0249 2.01083,0 6.644859,11.72666 10.690199,27.05211 1.939971,7.34943 4.006585,10.82057 7.034182,11.8148 3.597763,1.18146 25.961328,12.87697 36.017807,18.83629 1.712758,1.01496 2.65973,4.06696 2.331052,7.51278 -0.431175,4.52039 0.288728,5.8034 3.256328,5.8034 4.351256,0 9.797184,7.82755 9.797184,14.0817 0,3.48044 -0.499358,3.73836 -2.860115,1.47725 -1.573064,-1.50667 -4.29884,-2.10225 -6.057282,-1.32351 -2.857185,1.26533 -2.757541,1.95595 0.937045,6.49456 2.273817,2.79327 4.134211,6.23704 4.134211,7.65283 0,1.41579 2.596145,4.12352 5.769211,6.01718 5.361571,3.19974 5.777825,3.16456 5.891107,-0.49784 0.106019,-3.42762 0.33482,-3.36277 1.756777,0.49784 0.899186,2.44129 4.305855,7.74615 7.570385,11.7886 6.98681,8.65169 7.13489,9.29528 2.13875,9.29528 -2.2736,0 -4.99361,-2.67104 -6.78013,-6.65807 -3.832554,-8.55319 -10.576889,-9.1905 -10.576889,-0.99946 0,12.03854 12.664089,29.60931 18.584779,25.78543 1.51534,-0.97867 7.03913,-0.76666 12.27508,0.47117 8.0726,1.90842 11.51444,1.50923 22.63942,-2.62585 7.21574,-2.68205 15.40748,-4.87644 18.20387,-4.87644 3.11617,0 5.88116,-1.71825 7.14274,-4.43871 1.21444,-2.61882 4.02657,-4.43871 6.85876,-4.43871 2.64021,0 5.29849,-1.49807 5.9073,-3.32904 0.60881,-1.83096 2.59887,-3.32903 4.42236,-3.32903 1.82349,0 4.45112,-2.44899 5.83918,-5.44221 1.38806,-2.99321 4.99582,-6.43674 8.01724,-7.6523 3.02143,-1.21554 5.4935,-3.72676 5.4935,-5.58048 0,-1.85372 3.95368,-8.5079 8.78597,-14.78706 7.81266,-10.15195 8.73101,-12.44784 8.28995,-20.72519 -0.45208,-8.48419 0.26,-10.10882 8.0409,-18.34563 4.69531,-4.97041 11.3494,-9.73871 14.78689,-10.59622 6.70582,-1.67282 7.55815,-3.24768 3.98774,-7.36818 -1.73429,-2.00148 -1.50988,-3.57023 0.96153,-6.72185 4.08568,-5.2102 4.07554,-7.0906 -0.0382,-7.0906 -1.79411,0 -6.59011,-2.66171 -10.65779,-5.91492 -7.19694,-5.75591 -7.57221,-5.81782 -13.95872,-2.30309 -3.60961,1.98651 -8.00594,6.83222 -9.76962,10.76825 l -3.20667,7.1564 -2.75504,-9.84687 c -1.51529,-5.41577 -4.18401,-13.05325 -5.93048,-16.97216 -3.64551,-8.18008 -2.5039,-10.93875 3.0955,-7.48033 2.13644,1.31954 6.75381,2.40998 10.26083,2.42319 3.50703,0.0133 10.62451,1.51128 15.81662,3.32903 13.10458,4.5879 18.58475,4.27428 19.81017,-1.1337 1.31432,-5.80035 8.17416,-5.78198 14.58649,0.0391 6.89261,6.25705 9.11883,1.10822 2.55695,-5.91374 -6.46702,-6.92043 -6.5474,-11.88016 -0.19254,-11.88016 3.29143,0 5.39483,1.63776 6.53042,5.08476 3.72474,11.30623 7.66705,12.15668 14.78738,3.19001 3.58552,-4.51528 6.51913,-9.98144 6.51913,-12.14703 0,-2.1656 1.71492,-5.17344 3.81093,-6.68409 4.0855,-2.94454 3.61431,-3.90108 6.77301,13.74937 0.53273,2.9768 0.0648,6.05698 -1.03976,6.84484 -1.1046,0.78785 -1.50771,3.25286 -0.89583,5.47779 1.85507,6.74527 -3.10985,25.1777 -8.4408,31.33671 -2.75837,3.18686 -8.6931,7.95103 -13.18828,10.58705 -4.71219,2.76328 -8.17305,6.36776 -8.17305,8.51223 0,4.96969 8.35869,19.11173 19.64165,33.23167 5.06242,6.33532 9.20441,12.64873 9.20441,14.0298 0,1.38107 2.03009,2.20402 4.51129,1.82878 6.38737,-0.96598 25.74024,21.09816 26.59943,30.3259 1.01329,10.88264 7.02305,8.67442 14.26341,-5.24087 3.40517,-6.54442 8.21877,-13.24283 10.69689,-14.88535 9.15791,-6.06996 13.53946,-7.59024 18.08273,-6.27425 3.26972,0.94706 5.00923,0.28725 5.8415,-2.21574 0.65186,-1.96045 3.33889,-3.56444 5.97119,-3.56444 7.0714,0 14.37484,-5.87656 19.80243,-15.93363 2.64423,-4.8996 7.03415,-10.24404 9.75541,-11.87652 2.72126,-1.63249 6.07241,-4.53208 7.447,-6.44353 1.37457,-1.91145 5.45,-3.47537 9.05649,-3.47537 5.00273,0 6.96955,-1.1838 8.29645,-4.99355 1.09074,-3.13175 1.78465,23.23471 1.86109,70.71766 l 0.1219,75.71121 -18.74994,10.48002 c -28.07923,15.69451 -71.65473,27.73043 -100.69048,27.81157 -14.63088,0.0408 -30.01704,-6.40444 -40.38392,-16.91702 -16.04195,-16.26739 -37.30932,-64.07433 -45.71552,-102.76387 -4.70016,-21.63248 -5.40131,-23.29003 -10.50352,-24.83098 -5.07805,-1.53363 -5.3836,-1.26681 -4.29286,3.74863 0.81804,3.76143 -0.35765,8.07145 -3.87485,14.20517 -2.77707,4.84294 -6.47026,11.78438 -8.20712,15.42541 -6.18793,12.97193 -24.93018,43.62186 -31.77556,51.96381 -3.82754,4.66433 -6.95916,9.36473 -6.95916,10.44531 0,1.08058 -7.68177,10.7469 -17.07059,21.4807 -9.38883,10.73381 -17.6429,21.67083 -18.34238,24.30452 -0.69948,2.63369 -2.66189,5.40415 -4.36092,6.15656 -4.03937,1.78889 -35.07332,3.37462 -40.033532,2.0456 z M 341.56118,962.74762 c 0,-1.2961 -5.39998,-2.06886 -12.98073,-1.8576 l -12.98072,0.36173 10.57688,1.49587 c 5.81729,0.82272 11.65862,1.65866 12.98073,1.8576 1.32211,0.19908 2.40384,-0.63695 2.40384,-1.8576 z m -3.66209,-63.73015 c 5.49335,-3.74496 7.32917,-7.28923 3.77559,-7.28923 -0.99527,0 -2.34442,0.99871 -2.99811,2.21936 -2.28055,4.25854 -4.31239,2.1628 -5.39965,-5.56948 -0.60237,-4.28386 -2.87905,-10.67996 -5.05929,-14.21357 -2.18025,-3.53362 -3.96409,-8.06792 -3.96409,-10.07623 0,-3.91171 -5.23294,-16.74719 -6.82772,-16.74719 -0.52787,0 -1.75638,2.41807 -2.73001,5.37352 -1.47361,4.47303 -3.54195,5.62898 -12.34242,6.89794 -15.15147,2.18471 -18.91146,7.36995 -13.3634,18.42888 8.37784,16.69952 16.42904,21.53605 40.73605,24.47106 1.42335,0.17178 5.10122,-1.4009 8.17305,-3.49506 z m 103.66175,-41.68924 c 0,-1.83097 -1.29807,-3.32904 -2.88461,-3.32904 -1.58653,0 -2.8846,1.49807 -2.8846,3.32904 0,1.83097 1.29807,3.32903 2.8846,3.32903 1.58654,0 2.88461,-1.49806 2.88461,-3.32903 z M 301.1767,739.46493 c 0,-3.54854 -4.95373,-4.19049 -6.73075,-0.87223 -0.65369,1.22064 -0.67705,3.17445 -0.0519,4.34178 1.58188,2.95384 6.78267,0.29346 6.78267,-3.46955 z m -93.48303,-39.8673 c 0.64661,-1.94465 1.17565,-3.95339 1.17565,-4.46388 0,-0.51049 0.86538,-0.92817 1.92307,-0.92817 3.13266,0 2.18886,6.06548 -1.17565,7.55547 -2.26801,1.00441 -2.78355,0.42444 -1.92307,-2.16342 z m 30.50247,-11.30059 c -4.23583,-1.97253 -2.64485,-7.40759 2.16838,-7.40759 4.77343,0 9.77914,4.89133 7.59055,7.41711 -1.43669,1.65802 -6.18798,1.65339 -9.75893,-0.01 z"
         id="path5020"
         inkscape:connector-curvature="0" />
      <path
         style="fill:#b489d6"
         d="M 102.13891,978.29041 C 89.3176,976.67146 78.87162,973.5923 61.726782,966.37815 52.827435,962.63352 18.991467,940.86207 11.495439,934.05723 c -2.7869612,-2.52997 -6.2485701,-4.59994 -7.6924646,-4.59994 -2.182341,0 -2.6252629,-18.22269 -2.6252629,-108.00852 l 0,-108.00852 6.6506958,8.69235 c 3.6578827,4.7808 6.6867187,9.81845 6.7307467,11.1948 0.04403,1.37635 1.468275,3.83208 3.164993,5.45718 3.304472,3.165 5.217204,7.84053 10.362645,25.33071 3.350769,11.3898 3.60733,11.64321 21.641261,21.3754 8.349205,4.50573 8.878118,5.24358 6.203614,8.65419 -3.92191,5.00134 -1.857386,10.21232 5.165356,13.03764 4.690897,1.8872 5.699073,3.46668 5.411254,8.47766 -0.720859,12.55037 0.167481,16.47896 4.861505,21.49947 2.644222,2.82815 4.807676,6.01741 4.807676,7.08727 0,1.06987 3.130044,9.25591 6.95565,18.1912 9.963789,23.27198 16.355356,27.57531 40.947362,27.56923 10.14361,-0.002 20.87905,-1.1144 23.85655,-2.47087 2.9775,-1.35647 9.13351,-2.46631 13.68003,-2.46631 6.00302,0 9.52291,-1.39369 12.85553,-5.09011 2.52403,-2.79959 8.21995,-8.33337 12.6576,-12.29736 4.43765,-3.96397 8.59932,-9.13751 9.24814,-11.49675 0.64885,-2.35924 3.41009,-5.56415 6.13613,-7.12203 2.72603,-1.55785 5.9201,-6.03056 7.09794,-9.93936 1.17784,-3.90878 6.14629,-12.06239 11.041,-18.11912 6.85673,-8.48453 8.69196,-12.2651 7.99538,-16.47045 -1.60178,-9.67009 7.60086,-23.28468 17.72833,-26.2277 9.14743,-2.65823 10.07975,-3.88177 6.29022,-8.25513 -1.85886,-2.14526 -1.84512,-3.66212 0.0652,-7.19222 3.00118,-5.54615 1.47616,-8.73175 -4.18014,-8.73175 -2.3763,0 -7.20138,-2.45287 -10.72239,-5.45081 -7.53221,-6.41324 -13.54849,-4.28918 -21.63756,7.63916 l -4.55372,6.71505 -2.6192,-10.55493 c -1.44057,-5.80521 -3.93337,-12.30879 -5.53956,-14.45241 -4.70758,-6.28268 -1.95382,-6.54384 18.43617,-1.74843 23.37661,5.49781 31.18382,5.80004 31.18382,1.2072 0,-5.27071 10.76488,-4.24421 14.1603,1.35028 1.56197,2.57361 3.7745,4.01274 4.91671,3.19805 3.54203,-2.52636 2.30113,-8.23809 -3.0281,-13.93798 -4.11509,-4.40131 -4.58116,-5.84258 -2.40384,-7.43342 4.31869,-3.15542 5.66831,-2.43013 7.64309,4.10751 3.31324,10.96871 8.94745,13.00579 15.70408,5.67789 3.18395,-3.45315 6.99211,-9.52427 8.46257,-13.49137 4.3715,-11.7937 6.09555,-8.37133 6.28924,12.48463 0.18539,19.96868 -3.64154,37.43832 -7.58522,34.62548 -1.03315,-0.7369 -2.41301,0.26788 -3.06637,2.23284 -0.65337,1.96496 -5.40687,6.03993 -10.56332,9.05548 -5.15646,3.01555 -9.37537,6.76424 -9.37537,8.33041 0,3.34187 15.10734,27.76366 20.1384,32.55475 1.90386,1.81305 5.54813,7.11107 8.09841,11.77338 2.71138,4.95687 5.99665,8.32024 7.91149,8.0996 5.73102,-0.66039 8.08232,0.0677 8.08232,2.50272 0,1.35893 -1.63978,1.76827 -3.84614,0.96011 -3.14489,-1.15193 -3.84614,-0.39882 -3.84614,4.13062 0,10.08855 -4.76537,12.99191 -18.53149,11.29055 -14.21674,-1.75706 -14.18017,-1.83629 -9.31303,20.17707 1.8963,8.57664 4.60096,14.8176 7.69228,17.74966 2.62222,2.48716 4.76768,6.03258 4.76768,7.87871 0,6.40568 3.56662,8.15251 11.59571,5.67926 6.51982,-2.00836 8.29918,-1.71134 12.88801,2.15129 2.92813,2.46473 6.71523,5.07709 8.4158,5.80522 1.70057,0.72814 3.61212,4.32554 4.24789,7.9942 1.43642,8.28863 7.13163,10.76656 13.56482,5.90196 6.80777,-5.14789 8.03424,-10.46435 3.25874,-14.12598 -6.70023,-5.13743 -4.82475,-10.53588 3.24037,-9.32724 3.2524,0.48741 3.02268,-4.61764 -0.68957,-15.3249 -2.37361,-6.84622 -4.1371,-8.92234 -7.57878,-8.92234 -5.43243,0 -8.05746,-3.94825 -3.86072,-5.80683 1.66017,-0.73521 6.0834,-7.06736 9.82943,-14.0714 9.19877,-17.19935 16.37781,-23.15061 26.10949,-21.6442 6.04161,0.93519 7.87741,0.33907 9.45902,-3.07149 1.23502,-2.6632 4.02114,-4.2319 7.51611,-4.2319 5.29233,0 17.3879,-10.84091 17.3879,-15.58428 0,-4.5054 21.63524,-22.14477 27.16124,-22.14477 4.06291,0 6.1484,-1.40581 7.40784,-4.99355 1.09492,-3.11907 1.61307,23.7485 1.38032,71.57422 -0.24027,49.37454 -1.05557,76.52534 -2.29566,76.44828 -1.05769,-0.0657 -10.20762,4.61482 -20.33319,10.40121 -10.12556,5.78639 -20.94283,11.14774 -24.03838,11.91406 -3.09554,0.76634 -10.82056,2.77213 -17.16669,4.45733 -60.07335,15.95233 -81.4664,12.02738 -103.07407,-18.91093 -11.68008,-16.72376 -24.81011,-41.5631 -24.81011,-46.93564 0,-1.05216 -1.7203,-6.14662 -3.82289,-11.32107 -2.10259,-5.17443 -6.21315,-20.39388 -9.13459,-33.82098 -5.31169,-24.41292 -5.31169,-24.41292 -11.56167,-25.10837 -6.28756,-0.69964 -8.38624,2.78086 -4.50098,7.46449 1.96468,2.36841 -10.58424,28.19833 -21.69687,44.65947 -3.83632,5.68271 -6.97511,11.12583 -6.97511,12.09582 0,1.60218 -13.17728,20.77783 -29.30003,42.6376 -3.45223,4.68064 -11.25272,14.09093 -17.33443,20.91177 -6.08171,6.82083 -11.05766,14.12613 -11.05766,16.23401 0,2.86245 -2.06868,4.10163 -8.17305,4.89585 -4.49517,0.58484 -9.90381,1.56884 -12.01919,2.18669 -2.11537,0.61784 -9.90381,0.35844 -17.30763,-0.57644 z M 342.71883,961.1201 c -1.46098,-1.69041 -32.12761,-4.8344 -33.72164,-3.45718 -2.70451,2.33661 4.85575,5.35358 17.29098,6.90009 13.5133,1.68056 19.73242,0.3774 16.43066,-3.44291 z m -20.74457,-36.65636 c 0.74846,-4.55474 -5.26842,-5.38234 -8.87452,-1.22065 -3.7729,4.35418 -2.64959,6.55458 2.96431,5.80677 3.1797,-0.42354 5.52529,-2.24364 5.91021,-4.58612 z m 59.58686,-59.7793 c 4.55433,-3.24841 6.0165,-5.59629 5.09169,-8.17598 -0.71355,-1.99043 -1.73282,-5.36669 -2.26501,-7.50282 -1.63586,-6.56583 -11.88569,-4.73344 -22.15362,3.96047 -20.67268,17.50363 -3.43641,27.95436 19.32694,11.71833 z m 60.96126,-6.43147 c 0,-1.72926 -2.0145,-3.47343 -4.47666,-3.87593 -4.02914,-0.65871 -4.25643,-0.25696 -2.27363,4.01872 2.3688,5.10809 6.75029,5.01541 6.75029,-0.14271 z M 300.92455,742.27237 c 2.5406,-3.53288 0.97045,-5.89903 -3.91451,-5.89903 -2.24357,0 -3.52562,1.61408 -3.52562,4.43871 0,5.06074 4.25094,5.8951 7.44013,1.46032 z m 27.31162,113.68456 c -5.70531,-8.90576 -4.13013,-10.24319 2.56524,-2.17803 2.91826,3.5153 4.50721,6.96114 3.53098,7.65744 -0.9762,0.69628 -3.7195,-1.76944 -6.09622,-5.47941 z M 240.11921,688.2873 c -1.32211,-0.61032 -2.40384,-2.09462 -2.40384,-3.29844 0,-2.83727 7.82296,-1.45957 7.91269,1.3935 0.0821,2.61131 -2.23955,3.41414 -5.50885,1.90494 z"
         id="path5018"
         inkscape:connector-curvature="0" />
      <path
         style="fill:#a978d1"
         d="M 83.86974,973.88695 C 60.295179,966.09956 29.48526,949.0708 13.480286,934.98239 c -3.452208,-3.0388 -7.6325537,-5.5251 -9.2896579,-5.5251 -2.6938109,0 -3.0129166,-11.41417 -3.0129166,-107.76973 0,-71.28134 0.6511081,-107.30533 1.9230704,-106.3981 1.0576888,0.7544 1.9230705,2.40313 1.9230705,3.66384 0,2.26286 4.8004878,10.11603 12.7159336,20.80215 2.234165,3.0162 5.537926,11.22913 7.341691,18.25095 4.938279,19.22408 6.485009,22.75406 9.97013,22.75406 2.677016,0 2.994953,1.61891 1.986116,10.11316 -1.26534,10.65397 -0.419066,12.32865 12.082682,23.91018 3.883933,3.59805 4.250092,5.37262 3.205542,15.53549 -1.325796,12.89921 -0.791121,14.27649 7.974315,20.54131 7.287071,5.20819 15.877196,17.85916 15.877196,23.38289 0,4.26263 7.642707,12.04331 14.100841,14.35541 2.292581,0.82079 6.331783,3.23312 8.976004,5.36075 8.423177,6.7776 36.462517,6.8365 53.042127,0.11141 6.18609,-2.50918 13.16321,-4.56218 15.50472,-4.56218 4.73455,0 30.7043,-24.85298 32.39551,-31.00242 0.57986,-2.10852 3.15741,-4.93953 5.72788,-6.29116 3.12409,-1.64273 5.38215,-5.49446 6.81084,-11.61766 1.38865,-5.95158 5.43525,-13.00651 11.55256,-20.141 5.56927,-6.49529 8.98797,-12.26592 8.3692,-14.12681 -0.57532,-1.7303 0.45035,-6.44352 2.27928,-10.47381 1.82894,-4.0303 3.9448,-8.82411 4.70189,-10.65291 0.75709,-1.82881 4.74472,-4.44069 8.86139,-5.80418 6.59564,-2.18456 7.43588,-3.224 7.07263,-8.7493 -0.22671,-3.44862 0.49683,-7.53429 1.60786,-9.07926 1.11104,-1.54497 1.38171,-4.00105 0.6015,-5.45795 -1.80613,-3.37265 -2.94912,-17.58796 -1.61455,-20.08005 1.71188,-3.19663 8.47122,2.45034 8.47122,7.07713 0,6.18667 4.78162,5.40003 9.53093,-1.56799 3.01961,-4.43025 4.59373,-5.29056 6.22842,-3.40403 1.63467,1.88652 4.08462,0.5466 9.69381,-5.30172 7.63396,-7.9594 11.5897,-8.7996 12.61867,-2.68021 0.37816,2.24887 -1.41388,3.85986 -5.28844,4.75416 -8.58447,1.98142 -8.59064,11.3073 -0.006,9.85331 3.21962,-0.54535 6.24273,-0.26544 6.71798,0.62201 1.14919,2.1459 -4.52941,17.67394 -6.34454,17.34905 -3.99429,-0.71481 -6.22807,0.6215 -6.22807,3.72536 0,1.95937 -3.74447,5.36538 -8.65382,7.8716 -10.21402,5.21425 -11.10189,10.07411 -3.84614,21.0525 2.64422,4.00087 4.80767,7.99348 4.80767,8.87247 0,0.87898 4.21878,6.74614 9.37505,13.03812 19.68322,24.01861 19.11588,34.3053 -1.88567,34.18938 -6.41519,-0.0353 -12.19753,0.55135 -12.84963,1.30394 -0.65209,0.75256 -1.02086,10.0047 -0.81946,20.56029 0.34972,18.3297 0.69808,19.74711 7.75342,31.54754 6.82284,11.41157 7.9339,12.33544 14.54247,12.09245 6.81615,-0.25064 7.101,0.0222 6.01092,5.74959 -1.47305,7.74003 1.52336,10.55732 14.17297,13.32588 11.04549,2.41748 17.54591,5.75463 17.54591,9.00765 0,4.08348 5.34158,2.11538 8.27324,-3.04826 1.76257,-3.10448 4.72475,-5.11078 7.37267,-4.99355 2.96814,0.13139 4.67842,-1.26625 5.19161,-4.24272 0.42094,-2.44129 2.39505,-7.08966 4.38693,-10.3297 4.7811,-7.77707 4.55773,-12.29224 -1.1359,-22.96064 -6.52392,-12.2241 -6.312,-16.64516 0.79786,-16.64516 3.11065,0 6.19056,0.99871 6.84425,2.21935 2.03876,3.80704 8.15776,2.42891 9.17643,-2.06673 0.56261,-2.48286 6.52267,-7.66758 14.16657,-12.32366 17.02754,-10.37185 27.61837,-18.94162 27.61837,-22.34793 0,-3.77912 -11.79743,-9.83705 -19.52134,-10.02414 -9.10989,-0.22061 -16.38272,-3.87877 -8.36319,-4.20654 6.64471,-0.27159 13.5174,-6.49948 20.27263,-18.3707 2.60001,-4.56908 5.30992,-8.31424 6.02204,-8.32258 0.71213,-0.008 3.77687,-2.42551 6.81057,-5.37149 3.0337,-2.94598 8.05599,-5.69243 11.16065,-6.10323 3.69491,-0.4889 6.48575,-2.6635 8.07921,-6.29529 2.00137,-4.56151 2.35135,8.07052 1.96762,71.01938 -0.25671,42.11227 -1.11926,76.31008 -1.91678,75.99516 -0.79753,-0.31495 -9.01866,3.74689 -18.26917,9.02634 -15.78867,9.01085 -20.18776,10.86332 -40.10276,16.8875 -35.20291,10.64869 -70.27448,12.03516 -84.60266,3.34461 -13.11894,-7.9571 -18.04244,-13.70028 -14.22868,-16.59754 2.45737,-1.86681 2.2122,-2.84211 -1.65534,-6.58501 -2.497,-2.41648 -5.70993,-4.39361 -7.13987,-4.39361 -2.77726,0 -15.27642,-20.43032 -20.36687,-33.29034 -9.68302,-24.46222 -11.79879,-31.32485 -14.99285,-48.6303 -5.14335,-27.86662 -6.58783,-31.2665 -13.28384,-31.2665 -6.10644,0 -9.34872,5.36185 -6.03158,9.97457 1.42415,1.98037 -0.0519,6.74572 -5.25525,16.96563 -11.38756,22.36651 -15.77014,28.54369 -20.2512,28.54369 -3.08714,0 -3.55414,0.62974 -1.89067,2.54951 2.29069,2.64361 -0.85122,12.32468 -6.37535,19.64405 -1.38188,1.83097 -5.37997,7.07011 -8.88466,11.64256 -3.50468,4.57243 -9.40098,12.49868 -13.10289,17.61387 -3.70191,5.1152 -11.62828,14.8567 -17.61415,21.64778 -5.98587,6.79109 -11.18803,14.34485 -11.56036,16.78614 -1.24283,8.14914 -34.7997,10.18988 -55.44059,3.37158 z m 261.04279,-10.50264 c 0.9275,-3.25142 -3.51593,-4.41026 -23.06282,-6.01476 -12.1175,-0.99467 -14.9038,-0.63172 -14.9038,1.94136 0,5.73461 36.37936,9.63772 37.96662,4.0734 z m 12.03321,-6.18508 c 0,-1.83097 -1.29807,-3.32903 -2.8846,-3.32903 -1.58654,0 -2.88461,1.49806 -2.88461,3.32903 0,1.83097 1.29807,3.32904 2.88461,3.32904 1.58653,0 2.8846,-1.49807 2.8846,-3.32904 z m -207.6101,-41.85176 c -2.56769,-2.96329 -6.87342,1.52718 -4.93503,5.14679 0.99768,1.86297 2.0789,1.82216 4.1447,-0.15646 1.93902,-1.85718 2.18104,-3.38536 0.79033,-4.99036 z m 122.65523,-2.90627 c -0.93567,-5.56785 -5.42944,-6.33238 -5.42944,-0.9237 0,2.7261 1.24171,4.62365 3.02561,4.62365 1.79084,0 2.77187,-1.50998 2.40383,-3.69995 z m 106.39711,-10.72586 c 0,-1.15961 -0.93029,-2.46626 -2.0673,-2.90365 -1.13702,-0.43741 -2.0673,0.86923 -2.0673,2.90365 0,2.03442 0.93028,3.34106 2.0673,2.90365 1.13701,-0.43739 2.0673,-1.74404 2.0673,-2.90365 z M 423.15656,869.787 c 0.57936,-1.08187 -0.66764,-2.48643 -2.77113,-3.12126 -3.76187,-1.13531 -5.05848,0.70507 -2.54245,3.60872 1.78167,2.05619 4.06348,1.84684 5.31358,-0.48746 z m 20.32735,-11.40402 c 0,-2.78154 -1.87945,-5.31831 -4.93287,-6.65807 -6.99842,-3.07075 -10.45169,-2.68595 -10.45169,1.16461 0,1.83096 1.20549,3.32903 2.67885,3.32903 1.47338,0 3.17697,1.49806 3.7858,3.32903 1.71276,5.15106 8.91991,4.21008 8.91991,-1.1646 z M 280.11108,751.71875 c 1.18059,-2.54583 1.71784,-5.12352 1.1939,-5.7282 -1.71288,-1.97677 -8.97434,3.773 -8.97434,7.10605 0,4.86192 5.32406,3.91908 7.78044,-1.37785 z m -70.31621,-0.36476 c -0.71669,-3.9671 -2.57766,-9.53309 -4.13548,-12.36888 -2.70865,-4.93073 -2.65523,-5.04655 1.22295,-2.65124 2.23044,1.3776 5.71085,1.89833 7.73429,1.15718 2.02341,-0.74116 7.32991,-0.213 11.79222,1.17371 l 8.11329,2.52127 -7.91461,4.08941 c -4.35303,2.24918 -9.03501,6.15987 -10.40439,8.69044 -3.4457,6.3675 -4.89256,5.77778 -6.40827,-2.61189 z m 30.43157,-2.70406 -5.39567,-5.47825 7.94876,-0.0701 c 8.33568,-0.0735 13.42038,6.95955 7.066,9.77363 -3.92061,1.73627 -3.61538,1.87034 -9.61909,-4.22525 z m 27.37866,-23.22001 c -1.31361,-2.4529 1.71999,-5.10153 3.49578,-3.05216 1.82843,2.11013 1.48767,5.11816 -0.57981,5.11816 -0.99526,0 -2.30745,-0.9297 -2.91597,-2.066 z"
         id="path5016"
         inkscape:connector-curvature="0" />
      <path
         style="fill:#a571ce"
         d="m 96.369698,976.79284 c -25.016535,-6.3441 -61.321599,-24.90515 -81.730493,-41.7849 -4.7595998,-3.93656 -9.7355445,-6.71264 -11.0576555,-6.16908 -1.8966018,0.77977 -2.403838,-17.26463 -2.403838,-85.51406 0,-95.56062 0.3884056,-98.42495 10.4833615,-77.3105 3.00223,6.27942 6.512822,12.91519 7.801315,14.74616 1.288494,1.83096 3.899897,8.32258 5.803117,14.42581 1.903221,6.10323 5.915874,14.14045 8.917009,17.8605 6.217398,7.70676 6.652258,12.0705 2.542493,25.51345 -2.789191,9.12338 -2.733601,9.75376 1.296753,14.70486 2.315977,2.84505 6.007128,5.17655 8.202557,5.18113 7.064974,0.0155 16.280374,8.39877 20.430137,18.58717 5.180719,12.71959 9.271232,16.8072 18.419074,18.40604 4.097515,0.71617 10.102299,3.13744 13.343961,5.38059 9.216681,6.37776 31.206221,6.73366 48.913571,0.79169 7.93267,-2.66194 18.0142,-5.98478 22.40339,-7.38413 10.66051,-3.39872 43.85949,-43.04478 46.8779,-55.98136 1.08727,-4.65988 2.71974,-9.0024 3.62776,-9.65003 3.27741,-2.33764 3.6371,10.92516 0.46703,17.22111 -1.7512,3.47798 -4.48387,8.98882 -6.07257,12.2463 -7.19477,14.75212 -11.88102,20.52069 -15.57216,19.16868 -4.35126,-1.59383 -7.06671,4.2028 -3.97974,8.49543 2.60701,3.62523 -0.47975,9.17915 -16.50171,29.69099 -3.43749,4.40078 -6.24998,9.35977 -6.24998,11.02001 0,1.66023 -1.19855,3.01859 -2.66343,3.01859 -1.46489,0 -3.96873,2.29905 -5.56408,5.109 -1.59536,2.80995 -7.81173,10.91423 -13.81417,18.00954 -6.00244,7.0953 -11.64862,15.13185 -12.54706,17.859 -1.36609,4.14668 -3.59466,5.19504 -13.61208,6.40337 -12.79495,1.54338 -21.55205,1.52907 -27.760462,-0.0453 z M 78.168171,926.22231 c -2.461798,-3.42329 -7.759924,-4.74327 -7.759924,-1.93333 0,0.81937 1.450701,3.33974 3.22378,5.60084 4.01154,5.11563 8.337287,1.61824 4.536144,-3.66751 z m 73.009039,-7.73082 c 0,-5.97603 -3.63795,-7.98049 -7.14284,-3.9356 -3.50489,4.04489 -1.76804,8.24333 3.41019,8.24333 2.41277,0 3.73265,-1.52323 3.73265,-4.30773 z m 157.94938,50.37026 c -3.04872,-0.91174 -6.6233,-3.15974 -7.94351,-4.99557 -2.97795,-4.14103 -1.1738,-4.15623 8.64744,-0.0728 9.11641,3.79033 34.76951,4.47664 36.64189,0.98031 2.47722,-4.62578 -2.8451,-7.07066 -19.11886,-8.78247 -9.01174,-0.94794 -19.08045,-2.40674 -22.37492,-3.24182 -5.0502,-1.2801 -6.15521,-0.78898 -7.0433,3.13034 -1.25992,5.56028 -2.51978,5.75989 -7.44873,1.18016 -2.64768,-2.46011 -3.03409,-3.80431 -1.32909,-4.62365 6.48769,-3.11777 -0.42567,-14.44854 -10.17627,-16.67859 -2.63423,-0.60247 -3.58518,-2.34555 -3.16434,-5.80015 0.44571,-3.6589 -0.37319,-4.93893 -3.15962,-4.93893 -2.06871,0 -4.25939,-1.49807 -4.86822,-3.32904 -0.75292,-2.26438 0.10385,-3.32903 2.67886,-3.32903 4.34596,0 5.31554,-8.44361 1.47811,-12.87226 -3.94899,-4.55741 -7.3035,-2.99476 -7.38467,3.44 l -0.0769,6.10322 -3.21303,-6.65806 c -6.32613,-13.10907 -12.39838,-31.32033 -15.3727,-46.10425 -2.86149,-14.22317 -2.83674,-15.19167 0.45915,-17.97299 2.34873,-1.98204 2.93367,-3.9532 1.7955,-6.05063 -0.92846,-1.71097 -1.42275,-4.969 -1.09844,-7.24004 0.37861,-2.65125 -0.32688,-3.76038 -1.97107,-3.09879 -1.4084,0.56671 -2.30643,2.67451 -1.99565,4.68401 0.96844,6.26184 -1.28174,4.03072 -5.45413,-5.40789 -2.93642,-6.64263 -4.8431,-8.69067 -7.14279,-7.67224 -2.89078,1.28021 -2.89301,1.07685 -0.0285,-2.5901 3.01326,-3.85726 8.41767,-18.73628 10.52291,-28.97092 0.6423,-3.12256 2.94307,-5.50533 6.09238,-6.30951 11.75325,-3.00121 12.06508,-3.27339 11.45393,-9.99741 -0.45475,-5.0033 0.73749,-7.75921 5.16132,-11.93052 l 5.7527,-5.42431 -5.4487,-0.0798 c -3.00633,-0.044 -5.13981,-1.14925 -4.7596,-2.46562 0.379,-1.3122 1.3165,-2.31091 2.08332,-2.21936 0.76683,0.0916 3.02407,0.16645 5.01608,0.16645 2.00453,0 4.07097,1.98208 4.62764,4.43871 0.55319,2.4413 2.30795,4.43872 3.89949,4.43872 3.59245,0 12.80769,-12.33894 12.97284,-17.37029 0.0829,-2.52476 0.70421,-2.03533 1.94088,1.52884 1.47528,4.25187 2.9057,5.05836 7.57037,4.26825 3.16326,-0.53581 5.75139,-0.76247 5.75139,-0.50369 0,2.23339 -5.63679,14.73831 -5.69394,12.63172 -0.14327,-5.2789 -3.49641,-2.74203 -6.71179,5.07786 -2.2943,5.57977 -4.84952,8.22618 -8.82981,9.14489 -10.40332,2.40123 -11.12358,6.3673 -3.91311,21.54693 3.55595,7.48604 9.39614,16.45404 12.97821,19.92888 6.56098,6.36459 14.09351,20.66324 14.09351,26.75303 0,4.96175 -3.65981,6.74871 -16.34043,7.97843 l -11.53275,1.1184 -2.22489,11.09678 c -2.95472,14.73674 -3.01057,32.15458 -0.12212,38.08973 4.33126,8.89993 15.20012,21.10073 20.80649,23.35622 3.06216,1.23196 5.56758,3.64027 5.56758,5.35184 0,5.30086 7.41426,11.98934 13.29038,11.98934 3.07893,0 10.47623,2.15437 16.43842,4.7875 l 10.84035,4.78748 8.0807,-5.17402 c 12.25587,-7.84734 28.08031,-28.22584 25.56517,-32.92244 -0.61394,-1.14641 0.17692,-2.65705 1.7573,-3.35697 3.67381,-1.62697 3.68602,-8.212 0.0256,-13.749 -3.45749,-5.22989 -6.83365,-1.19665 -5.42395,6.47956 0.84456,4.59886 0.74663,4.58344 -3.12031,-0.49154 -5.23666,-6.87261 -5.04268,-8.4031 1.2962,-10.22612 2.90865,-0.83652 12.30571,-5.36283 20.88237,-10.0585 18.03121,-9.87194 19.10771,-10.19168 26.39563,-7.8401 6.89972,2.22635 12.9392,-3.28669 9.23829,-8.43306 -3.36739,-4.6826 3.17628,-7.02819 7.37457,-2.64343 5.33487,5.57183 9.66659,4.25506 9.66659,-2.93847 0,-5.20432 -1.32938,-7.01283 -7.52502,-10.23711 -11.24234,-5.85065 -20.69271,-17.80601 -17.5403,-22.18966 1.35259,-1.88099 3.65143,-3.41998 5.10844,-3.41998 1.45704,0 2.64915,-1.59156 2.64915,-3.53681 0,-1.94524 1.73076,-4.05914 3.84614,-4.69755 4.00045,-1.20732 5.27286,-8.2409 1.92307,-10.63016 -3.65976,-2.61034 -1.89526,-5.06042 4.66771,-6.48134 4.86639,-1.05359 7.07863,-3.00538 8.45534,-7.45989 1.25998,-4.07679 1.77303,18.73422 1.58226,70.35028 -0.27582,74.63727 -0.37021,76.39329 -4.12842,76.82229 -2.11538,0.24147 -11.20189,4.55616 -20.19224,9.58824 -32.47905,18.1791 -89.12953,29.17778 -113.20355,21.97848 z m 48.78069,-11.69292 c 0,-2.88188 -1.49825,-4.65388 -4.32691,-5.1175 -4.29083,-0.7033 -6.27525,5.48864 -2.97838,9.29344 2.55103,2.94406 7.30529,0.22639 7.30529,-4.17594 z m -92.73477,-69.90467 c 3.90016,-5.25685 4.27489,-8.88033 0.90815,-8.78148 -3.86352,0.11341 -9.13458,5.65674 -9.13458,9.60635 0,4.99362 4.22381,4.5701 8.22643,-0.82487 z M 210.79239,747.5124 c 0,-4.62735 6.35044,-7.75164 12.82863,-6.31143 2.77662,0.6173 2.05205,1.82729 -3.44026,5.74493 -8.51582,6.07431 -9.38837,6.12696 -9.38837,0.5665 z m 30.91122,1.26498 c -1.37636,-1.91392 -1.5354,-3.64252 -0.40902,-4.44591 2.76178,-1.96985 7.95921,0.9594 7.95921,4.48578 0,4.00767 -4.65718,3.98308 -7.55019,-0.0399 z M 1.1777115,732.71695 c 0,-10.48803 0.7065741,-16.0758 1.9230704,-15.20813 1.0576888,0.7544 1.9230705,2.76114 1.9230705,4.45941 0,1.69828 1.4327957,4.01314 3.1839906,5.14415 6.221992,4.01847 3.09285,20.4697 -4.126059,21.69245 -2.3689281,0.40125 -2.9040725,-2.56332 -2.9040725,-16.08788 z M 293.48442,731.93463 c 1.58653,-1.18326 4.18268,-2.15138 5.76921,-2.15138 2.56409,0 2.56409,0.23904 0,2.15138 -1.58653,1.18326 -4.18268,2.15139 -5.76921,2.15139 -2.56409,0 -2.56409,-0.23905 0,-2.15139 z"
         id="path5014"
         inkscape:connector-curvature="0" />
      <path
         style="fill:#a16bcc"
         d="m 102.13891,976.01657 c -7.403822,-0.90492 -17.788402,-3.21223 -23.076846,-5.12735 -15.443946,-5.59278 -26.730656,-10.55419 -29.038737,-12.76485 -1.18034,-1.13052 -8.110216,-5.6679 -15.399725,-10.08306 -7.289508,-4.41517 -16.118956,-10.50009 -19.620995,-13.52205 -3.502039,-3.02196 -7.8289477,-5.74178 -9.615352,-6.04404 -2.9687957,-0.50233 -3.2774537,-7.11352 -3.5905389,-76.90635 -0.1883919,-41.99625 0.101866,-75.10219 0.6450174,-73.56878 0.5431515,1.53341 1.6107327,2.34353 2.3724026,1.80027 0.7616702,-0.54326 3.0447853,2.69632 5.0735893,7.19908 2.0288036,4.50275 5.6586156,11.27723 8.0662476,15.05438 2.407632,3.77716 4.377513,8.05681 4.377513,9.51035 0,1.45353 1.349698,5.02006 2.999329,7.9256 2.796173,4.92499 2.654746,6.06758 -2.088018,16.86896 -6.371551,14.51086 -5.34793,23.12609 4.125005,34.71783 3.743282,4.58053 9.704821,12.84876 13.247869,18.37384 3.543047,5.52507 11.263114,14.96632 17.155705,20.98055 5.89259,6.01423 10.713801,12.10137 10.713801,13.527 0,3.68961 6.443028,9.93805 10.247544,9.93805 4.317981,0 4.042803,-6.27923 -0.632192,-14.42581 -2.101439,-3.66194 -3.826501,-8.90517 -3.83347,-11.65162 -0.01979,-7.80084 17.286284,-7.26402 25.583804,0.79357 5.307317,5.15386 7.021197,5.62718 15.662167,4.32535 5.3365,-0.80401 13.59694,-1.7495 18.35654,-2.10113 4.7596,-0.35161 11.3387,-1.96202 14.62021,-3.57869 7.23154,-3.56264 13.90786,-1.57104 10.52107,3.13853 -1.51032,2.10019 -4.63792,2.70486 -9.83194,1.90087 -7.15887,-1.10814 -7.61706,-0.83683 -7.61706,4.51042 0,3.69135 -1.88151,7.23566 -5.35739,10.09203 -2.94657,2.42139 -6.62307,7.23328 -8.16999,10.69306 -1.54692,3.45977 -3.67935,7.02426 -4.73872,7.92106 -1.1951,1.01167 -1.01379,1.64343 0.4777,1.66451 1.32211,0.0178 2.40384,1.86264 2.40384,4.09767 0,4.64322 8.03112,10.42893 12.02265,8.66125 2.17656,-0.96391 2.30241,0.16246 0.68465,6.12742 -1.72752,6.36967 -2.97972,7.44976 -9.74855,8.40865 -4.27153,0.60513 -9.0645,1.57015 -10.65103,2.14448 -1.58654,0.57435 -8.94228,0.30387 -16.3461,-0.60105 z m 204.32623,-8.14075 c -1.85095,-0.55821 -3.36537,-2.00774 -3.36537,-3.22113 0,-1.29754 1.78207,-1.52614 4.32691,-0.55506 2.3798,0.90814 10.38458,2.32704 17.7884,3.15313 l 13.46149,1.50199 -14.42303,0.0679 c -7.93266,0.0375 -15.93744,-0.38872 -17.7884,-0.94695 z m 40.86525,-1.79916 c 1.31671,-1.83097 4.35891,-3.32904 6.76048,-3.32904 6.40109,0 7.84522,-6.73583 2.46791,-11.51106 -2.43139,-2.15915 -3.43258,-3.94793 -2.22486,-3.97507 3.35228,-0.0755 21.64687,-19.80733 24.717,-26.65901 1.65753,-3.69916 2.4508,-10.53402 2.03712,-17.55226 l -0.67749,-11.49405 15.88539,-8.79137 c 9.50642,-5.26112 18.68876,-8.79141 22.86655,-8.79141 4.89851,0 7.69777,-1.3242 9.38314,-4.43871 1.60388,-2.96388 4.48466,-4.43871 8.67013,-4.43871 5.67054,0 6.26815,-0.62934 6.26815,-6.60107 0,-5.01344 -1.31888,-7.38817 -5.48363,-9.87367 -3.01601,-1.79992 -6.89046,-5.75049 -8.60992,-8.77902 -3.07908,-5.42328 -3.02578,-5.54471 3.53037,-8.04179 14.56857,-5.54884 14.40932,-6.12554 14.40932,52.17865 0,32.18889 -0.72977,52.39484 -1.92307,53.24596 -1.05769,0.7544 -1.92307,0.38626 -1.92307,-0.8181 0,-1.20435 -8.65887,2.75851 -19.24193,8.80636 -10.58308,6.04783 -23.63073,11.95662 -28.99481,13.13064 -5.36406,1.174 -10.33495,2.54924 -11.04641,3.05608 -1.17684,0.83838 -35.25847,8.00568 -38.06823,8.00568 -0.65788,0 -0.11885,-1.49807 1.19786,-3.32903 z m -56.41006,-9.24733 c -2.03961,-2.35382 -1.49965,-4.60722 1.41305,-5.89714 1.6025,-0.70968 3.08876,0.54368 3.66611,3.09159 0.9419,4.15676 -2.33834,5.96867 -5.07916,2.80555 z m 48.8868,-0.13382 c -3.21176,-0.69859 -3.88572,-1.54599 -2.19096,-2.75478 2.90801,-2.07414 9.71422,-0.38721 9.71422,2.40769 0,1.07827 -0.64904,1.82451 -1.4423,1.65828 -0.79327,-0.16623 -3.5297,-0.75627 -6.08096,-1.31119 z m -80.47987,-53.84865 c -3.39008,-6.26473 -2.95639,-8.89926 1.46496,-8.89926 3.94964,0 4.57675,2.63122 2.24603,9.424 -1.22957,3.58346 -1.50928,3.54391 -3.71099,-0.52474 z m -8.03337,-22.71398 c -5.18808,-13.5265 -7.76302,-31.53112 -4.78481,-33.45687 3.93531,-2.54467 3.67064,-19.03834 -0.33396,-20.81181 -1.69329,-0.74989 -3.6828,-0.23537 -4.42116,1.14336 -2.84255,5.30797 -7.49007,-12.04418 -4.75187,-17.74178 1.37503,-2.86115 2.58559,-7.19951 2.6901,-9.6408 0.1752,-4.09249 0.32572,-4.04921 1.92925,0.55484 1.92043,5.5139 3.33904,6.01483 7.63236,2.69512 2.46451,-1.90563 2.2331,-2.86128 -1.58896,-6.56204 -6.21152,-6.01437 -4.07002,-12.00367 5.47154,-15.30284 6.91015,-2.3893 7.65584,-3.35852 7.65584,-9.95077 0,-8.27424 6.38707,-13.97398 12.96084,-11.5661 2.35228,0.86162 4.77123,0.048 6.33906,-2.1322 3.4685,-4.82317 12.33397,-9.89087 17.30319,-9.89087 5.09037,0 4.03331,5.28802 -1.23815,6.19414 -2.25473,0.38757 -5.05366,4.1005 -7.00044,9.28644 -2.70399,7.20304 -4.29362,8.75727 -9.5541,9.34135 -8.5402,0.94824 -9.62468,10.50601 -2.55605,22.52705 2.69468,4.58262 4.89942,10.2851 4.89942,12.67218 0,2.38709 1.12244,4.34016 2.49432,4.34016 4.23662,0 16.59006,16.35569 17.8516,23.63513 1.51509,8.7426 -0.6901,10.4266 -15.53824,11.86583 -11.00935,1.06711 -11.58873,1.4237 -12.63569,7.77647 -1.6507,10.0164 -6.196,21.08388 -8.65887,21.08388 -1.20021,0 -4.33518,2.30274 -6.96661,5.11721 l -4.78443,5.11719 -2.41418,-6.29427 z m 14.90681,-15.62395 c 0.76536,-4.58648 -4.78616,-7.67697 -7.71616,-4.29554 -2.93001,3.38143 -0.2521,9.78827 3.72208,8.90499 1.84201,-0.40939 3.63935,-2.48364 3.99408,-4.60945 z m -67.90827,9.46446 c 0.65369,-1.22064 2.48659,-2.21935 4.07312,-2.21935 1.58653,0 2.34978,0.99871 1.69609,2.21935 -0.65369,1.22065 -2.48659,2.21936 -4.07312,2.21936 -1.58653,0 -2.34978,-0.99871 -1.69609,-2.21936 z"
         id="path5012"
         inkscape:connector-curvature="0" />
      <path
         style="fill:#9c63ca"
         d="M 83.86974,971.66639 C 60.828972,964.05311 33.586854,949.13483 16.23495,934.6283 11.295323,930.49865 6.1030326,927.3961 4.6965279,927.73374 2.6248538,928.23105 2.0422761,916.17746 1.6285846,864.25772 l -0.5106621,-64.08987 7.7221762,10.78466 c 9.0507763,12.64016 9.3075913,14.70889 2.9145003,23.47722 -5.5352664,7.5918 -6.1623255,16.7138 -1.8670225,27.16006 3.7734525,9.1771 26.6955845,38.21502 33.3265685,42.21834 2.793334,1.6864 11.136464,9.74745 18.540285,17.91346 7.403821,8.16599 15.902804,16.30563 18.886627,18.0881 4.689278,2.80127 5.341384,4.35094 4.807676,11.42489 -0.910382,12.06653 6.770479,15.94374 31.593967,15.94831 14.50863,0.002 18.74994,0.68496 18.74994,3.01631 0,6.55762 -33.64039,7.50819 -51.9229,1.46719 z m 269.31982,-6.40828 c 2.69368,-1.03695 8.31867,-4.34607 12.49996,-7.35361 4.18127,-3.00754 9.07978,-6.09661 10.88558,-6.86462 4.93169,-2.09743 13.45997,-18.9944 16.06173,-31.82294 4.2702,-21.0551 15.21312,-37.55659 27.77024,-41.87641 2.64422,-0.90962 7.50597,-3.53743 10.80386,-5.83954 3.29791,-2.30212 7.3159,-4.18566 8.92886,-4.18566 1.61293,0 3.36877,-1.31169 3.90183,-2.91486 1.31773,-3.96299 -0.61529,-14.83999 -2.6373,-14.83999 -2.02405,0 -6.276,-8.8517 -4.97381,-10.35451 0.52277,-0.60331 3.18903,0.59581 5.92502,2.66469 4.97452,3.76161 4.97452,3.76161 4.97452,47.89347 0,37.28806 -0.43707,44.13187 -2.81841,44.13187 -1.55011,0 -8.25682,3.43188 -14.9038,7.62637 -14.85745,9.37567 -28.80265,15.17014 -47.66218,19.80444 -17.07225,4.19512 -36.2534,6.81742 -28.7561,3.9313 z M 94.639879,931.45655 c -3.149922,-6.15394 -3.212859,-7.23333 -0.597735,-10.25136 2.615124,-3.01804 3.860166,-2.96011 11.824706,0.55022 9.11287,4.01644 10.66885,8.27296 3.4726,9.49962 -2.22015,0.37845 -5.07081,2.12619 -6.33482,3.88387 -3.276428,4.5561 -4.401344,4.06089 -8.364751,-3.68235 z M 286.93052,819.59918 c -1.73258,-3.05161 -2.39892,-5.54839 -1.48077,-5.54839 1.89513,0 8.03467,7.34102 8.03467,9.60702 0,3.36491 -3.60757,1.13086 -6.5539,-4.05863 z M 272.3322,795.18961 c -3.67051,-7.91507 -1.54198,-8.79382 2.34895,-0.96974 1.7819,3.58313 2.56092,6.51479 1.73115,6.51479 -0.82976,0 -2.66582,-2.49527 -4.0801,-5.54505 z"
         id="path5010"
         inkscape:connector-curvature="0" />
    </g>
  </g>
</svg>
