<?xml version="1.0" encoding="UTF-8" standalone="no"?>
<!-- Created with Inkscape (http://www.inkscape.org/) -->

<svg
   xmlns:dc="http://purl.org/dc/elements/1.1/"
   xmlns:cc="http://creativecommons.org/ns#"
   xmlns:rdf="http://www.w3.org/1999/02/22-rdf-syntax-ns#"
   xmlns:svg="http://www.w3.org/2000/svg"
   xmlns="http://www.w3.org/2000/svg"
   xmlns:xlink="http://www.w3.org/1999/xlink"
   xmlns:sodipodi="http://sodipodi.sourceforge.net/DTD/sodipodi-0.dtd"
   xmlns:inkscape="http://www.inkscape.org/namespaces/inkscape"
   width="450"
   height="450"
   id="svg2"
   version="1.1"
   inkscape:version="0.48.3.1 r9886"
   sodipodi:docname="groups.svg">
  <defs
     id="defs4">
    <inkscape:path-effect
       effect="spiro"
       id="path-effect4360"
       is_visible="true" />
    <inkscape:path-effect
       effect="spiro"
       id="path-effect4356"
       is_visible="true" />
  </defs>
  <sodipodi:namedview
     id="base"
     pagecolor="#ffffff"
     bordercolor="#666666"
     borderopacity="1.0"
     inkscape:pageopacity="0.0"
     inkscape:pageshadow="2"
     inkscape:zoom="0.49497475"
     inkscape:cx="222.24276"
     inkscape:cy="534.64262"
     inkscape:document-units="px"
     inkscape:current-layer="layer1"
     showgrid="false"
     inkscape:window-width="1366"
     inkscape:window-height="718"
     inkscape:window-x="0"
     inkscape:window-y="0"
     inkscape:window-maximized="1" />
  <metadata
     id="metadata7">
    <rdf:RDF>
      <cc:Work
         rdf:about="">
        <dc:format>image/svg+xml</dc:format>
        <dc:type
           rdf:resource="http://purl.org/dc/dcmitype/StillImage" />
        <dc:title></dc:title>
      </cc:Work>
    </rdf:RDF>
  </metadata>
  <g
     inkscape:label="Layer 1"
     inkscape:groupmode="layer"
     id="layer1"
     transform="translate(0,-602.3622)">
    <path
       style="fill:#aa87de;stroke:none"
       d="m 209.94886,761.94189 31.32535,-15.99576 39.6787,-9.356 29.49802,-11.92137"
       id="path4354"
       inkscape:path-effect="#path-effect4356"
       inkscape:original-d="m 209.94886,761.94189 c 10.44179,-5.33192 22.05826,-11.26742 31.32535,-15.99576 3.45569,-2.45307 37.65179,-7.56164 39.6787,-9.356 4.04619,-0.85514 28.71489,-12.42435 29.49802,-11.92137"
       inkscape:connector-curvature="0"
       sodipodi:nodetypes="cccc" />
    <image
       y="626.30878"
       x="6.8731256"
       id="image4440"
       xlink:href="file:///home/martin/Downloads/masks.jpg"
       height="389.45691"
       width="436.7818" />
    <g
       id="g4506">
      <path
         style="fill:#e4d7f5"
         d="m 275.29049,1011.8466 c -12.08972,-5.1741 -16.77078,-13.50776 -21.34546,-38.00146 -6.46752,-34.62828 -11.52729,-54.94133 -18.94538,-76.05844 -10.93157,-31.11897 -10.04303,-57.75799 2.74338,-82.24915 5.36202,-10.27042 10.9394,-25.32113 12.39417,-33.44601 6.57376,-36.71434 20.9495,-70.5759 33.11422,-77.99944 11.16125,-6.81117 54.75134,-6.20367 78.50692,1.09413 8.2579,2.53686 23.05321,6.70138 32.87845,9.2545 11.53046,2.99623 21.94736,7.95547 29.38105,13.98767 l 11.51698,9.34563 -1.08059,45.66047 c -0.59433,25.11325 -1.12685,46.86912 -1.18338,48.34637 -0.0565,1.47725 0.49812,13.04514 1.23254,25.70642 1.19561,20.6123 0.6018,24.59821 -5.67614,38.1021 -3.85627,8.29489 -7.01141,15.97974 -7.01141,17.07744 0,1.0977 -3.99246,5.73818 -8.87213,10.31217 -24.49284,22.95854 -60.72215,67.05938 -65.50174,79.7333 -4.57786,12.1389 -51.30767,18.0548 -72.15148,9.1343 z m 78.27819,-62.64339 c 20.9323,-10.17737 21.18768,-15.6292 0.81757,-17.45447 -31.57457,-2.8292 -50.67995,-7.42622 -58.79891,-14.14781 -4.37516,-3.62214 -9.15292,-6.58572 -10.61726,-6.58572 -1.46437,0 -3.94717,-3.62598 -5.51739,-8.05773 -2.76926,-7.81594 -7.7806,-11.09632 -7.7806,-5.0931 0,5.75459 19.48637,39.35951 26.75687,46.14315 14.65682,13.67531 33.95853,15.49407 55.13972,5.19568 z m 63.50925,-125.74266 c 3.03459,-2.98569 -1.34131,-9.3153 -9.20654,-13.31705 -6.92993,-3.52588 -8.95608,-3.51451 -17.74749,0.0996 -13.06168,5.36961 -8.62305,11.44869 9.38786,12.85749 7.01221,0.54848 13.46607,1.21511 14.3419,1.48138 0.87585,0.26628 2.32676,-0.23838 3.22427,-1.12142 z m -92.87865,-25.36364 c -1.15158,-10.77927 -10.65909,-16.61786 -23.6763,-14.53972 -20.80553,3.32152 -19.7213,9.38463 3.11802,17.43635 17.0872,6.02389 21.44568,5.40978 20.55828,-2.89663 z M 121.49024,959.84427 C 111.65109,955.49801 98.814201,943.81796 91.503424,932.55978 77.079123,910.34723 60.274448,887.38971 44.893813,868.88458 21.728496,841.01337 14.400193,821.74174 17.854519,797.77794 c 1.50613,-10.44852 3.418976,-20.08074 4.250768,-21.40493 0.831793,-1.32418 -0.412491,-6.20389 -2.765076,-10.84379 -3.126846,-6.16694 -4.277427,-16.61908 -4.277427,-38.85713 0,-54.97243 5.058769,-60.03938 78.462156,-78.58909 65.19358,-16.47502 83.95809,-10.56145 97.10097,30.60102 2.35838,7.38625 6.05352,18.86852 8.21143,25.51614 2.1579,6.64763 5.37514,18.12989 7.1494,25.51614 1.77427,7.38626 7.08207,19.34933 11.79511,26.58461 10.76096,16.51982 14.27337,54.55181 6.42762,69.59769 -2.45736,4.7125 -5.57449,15.21581 -6.92696,23.34069 -1.35248,8.12487 -4.45323,26.85909 -6.89055,41.6316 -7.48132,45.34387 -20.19512,63.32865 -48.58855,68.7327 -13.91336,2.64812 -34.58384,2.77153 -40.31317,0.24065 z m -15.3554,-59.16052 c 7.04092,-7.65479 24.5238,-11.54367 49.03051,-10.9063 27.62221,0.7184 29.83156,-3.97851 8.84732,-18.80869 -15.53539,-10.97932 -24.40245,-11.69748 -47.94409,-3.88309 -17.888389,5.93784 -26.871116,18.82094 -21.968668,31.50764 3.222043,8.33808 5.865911,8.79732 12.034928,2.09044 z M 65.342411,758.97395 c 2.374954,-0.89668 4.318098,-3.67659 4.318098,-6.17759 0,-15.84797 -26.434438,-14.35776 -31.302003,1.76461 -1.701508,5.63575 -0.998761,6.0433 10.420626,6.0433 6.734847,0 14.188321,-0.73365 16.563279,-1.63032 z m 85.270809,-21.19992 c 5.39017,-2.21587 12.10718,-4.02886 14.92669,-4.02886 9.17377,0 5.40671,-7.3641 -6.08035,-11.88627 -13.02527,-5.12773 -19.3242,-3.83405 -26.78792,5.50168 -10.29995,12.88332 -1.08153,18.23377 17.94158,10.41345 z"
         id="path4526"
         inkscape:connector-curvature="0" />
      <path
         style="fill:#dac6f2"
         d="m 281.22669,1013.8339 c -13.87381,-3.3255 -21.35884,-16.617 -27.48073,-48.79871 -7.14783,-37.57499 -8.91153,-44.51839 -17.70651,-69.70787 -11.49213,-32.91424 -10.65134,-52.10381 3.56223,-81.30233 5.31369,-10.91577 11.78786,-28.9118 14.38703,-39.99118 2.59917,-11.07937 6.41278,-23.40811 8.47469,-27.39719 2.0619,-3.98908 3.74892,-9.66112 3.74892,-12.60454 0,-8.16925 9.73146,-22.61138 18.77957,-27.87013 9.16079,-5.32423 51.33499,-7.00906 63.19143,-2.52445 6.92605,2.61973 25.29218,8.00625 51.79343,15.19027 9.85726,2.67214 18.59066,7.43073 25.42637,13.85416 l 10.41201,9.78403 -1.50228,40.62859 c -1.92157,51.96726 -1.92176,53.34033 -0.0109,74.60063 1.44572,16.08674 0.73824,19.81369 -7.138,37.60273 -4.80853,10.8604 -12.58562,23.42006 -17.28242,27.91039 -18.71094,17.88837 -46.23966,49.74882 -54.76217,63.37917 -16.6869,26.68793 -20.75205,29.22493 -46.2543,28.86663 -12.19814,-0.1713 -24.63531,-0.9005 -27.63818,-1.6202 z m 67.20066,-60.21562 c 22.92184,-8.9581 36.09944,-25.72822 18.18377,-23.14113 -4.83815,0.69866 -16.07177,-0.39955 -24.96358,-2.44044 -8.89181,-2.04092 -16.70068,-3.1856 -17.35304,-2.54375 -1.80055,1.77155 -25.32355,-6.61878 -25.32355,-9.03255 0,-1.15916 -3.4328,-3.50659 -7.62842,-5.21647 -4.32345,-1.76198 -8.95157,-6.55781 -10.68242,-11.06949 -3.32424,-8.66504 -8.21334,-10.38622 -10.78354,-3.79629 -1.97706,5.06914 13.21611,34.57931 23.21162,45.08468 10.58999,11.13015 15.26994,13.2431 38.95984,17.58987 0.92584,0.16975 8.29653,-2.27561 16.37932,-5.43443 z m 70.6586,-132.62052 c 0,-8.18886 -14.76243,-18.22383 -23.19489,-15.76705 -18.96201,5.52455 -21.93848,17.00713 -4.49437,17.33826 5.46973,0.10383 12.4019,1.22754 15.40477,2.49713 9.29797,3.93111 12.28449,2.94204 12.28449,-4.06834 z m -91.41821,-14.78554 c 2.77094,-4.41123 -4.08896,-21.2253 -9.91015,-24.29053 -6.79987,-3.58056 -28.44978,-0.52708 -32.79608,4.62551 -4.57049,5.4184 0.8016,10.00361 19.46922,16.61745 17.71895,6.27773 20.94243,6.7005 23.23701,3.04757 z M 124.61262,959.23253 C 114.4668,955.12021 101.86825,943.62761 92.696925,930.1185 70.657098,897.6545 64.579107,889.50031 48.745961,871.15415 37.355292,857.95556 29.426205,845.50563 24.761321,833.49444 16.935571,813.3446 16.421583,807.14692 20.968834,787.7645 c 2.650375,-11.29708 2.437314,-15.78909 -1.287055,-27.13516 -3.418806,-10.41519 -4.115182,-19.7083 -2.975911,-39.7134 2.666969,-46.83077 8.367882,-52.48396 68.591776,-68.01754 41.166476,-10.61809 69.029246,-13.51706 79.075046,-8.22732 9.47302,4.98814 22.67293,21.77935 22.67293,28.84158 0,3.70057 2.46813,11.48831 5.48472,17.30608 3.01661,5.81777 7.35284,19.3154 9.63609,29.99473 2.36443,11.05904 8.45831,26.98124 14.15718,36.99013 9.23805,16.22475 10.00683,19.25418 10.01909,39.48093 0.008,12.50862 -1.32591,23.49539 -3.10814,25.60825 -1.71678,2.03527 -4.38826,10.911 -5.93662,19.72384 -1.54837,8.81284 -5.10939,29.3186 -7.91339,45.56836 -8.86976,51.40208 -23.56502,68.90449 -60.55734,72.12522 -9.75934,0.84968 -20.65591,0.36472 -24.21459,-1.07767 z m -2.83893,-64.70901 c 5.12009,-1.61363 20.07019,-2.72534 33.22243,-2.47047 34.64074,0.67128 35.3814,-9.91738 1.9461,-27.822 l -13.44468,-7.19963 -18.92169,5.54435 c -24.11219,7.06524 -30.296099,12.02879 -32.177149,25.82715 -2.109148,15.47156 5.0445,22.93884 14.024039,14.6389 3.32293,-3.07145 10.23086,-6.90467 15.35095,-8.5183 z M 69.860615,757.72147 c 11.416562,-11.23265 -6.990474,-23.07969 -25.248024,-16.25 -6.604187,2.47046 -11.917924,14.608 -8.663482,19.78897 2.957717,4.70859 28.207046,2.0736 33.911506,-3.53897 z m 83.061425,-17.62258 c 7.50719,-2.42907 15.27578,-4.84871 17.26355,-5.37698 6.77788,-1.80131 1.79629,-10.35802 -8.92085,-15.32304 -13.04275,-6.04243 -24.37422,-3.70554 -32.22988,6.64677 -4.33854,5.71739 -4.75443,8.09348 -2.22919,12.73594 3.74007,6.8758 8.23655,7.1026 26.11637,1.31731 z"
         id="path4524"
         inkscape:connector-curvature="0" />
      <path
         style="fill:#d6b9f1"
         d="m 279.28262,1012.6778 c -10.63423,-3.826 -18.12428,-17.5801 -22.70291,-41.68956 -7.2727,-38.29559 -9.05322,-45.35137 -17.48941,-69.30646 -12.69299,-36.04255 -12.0256,-59.04883 2.55304,-88.00801 6.00575,-11.92988 10.91955,-24.60968 10.91955,-28.17732 0,-3.56765 3.07112,-15.48796 6.82471,-26.48959 3.7536,-11.00163 6.82472,-22.11427 6.82472,-24.69475 0,-7.36376 12.95173,-24.24719 22.21693,-28.96123 9.87097,-5.02226 46.92571,-4.73827 62.40954,0.47831 5.25503,1.77045 14.4684,4.53038 20.47415,6.13317 6.00575,1.6028 17.69256,4.74496 25.97069,6.98258 8.61457,2.32855 19.49696,7.84851 25.44707,12.90769 l 10.39593,8.83929 -1.31698,44.20152 c -0.72432,24.31084 -1.2777,45.71235 -1.22968,47.55891 1.19173,45.83033 0.47626,53.32551 -6.58167,68.94701 -3.95113,8.74513 -9.64182,17.20575 -12.64598,18.80137 -3.00416,1.59559 -9.34771,7.73571 -14.09678,13.64471 -4.74907,5.909 -14.98585,17.52707 -22.74841,25.81796 -7.76255,8.29087 -17.79908,21.47071 -22.30339,29.28853 -14.1691,24.59227 -17.84644,26.84657 -43.39433,26.60167 -12.16762,-0.1165 -25.45469,-1.4107 -29.52679,-2.8758 z M 352.095,953.56649 c 8.76562,-3.30036 16.61963,-8.21448 18.24435,-11.41511 1.56909,-3.09103 6.06737,-8.28603 9.99619,-11.54447 9.21984,-7.6466 6.64845,-10.09857 -4.73234,-4.51255 -21.80769,10.70387 -84.23572,-6.81922 -94.17496,-26.43418 -1.68771,-3.33069 -5.1875,-6.45729 -7.7773,-6.94801 -6.82539,-1.29328 -6.14109,10.92941 1.38016,24.65213 21.16632,38.61847 43.18017,48.95986 77.0639,36.20219 z m -51.6121,-91.13168 c 1.0088,-1.60597 0.46706,-4.26502 -1.20382,-5.909 -1.67091,-1.64399 -3.03801,-5.16465 -3.03801,-7.8237 0,-5.59392 -2.96149,-6.21831 -7.64368,-1.61155 -3.53114,3.47425 -4.42209,13.55521 -1.45593,16.47358 2.85696,2.81094 11.31614,2.09489 13.34144,-1.12933 z m 120.26388,-38.50179 c 4.86065,-12.46257 -16.54472,-23.28555 -32.82043,-16.59467 -16.60596,6.82664 -11.63183,16.59909 9.37407,18.41679 6.72701,0.5821 14.41926,1.26954 17.09389,1.52762 2.67466,0.25809 5.53326,-1.2493 6.35247,-3.34974 z m -89.03242,-16.99681 c -0.0579,-7.67242 -6.56415,-22.55929 -10.84429,-24.81306 -13.9819,-7.36234 -39.90359,-0.91731 -37.88052,9.41841 1.68772,8.62238 48.78609,23.50316 48.72481,15.39465 z m 8.20489,-23.17283 c 0,-2.035 -1.89473,-5.24716 -4.21052,-7.13813 -5.18911,-4.2372 -10.99787,0.28098 -8.52214,6.62871 2.02266,5.18599 12.73266,5.61448 12.73266,0.50942 z m -43.77422,-22.98254 c 3.56239,-6.5492 3.67779,-20.82882 0.18536,-22.95243 -1.45224,-0.88309 -1.87472,-5.37267 -0.93881,-9.97684 1.21453,-5.97471 0.79817,-7.82182 -1.45434,-6.45212 -1.73583,1.05551 -3.15603,4.48145 -3.15603,7.6132 0,3.13175 -1.40815,9.52557 -3.12926,14.2085 -5.45997,14.85602 1.79945,29.86522 8.493,17.55969 z M 120.1634,956.42301 C 109.87923,950.45782 101.86155,941.88784 89.178623,923.30387 72.318125,898.5986 68.465952,893.52277 48.973126,870.32689 21.755593,837.93883 14.441856,810.94942 24.463806,779.88173 c 0.967585,-2.99948 -0.161819,-9.97729 -2.509787,-15.50624 -5.204746,-12.25604 -4.995771,-65.04061 0.308319,-77.87767 3.883465,-9.39883 18.092111,-21.04665 28.288968,-23.19044 3.753593,-0.78916 14.195408,-3.48838 23.204033,-5.99828 65.328621,-18.20125 79.423141,-19.10121 96.531941,-6.1637 6.36737,4.81494 12.14806,11.73231 12.90619,15.44398 0.75524,3.69755 3.88721,12.76612 6.95992,20.15237 3.07272,7.38625 7.72483,22.76247 10.33804,34.16937 2.82244,12.32025 8.40408,26.49514 13.74919,34.91683 11.15168,17.57046 15.06645,53.75476 7.39487,68.35097 -4.25077,8.08766 -5.53808,14.13618 -15.08046,70.85634 -5.28756,31.42944 -13.79709,47.87188 -29.42199,56.85031 -10.7122,6.15546 -48.93202,9.19956 -56.96964,4.53744 z m -11.09548,-52.99525 c 9.79832,-8.52186 26.85763,-12.13677 49.36986,-10.4616 30.84001,2.29485 32.13821,-10.05635 2.87367,-27.34049 -15.37249,-9.07926 -15.54417,-9.11096 -31.03291,-5.72969 -27.58299,6.02149 -39.128137,14.93777 -39.578396,30.56627 -0.458359,15.90969 8.064952,21.92616 18.367776,12.96551 z M 75.120282,818.35133 c 0,-2.21588 -1.842673,-4.02887 -4.09483,-4.02887 -2.252156,0 -4.094829,-1.78277 -4.094829,-3.96172 0,-2.96942 2.051269,-3.55807 8.189659,-2.35017 6.607722,1.30026 8.189659,0.70216 8.189659,-3.09634 0,-4.02783 -1.661112,-4.44654 -11.499532,-2.89865 -14.079109,2.21507 -13.47465,1.58429 -11.382222,11.87788 1.355096,6.66635 3.115827,8.48673 8.208615,8.48673 3.943168,0 6.48348,-1.57856 6.48348,-4.02886 z m 89.782098,-14.47326 c 6.64089,-6.53391 6.33065,-22.6899 -0.46041,-23.97667 -5.45504,-1.03362 -5.80059,0.51116 -1.77131,7.91865 2.2268,4.09379 1.90138,6.91079 -1.36494,11.81552 -6.97987,10.48101 -5.05349,12.7533 3.59666,4.2425 z M 70.163854,758.81313 c 2.726034,-2.42729 4.956428,-6.64324 4.956428,-9.36879 0,-2.72554 1.300949,-4.95553 2.890996,-4.95553 1.590047,0 2.119388,-1.22838 1.176313,-2.72972 -0.943077,-1.50135 -3.067011,-1.90741 -4.719853,-0.90235 -1.921982,1.16872 -2.388945,0.2474 -1.295538,-2.55608 2.190597,-5.61664 -1.895363,-8.11465 -8.177948,-4.99971 -2.688589,1.33301 -10.416364,4.09344 -17.172833,6.13428 -11.461225,3.46195 -12.284488,4.33251 -12.284488,12.99021 0,7.58392 1.247086,9.63845 6.824716,11.24347 9.283876,2.67152 21.804344,0.48477 27.802207,-4.85578 z M 163.1185,738.60098 c 17.64165,-5.98523 16.77285,-12.51318 -2.80234,-21.05622 -15.00772,-6.54969 -26.36017,-3.40392 -35.1052,9.72768 -4.68197,7.03047 -4.63455,7.28737 2.45208,13.28483 7.67896,6.49877 11.0884,6.31065 35.45546,-1.95629 z M 64.405478,700.77563 c -0.337668,-3.21155 -4.081966,-2.58958 -5.255031,0.87292 -0.600575,1.7727 0.382184,2.73963 2.183909,2.14873 1.801725,-0.5909 3.18373,-1.95065 3.071122,-3.02165 z M 76.855651,686.7583 c 10.059839,-5.16205 26.662119,-5.18676 30.998319,-0.0461 3.79335,4.49707 8.21461,3.01539 8.21461,-2.75294 0,-4.85475 -10.15245,-11.43616 -20.905416,-13.55211 -6.811921,-1.34043 -10.153948,-0.0694 -18.28403,6.95395 -13.924396,12.02883 -13.93566,16.53603 -0.02348,9.39722 z"
         id="path4522"
         inkscape:connector-curvature="0" />
      <path
         style="fill:#ccb2ee"
         d="m 281.00404,1013.1634 c -8.58036,-3.4152 -19.85338,-17.95467 -21.47163,-27.69327 -6.26281,-37.68922 -13.51341,-67.70539 -22.10936,-91.52879 -10.51494,-29.1418 -8.83931,-57.08558 4.93535,-82.30479 5.24466,-9.60213 10.34999,-22.81081 11.34518,-29.35263 2.00734,-13.19503 16.42152,-56.81525 21.52647,-65.14341 9.20071,-15.00995 45.60792,-19.01393 81.06852,-8.91573 8.2579,2.35162 24.06998,6.69355 35.13797,9.64873 12.8783,3.43853 23.9494,8.47179 30.74969,13.97974 l 10.62611,8.60669 -1.20525,42.97456 c -0.66287,23.636 -1.25902,45.39187 -1.32473,48.34637 -0.0658,2.9545 0.5543,14.68165 1.37788,26.06032 1.73979,24.03694 -6.53764,47.75692 -21.89287,62.73661 -14.02397,13.68103 -46.48603,49.77689 -49.01358,54.5002 -5.11769,9.56358 -16.78809,26.28 -23.24904,33.3014 -6.37584,6.929 -8.15939,7.3758 -28.80746,7.216 -12.10595,-0.094 -24.56791,-1.188 -27.69325,-2.432 z m 33.66376,-27.61419 c -0.62561,-1.84657 -2.77539,-3.35739 -4.7773,-3.35739 -2.00191,0 -4.15169,1.51082 -4.7773,3.35739 -0.67663,1.99721 1.25878,3.35738 4.7773,3.35738 3.51852,0 5.45393,-1.36017 4.7773,-3.35738 z m -21.15662,-10.12817 c -6.52568,-4.06005 -10.91954,-3.04679 -10.91954,2.5181 0,6.67416 5.70549,8.6772 10.91954,3.83352 3.63984,-3.3813 3.63984,-4.08705 0,-6.35162 z m 58.85728,-21.95752 c 11.50418,-4.33146 17.07844,-8.25517 20.98671,-14.77251 2.92698,-4.88094 7.0431,-8.87443 9.14697,-8.87443 2.10384,0 3.82517,-1.94229 3.82517,-4.31623 0,-3.08187 -1.36622,-3.74435 -4.7773,-2.31654 -15.61301,6.53532 -25.43113,7.64654 -35.46376,4.01379 -5.64401,-2.04365 -16.10302,-3.87187 -23.24225,-4.06271 -8.97682,-0.23985 -15.29173,-2.19274 -20.47415,-6.33133 -4.12155,-3.29142 -9.46162,-6.63879 -11.86684,-7.4386 -2.40522,-0.79981 -6.42266,-5.68287 -8.92763,-10.85124 -4.68353,-9.66324 -8.79873,-10.5666 -13.6518,-2.99683 -2.08789,3.25667 -0.55493,8.52957 6.20041,21.32742 20.76972,39.34779 43.16273,49.82797 78.24447,36.61921 z m 41.74984,-78.29055 c 7.05405,-7.38774 5.65062,-13.19717 -4.26162,-17.64073 -10.97191,-4.91861 -18.18012,6.68797 -11.63096,18.72804 3.75559,6.90432 8.57687,6.57446 15.89258,-1.08731 z m -84.17315,-11.18898 c 7.0127,-3.56799 13.59478,-11.30494 13.59478,-15.98006 0,-0.87368 -3.62433,0.25551 -8.05409,2.50934 -10.79438,5.49207 -16.51489,5.1647 -16.51489,-0.94511 0,-10.33283 -20.16264,-16.4706 -40.26582,-12.25744 -6.09122,1.27658 -9.1384,11.92857 -3.41236,11.92857 1.50144,0 2.72989,1.81299 2.72989,4.02886 0,5.67757 12.73348,5.16224 16.03892,-0.6491 3.08088,-5.41655 6.45436,-3.11141 7.75938,5.30206 1.65494,10.66957 13.88715,13.30653 28.12419,6.06288 z m 111.3359,-43.96135 c -1.36117,-11.5485 -17.47725,-18.54633 -31.91532,-13.8581 -17.45328,5.66732 -14.02468,18.71946 5.01475,19.09034 5.3301,0.10384 12.14799,1.14523 15.15087,2.31422 8.24177,3.20844 12.68125,0.3571 11.7497,-7.54646 z m -73.26818,-13.58133 c 4.39026,-8.07112 3.42535,-13.15789 -4.5255,-23.8575 -12.52646,-16.85714 -19.16699,-20.6657 -18.79925,-10.78199 0.18045,4.84627 -1.38962,5.88367 -9.33785,6.17036 -22.51826,0.81222 -27.14432,1.66511 -31.32099,5.7745 -9.38885,9.23759 7.11198,19.73114 39.51065,25.12642 19.53993,3.25394 21.48535,3.06063 24.47294,-2.43179 z m -17.35615,-7.11103 c -2.87299,-7.36625 -1.85152,-9.18101 5.1677,-9.18101 7.27037,0 8.96598,4.87659 3.54885,10.20646 -4.40301,4.33208 -6.73397,4.05786 -8.71655,-1.02545 z m -33.22305,-35.85274 c 4.06254,-4.41673 4.48193,-8.19521 2.83226,-25.51614 -2.88759,-30.31855 -9.3646,-26.96554 -16.592,8.58935 -3.71352,18.26857 3.90505,27.64069 13.75974,16.92679 z M 124.25823,957.57777 C 114.27403,953.47531 99.478907,939.35228 91.615846,926.41829 80.817279,908.65561 67.295582,889.5223 59.656868,881.19606 39.945569,859.71064 33.775523,851.46053 28.692028,839.79227 20.83173,821.75034 19.188076,806.30701 23.165496,787.86648 c 2.94894,-13.67218 2.803614,-16.81049 -1.12453,-24.28431 -3.683042,-7.00749 -4.266723,-14.10829 -3.179701,-38.68286 2.075243,-46.9155 7.34896,-54.64098 43.597106,-63.86552 10.717645,-2.72745 31.15689,-8.14916 45.420549,-12.04823 35.87773,-9.80744 50.89908,-8.51906 65.62487,5.62865 6.31603,6.06809 10.81194,12.92118 10.81194,16.48059 0,3.35121 3.02425,12.8213 6.72056,21.04466 3.6963,8.22337 7.4851,19.43793 8.41954,24.92125 2.81986,16.54712 7.13829,28.04984 15.62585,41.62167 10.09454,16.14144 13.92612,52.77585 6.68621,63.92799 -2.31537,3.56653 -5.5654,14.34088 -7.22228,23.94301 -1.65688,9.60212 -5.22482,30.14933 -7.92874,45.66046 -8.71009,49.96569 -20.19636,62.91276 -58.21558,65.61928 -11.02653,0.78495 -21.8909,0.67005 -24.14306,-0.25535 z m 32.13304,-39.00844 c -1.68727,-4.98027 -7.56406,-5.80629 -7.56406,-1.06316 0,2.33897 1.94504,4.25268 4.32232,4.25268 2.37728,0 3.83606,-1.43527 3.24174,-3.18952 z m -47.40595,-15.33077 c 6.31668,-6.86741 17.47219,-9.1205 46.66661,-9.42527 24.56897,-0.25649 24.56897,-0.25649 25.41851,-7.49736 0.70019,-5.96797 -1.45934,-8.91903 -12.28449,-16.78706 -16.99937,-12.35564 -22.41608,-13.59277 -41.79704,-9.54611 -22.44916,4.68729 -31.780282,10.93399 -35.73565,23.92317 -5.441422,17.86927 6.80099,31.21676 17.73206,19.33263 z m 12.90878,-51.73851 c 5.80459,-1.71108 10.55379,-4.81418 10.55379,-6.89577 0,-2.63918 -1.85909,-3.26895 -6.14224,-2.08068 -12.56017,3.48456 -21.15662,7.43706 -21.15662,9.72745 0,3.15792 4.10995,2.97359 16.74507,-0.751 z M 80.413272,831.1094 c 7.35368,-45.04812 7.333692,-45.32567 -2.563104,-35.58831 -5.760044,5.66726 -17.62378,7.22361 -20.474147,2.68591 -2.250881,-3.58333 -10.440674,-3.39731 -18.980754,0.43113 -9.037964,4.05163 -9.014036,4.1447 5.087318,19.78674 9.711335,10.77238 12.721376,12.70654 15.560351,9.99862 7.991628,-7.62273 11.408184,-4.00432 9.510299,10.07216 -1.616341,11.9883 -1.259431,13.42955 3.325697,13.42955 4.294414,0 5.693347,-3.41209 8.53434,-20.8158 z m 103.902458,-1.04686 c 0,-3.83944 -8.27506,-10.16931 -13.44282,-10.28284 -2.66172,-0.0585 -1.86579,2.03267 2.52328,6.62935 6.89164,7.21765 10.91954,8.56531 10.91954,3.65349 z M 163.89395,808.7883 c 1.45584,-4.51305 3.25271,-5.21704 9.73857,-3.81545 8.12135,1.75501 9.39318,-0.12758 8.19993,-12.13767 -1.33823,-13.46922 -3.16789,-16.1867 -10.54539,-15.66243 -4.09501,0.29101 -10.3239,-1.00331 -13.84198,-2.87626 -3.51808,-1.87295 -9.35321,-2.67523 -12.96696,-1.78284 -11.63853,2.87402 -8.2788,17.93002 7.98105,35.76551 6.82031,7.48123 9.1522,7.58506 11.43478,0.50914 z M 57.083424,772.69086 c 1.662367,-2.9545 4.605037,-6.36425 6.53927,-7.57721 1.934234,-1.21297 7.074225,-5.44328 11.422202,-9.40069 4.34798,-3.95741 10.547898,-9.01652 13.777599,-11.24248 5.872185,-4.04718 5.872185,-4.04718 -0.01829,-11.41511 -3.239807,-4.05236 -7.478381,-7.36793 -9.419079,-7.36793 -1.940701,0 -6.651985,-2.41732 -10.469523,-5.37182 -11.485353,-8.88884 -19.658479,-6.27334 -33.427878,10.69735 -3.988762,4.91613 -4.189598,5.74008 -0.764267,3.13548 4.982512,-3.78866 16.975931,-1.71803 14.341435,2.476 -0.861131,1.3709 -4.564315,2.49254 -8.229299,2.49254 -6.049477,0 -6.663606,1.08298 -6.663606,11.75085 0,11.06139 0.510554,11.85132 8.701513,13.46313 6.716956,1.32175 7.962169,2.4397 5.459772,4.90178 -1.782957,1.75424 -3.24174,4.8494 -3.24174,6.87814 0,5.31413 8.430356,2.90983 11.991891,-3.42003 z m 101.054456,-26.8591 c -1.48303,-5.81366 -0.80217,-6.71477 5.0735,-6.71477 17.34326,0 15.92654,-13.7157 -2.34623,-22.71462 -9.99273,-4.92119 -10.2434,-5.32319 -3.93296,-6.30718 6.48057,-1.01052 6.3897,-1.19591 -2.36083,-4.81596 -12.6931,-5.25106 -23.89282,-4.70167 -37.64089,1.84644 -10.88101,5.18255 -11.78144,6.407 -11.78144,16.02096 0,9.82353 8.29972,19.44329 12.88386,14.93299 0.82318,-0.80992 4.56899,0.90514 8.324,3.81126 3.75501,2.90611 9.73276,5.28384 13.28387,5.28384 3.55111,0 6.45656,1.20866 6.45656,2.68591 0,1.47725 3.09453,2.68591 6.87673,2.68591 5.97202,0 6.65138,-0.8834 5.16383,-6.71478 z M 67.976827,702.8157 c 3.47264,-2.2387 16.32813,-5.50645 28.56776,-7.26166 21.773253,-3.12236 22.253873,-3.35349 22.253873,-10.70213 0,-4.13096 -1.25185,-7.51085 -2.78189,-7.51085 -1.60421,0 -2.05676,-2.84264 -1.06901,-6.71477 1.62784,-6.38133 1.13098,-6.71477 -10.00564,-6.71477 -15.827234,0 -32.333333,8.59961 -41.423655,21.58155 -11.926957,17.03297 -9.531127,26.34136 4.458562,17.32263 z"
         id="path4520"
         inkscape:connector-curvature="0" />
      <path
         style="fill:#c4a6eb"
         d="m 279.9437,1012.3296 c -9.0172,-4.4893 -18.69615,-19.08537 -20.62927,-31.10941 -4.17839,-25.98969 -10.69089,-52.7759 -19.55468,-80.42924 -12.73954,-39.74496 -12.14834,-59.86815 2.54035,-86.46849 5.30229,-9.60213 10.41588,-22.89738 11.36353,-29.54501 0.94766,-6.64762 4.94542,-21.75587 8.88392,-33.57387 14.42823,-43.29381 20.14932,-47.83774 58.23197,-46.25029 24.97685,1.04114 44.14628,4.55558 54.03802,9.9071 2.57679,1.39406 12.02302,4.51268 20.9916,6.93027 8.9686,2.41759 20.99116,8.04611 26.71674,12.50782 l 10.41017,8.1122 -0.27768,36.62737 c -0.1526,20.14505 -1.69097,40.60412 -3.41834,45.46459 -2.40814,6.77612 -2.36678,10.0564 0.17745,14.06458 6.03913,9.51455 4.12267,38.83312 -3.50682,53.64662 -3.75359,7.28803 -6.82471,14.5785 -6.82471,16.20103 0,1.62256 -6.44936,9.28264 -14.3319,17.02244 -16.89598,16.59003 -43.77529,46.54265 -45.73635,50.96578 -4.09161,9.22847 -22.62718,34.22241 -27.14277,36.60021 -7.32456,3.8568 -43.7811,3.3839 -51.93123,-0.6737 z m 35.61131,-24.16163 c -0.11274,-1.07101 -0.20474,-3.76028 -0.20474,-5.97615 0,-2.23825 -2.42657,-4.02887 -5.45977,-4.02887 -3.00288,0 -5.45977,0.50549 -5.45977,1.12328 0,0.61781 -0.70442,2.92941 -1.5654,5.13691 -0.96753,2.48076 0.33569,4.49084 3.41236,5.2632 6.20833,1.55853 9.54343,1.01267 9.27732,-1.51837 z m -19.21793,-6.08998 c 5.04199,-5.97733 -1.37428,-10.69516 -13.06297,-9.60508 -7.25647,0.67671 -1.21529,13.74777 6.35397,13.74777 1.76801,0 4.78708,-1.86421 6.709,-4.14269 z m 54.50171,-26.91112 c 12.59458,-4.90493 39.44945,-29.27532 36.83908,-33.43093 -0.80002,-1.27361 -6.95957,0.0803 -13.68787,3.00851 -10.31916,4.49114 -13.8349,4.85892 -22.46953,2.35052 -5.62995,-1.63553 -18.03065,-4.0066 -27.55708,-5.26908 -11.37309,-1.50717 -19.40144,-4.21854 -23.37997,-7.89598 -3.33257,-3.08034 -7.39423,-5.60061 -9.02596,-5.60061 -1.63171,0 -5.55551,-4.31693 -8.71956,-9.59318 -6.48436,-10.81314 -14.70454,-11.6527 -16.15226,-1.64969 -0.89827,6.20658 9.09061,27.51075 19.21822,40.98841 8.661,11.52593 20.70914,18.94356 34.46618,21.21968 14.25342,2.35828 13.58039,2.44944 30.46875,-4.12765 z m -2.25813,-75.7802 c -2.25721,-0.74028 -2.78345,-4.09309 -1.60913,-10.25189 2.07064,-10.85967 -1.09357,-11.69137 -9.27182,-2.43708 -3.26371,3.69313 -7.17059,6.71477 -8.68196,6.71477 -1.51135,0 -2.74793,1.74003 -2.74793,3.86673 0,2.52239 3.55911,4.17029 10.23707,4.73986 10.59507,0.90367 17.95973,-0.70202 12.07377,-2.63239 z m 47.0352,-3.01505 c 8.80727,-9.04473 6.59052,-17.74755 -5.26641,-20.67551 -13.89335,-3.43084 -19.67137,5.23353 -13.35171,20.02142 4.47797,10.47845 8.90038,10.63382 18.61812,0.65409 z m -81.3505,-9.63283 c 17.98468,-4.60896 19.63479,-5.69464 15.23481,-10.02372 -1.77669,-1.74808 -3.23035,-5.35391 -3.23035,-8.01296 0,-5.80892 -4.89513,-6.09977 -12.12378,-0.72036 -6.56997,4.88921 -12.4452,5.09124 -12.4452,0.42794 0,-6.35999 -6.80965,-12.83703 -13.70217,-13.03294 -3.7246,-0.10588 -10.02406,-1.35564 -13.99883,-2.77727 -8.13558,-2.9098 -24.16684,3.36459 -24.16684,9.45853 0,12.76316 13.43503,23.67276 21.272,17.27342 2.98907,-2.44074 4.78746,-1.90656 8.33172,2.47484 7.83539,9.68607 13.27411,10.45632 34.82864,4.93252 z m 37.07884,-30.25757 c 1.73176,-7.12647 -0.56661,-14.52845 -4.14702,-13.35562 -1.7507,0.57348 -3.59411,3.12829 -4.09644,5.67735 -1.98624,10.0789 5.87971,17.40552 8.24346,7.67827 z m 69.48677,-10.07817 c 5.92244,-15.18499 -13.44081,-26.66457 -34.50366,-20.45565 -11.49091,3.3873 -12.69653,5.46136 -8.09362,13.92345 2.00748,3.69055 5.76309,5.20716 12.96696,5.23638 5.57757,0.0226 11.98371,1.21277 14.23587,2.64478 6.10269,3.88033 13.61157,3.22235 15.39445,-1.34896 z M 273.45996,815.54958 c 0.88908,-2.27959 0.7916,-4.95632 -0.21662,-5.9483 -2.23582,-2.1998 -10.39362,2.55987 -11.87334,6.9275 -1.61755,4.7745 10.21983,3.81575 12.08995,-0.9792 z m 75.85911,-7.19657 c 5.91236,-8.30513 5.33908,-13.68485 -2.71428,-25.47071 -9.31865,-13.63761 -17.33786,-19.46039 -26.90032,-19.5324 -7.65602,-0.0577 -7.76576,0.11915 -3.17311,5.11222 4.62169,5.02462 4.381,5.22143 -8.44903,6.90915 -44.20446,5.81485 -34.73903,26.16141 16.82254,36.16111 17.59341,3.41202 19.93928,3.10653 24.4142,-3.17937 z m 33.65275,-17.70013 c 0.59432,-1.75423 -0.86445,-3.18952 -3.24174,-3.18952 -2.37727,0 -4.32231,1.91371 -4.32231,4.25269 0,4.74312 5.87679,3.91711 7.56405,-1.06317 z m -88.74497,-21.55637 c 7.15009,-4.14239 12.43889,-8.08386 11.75287,-8.75881 -0.68602,-0.67496 -0.22412,-5.69006 1.02608,-11.14467 1.68617,-7.35585 1.29465,-10.71665 -1.5158,-13.01154 -2.08405,-1.70174 -3.78916,-7.10506 -3.78916,-12.00737 0,-21.3832 -14.49575,-11.22668 -18.6947,13.09853 -4.23777,24.55026 -5.58696,39.45302 -3.56709,39.40127 0.9832,-0.0252 7.63771,-3.43502 14.7878,-7.57741 z m 121.725,-20.49035 c 3.94351,-10.72993 0.56036,-20.23597 -7.19901,-20.228 -3.81049,0.004 -4.74727,2.75184 -5.03604,14.77251 -0.42996,17.89693 6.52306,20.99722 12.23505,5.45549 z M 115.35596,951.17085 C 107.33711,945.94496 99.828641,937.82134 94.612824,928.7283 90.116617,920.8898 84.759911,912.79121 82.709033,910.73142 80.658154,908.67162 75.347679,901.93471 70.907977,895.76053 66.468276,889.58632 55.938338,876.29107 47.508113,866.21552 23.516724,837.54173 17.431398,817.28404 23.757292,787.15048 c 2.831529,-13.48807 2.622185,-16.74526 -1.679476,-26.13097 -4.389841,-9.5781 -4.634971,-14.23629 -2.297279,-43.65486 2.616933,-32.93265 2.616933,-32.93265 12.819306,-41.36008 7.043858,-5.81841 17.106546,-10.17477 32.503651,-14.07154 12.265701,-3.10427 31.514642,-8.13089 42.775426,-11.17029 11.26078,-3.03939 28.00382,-5.55461 37.20676,-5.58938 15.8616,-0.0599 17.31816,0.49589 27.98133,10.67744 7.34777,7.01589 11.24872,13.10128 11.24872,17.54771 0,3.74387 2.90849,12.508 6.46331,19.47583 3.55483,6.96783 7.83822,20.47545 9.51867,30.01694 1.98645,11.27895 6.43638,22.73762 12.71966,32.75334 11.95439,19.05564 16.19892,51.42489 8.63131,65.82328 -4.30965,8.19969 -6.14318,16.67482 -15.30537,70.74594 -7.36017,43.4364 -19.89132,60.06484 -48.79561,64.75017 -22.51646,3.64991 -29.08604,2.74785 -42.19174,-5.79316 z m 41.66091,-32.09791 c 0,-3.5812 -1.81993,-5.37182 -5.45977,-5.37182 -5.26101,0 -7.39771,5.25571 -3.63985,8.95302 3.75786,3.69735 9.09962,1.59506 9.09962,-3.5812 z m -47.57386,-14.71887 c 5.1442,-4.69067 8.56181,-5.96922 11.55323,-4.32211 2.77914,1.53025 5.61763,0.99153 8.20881,-1.55791 2.89846,-2.85176 9.70003,-3.74767 25.35964,-3.34041 32.30159,0.8401 37.88491,-6.28747 18.14903,-23.16874 -17.40202,-14.88498 -27.91871,-18.59525 -41.48357,-14.63534 -31.358937,9.15443 -39.407941,15.27724 -41.643772,31.67808 -1.154679,8.47008 -0.272306,11.79953 4.326176,16.32392 7.158256,7.04296 6.703156,7.07159 15.530456,-0.97749 z M 82.938578,838.92201 c -0.36091,-8.35938 1.049221,-22.75291 3.13362,-31.98563 4.729984,-20.95119 0.648525,-28.57036 -8.63287,-16.11563 -6.052359,8.12168 -14.423981,9.38276 -22.47464,3.38553 -4.46014,-3.32253 -6.430575,-3.29984 -14.874154,0.17128 -12.953326,5.32505 -12.799584,4.96344 -6.421161,15.10328 10.464977,16.63627 20.958163,24.5605 27.771817,20.97269 5.819681,-3.06442 5.959749,-2.79641 5.055013,9.67255 -0.853685,11.76532 -0.366963,12.96883 5.894193,14.57452 10.12372,2.59625 11.267621,0.88513 10.548182,-15.77859 z m 39.699142,14.01631 c 10.9594,-3.67409 12.76883,-5.23414 11.52009,-9.9324 -0.81478,-3.06553 -0.24474,-7.03981 1.26678,-8.83173 1.88276,-2.23205 1.6826,-3.90599 -0.63561,-5.31565 -1.95096,-1.18633 -3.88551,-0.57675 -4.56863,1.43957 -2.23842,6.60708 -11.42903,13.56936 -17.91234,13.56936 -7.27138,0 -14.023712,6.33404 -11.32771,10.62598 2.40507,3.82881 6.46793,3.53707 21.65742,-1.55513 z m -20.21858,-11.75676 c 0,-1.47725 -1.77017,-2.68591 -3.933715,-2.68591 -2.163547,0 -4.692942,1.20866 -5.620883,2.68591 -0.92794,1.47725 0.842236,2.68591 3.93372,2.68591 3.091484,0 5.620878,-1.20866 5.620878,-2.68591 z m 83.10928,-7.81535 c 2.83461,-4.5126 -1.381,-10.07006 -11.09629,-14.62833 -10.9354,-5.13072 -10.96038,-11.52404 -0.0404,-10.35294 8.66943,0.92974 12.67636,-6.74099 10.6169,-20.3246 -1.34391,-8.86401 -9.29596,-15.75213 -14.51876,-12.57627 -1.53644,0.93428 -5.7674,-0.21849 -9.40214,-2.5617 -11.79485,-7.60378 -25.90992,-4.74218 -25.90992,5.25282 0,12.13725 5.9989,21.42995 25.41681,39.37236 20.18626,18.65238 22.3082,19.99859 24.93383,15.81866 z m -79.01445,-13.67193 c 0.92794,-1.47725 -0.84223,-2.68591 -3.93372,-2.68591 -3.09148,0 -5.620878,1.20866 -5.620878,2.68591 0,1.47725 1.770173,2.68591 3.933718,2.68591 2.16355,0 4.69294,-1.20866 5.62088,-2.68591 z m 15.01438,-21.1584 c 0,-2.77362 -1.84268,-6.54759 -4.09483,-8.38661 -3.45079,-2.81776 -4.09483,-2.30623 -4.09483,3.25234 0,3.6278 0.81897,7.40177 1.81992,8.3866 3.39002,3.3354 6.36974,1.81398 6.36974,-3.25233 z m -63.394802,-20.6255 c 3.336953,-2.29964 6.067189,-5.69949 6.067189,-7.55522 0,-1.85573 3.687478,-6.84997 8.194398,-11.09832 7.913883,-7.45984 8.324665,-7.54898 11.999692,-2.60405 3.582261,4.82012 4.075169,4.49563 8.409904,-5.53632 4.951443,-11.45919 2.344598,-21.25888 -6.764904,-25.43072 -13.900171,-6.3658 -20.474147,-10.83856 -20.474147,-13.93008 0,-5.52901 17.74491,-12.62046 32.758635,-13.09144 21.324475,-0.66894 22.408125,-1.34828 24.515085,-15.36828 1.04721,-6.96831 3.89579,-14.8586 6.33018,-17.53398 13.97727,-15.36091 -34.808006,-9.63775 -77.935803,9.14291 -12.053897,5.24906 -16.110331,14.60521 -7.08445,16.34027 9.512774,1.82866 6.526314,18.54986 -5.549248,31.07026 -10.590807,10.98096 -10.872774,11.73421 -7.662353,20.46945 1.833192,4.98794 2.563853,11.04124 1.623692,13.45179 -1.229328,3.15198 0.660068,5.36306 6.727769,7.87323 7.841325,3.24392 8.15814,3.88234 4.486241,9.04026 -6.616448,9.29413 3.103151,12.51653 14.35812,4.76024 z M 160.1268,752.6011 c 5.42169,-4.47323 5.80683,-5.72932 2.42635,-7.91324 -3.53784,-2.28557 -3.53784,-2.74303 0,-3.82576 14.81359,-4.53357 14.28935,-3.79649 12.24741,-17.22004 -2.53318,-16.65296 -1.66698,-15.79036 -22.08795,-21.99615 -16.57319,-5.03647 -18.46963,-5.11212 -29.23094,-1.16601 -23.44406,8.59679 -23.19844,8.34669 -21.7159,22.11167 1.41568,13.1442 13.44311,27.61174 17.53683,21.09467 1.36882,-2.17913 3.56607,-2.176 8.19045,0.0116 3.47588,1.64434 8.46957,3.6657 11.09709,4.49192 2.62751,0.82621 4.7773,3.35313 4.7773,5.61537 0,5.77311 9.09474,5.11969 16.75936,-1.2041 z m 17.33744,-55.78719 c -1.15835,-5.53969 -1.93271,-15.06048 -1.7208,-21.15732 0.25751,-7.40881 -1.11524,-12.30805 -4.1392,-14.7725 -4.13196,-3.36745 -4.37559,-2.63875 -2.80814,8.39925 0.94399,6.64762 2.52496,17.82772 3.51325,24.84466 0.98829,7.01694 3.02631,12.75807 4.52894,12.75807 1.71152,0 1.94533,-3.76234 0.62595,-10.07216 z"
         id="path4518"
         inkscape:connector-curvature="0" />
      <path
         style="fill:#ba97e8"
         d="m 280.88164,1013.1189 c -10.27492,-4.0823 -17.60158,-17.99862 -23.00323,-43.69254 -10.22785,-48.65055 -13.11649,-59.99256 -20.08547,-78.86394 -10.02354,-27.14282 -8.65925,-49.36169 4.60598,-75.01324 5.31447,-10.27682 12.29423,-28.95874 15.51057,-41.51537 9.7557,-38.08633 12.14936,-44.52002 20.09147,-54.00201 4.19995,-5.01428 6.69736,-7.31763 5.5498,-5.11858 -1.14759,2.19906 -3.60261,17.81999 -5.45561,34.71317 -3.511,32.00846 -1.61364,44.49273 7.63031,50.20602 6.81047,4.20927 30.91804,11.62789 38.07384,11.71646 11.11214,0.13754 15.66621,7.40418 12.85727,20.51547 -2.1467,10.0202 -3.01063,10.9052 -9.4611,9.69198 -3.90426,-0.73433 -7.69569,-3.58137 -8.42539,-6.32677 -1.54528,-5.81395 -11.10479,-6.72493 -13.23571,-1.2613 -1.14391,2.93295 -3.31381,3.14051 -10.15141,0.97099 -19.89789,-6.31347 -21.58123,-7.36057 -19.5327,-12.15 5.05827,-11.82623 4.76704,-16.72451 -0.99439,-16.72451 -3.1033,0 -6.96244,-2.11515 -8.57587,-4.70034 -2.18663,-3.50362 -2.8095,-3.67459 -2.44646,-0.67148 0.26788,2.21588 -1.61618,8.69198 -4.18678,14.39134 -2.57061,5.69936 -3.99545,11.02991 -3.16633,11.84568 0.82912,0.81577 -0.94158,3.17098 -3.93491,5.23381 -6.89599,4.75233 -6.89103,11.48864 0.0174,23.59032 3.00287,5.26024 5.45977,13.75762 5.45977,18.88306 0,5.12545 1.22845,9.31899 2.72989,9.31899 1.50143,0 2.72988,-1.20866 2.72988,-2.68591 0,-1.47725 2.51075,-2.68591 5.57945,-2.68591 3.7994,0 5.32352,-1.49957 4.7773,-4.70034 -0.58105,-3.40478 0.70274,-4.43815 4.65763,-3.74911 3.00287,0.52318 13.7518,1.05968 23.8865,1.19221 15.42312,0.20169 18.42673,0.98488 18.42673,4.8047 0,5.76601 5.44487,7.82436 20.69743,7.82436 11.85805,0 14.39887,-1.79887 9.67392,-6.84907 -1.36407,-1.45797 -1.29934,-11.76121 0.15097,-24.03889 1.39603,-11.818 1.91875,-25.50372 1.16162,-30.4127 -0.81864,-5.30761 0.39892,-12.58882 3.0038,-17.96333 4.03398,-8.32308 4.02541,-9.57104 -0.10838,-15.77851 -2.4689,-3.70733 -3.83265,-8.42328 -3.03052,-10.47988 0.80209,-2.0566 -0.4402,-5.28957 -2.76068,-7.18438 -2.3206,-1.89481 -4.21918,-2.5734 -4.21918,-1.50797 0,1.06542 -4.02896,-0.40172 -8.95326,-3.26032 -4.92428,-2.8586 -12.35181,-6.03669 -16.5056,-7.06243 l -7.55234,-1.86499 5.78959,-7.99975 c 5.10798,-7.05793 5.41138,-9.1273 2.57699,-17.57716 -1.76692,-5.26759 -2.64308,-12.50857 -1.94704,-16.09109 0.71622,-3.68616 -0.0513,-6.58756 -1.76823,-6.68391 -1.66859,-0.0936 -0.39848,-1.21651 2.82251,-2.49528 10.84068,-4.30391 67.88267,11.13937 62.11294,16.81616 -0.82418,0.81089 1.12136,2.29246 4.32338,3.29238 5.99193,1.87112 12.18165,13.37021 9.49724,17.6437 -1.72788,2.75073 3.5372,13.6292 8.02257,16.57592 8.62977,5.66943 18.01807,-2.45617 18.01807,-15.5947 0,-9.12396 3.35505,-12.04652 7.05937,-6.14935 1.05701,1.68271 1.57378,21.32343 1.14838,43.64603 -0.42539,22.3226 -0.83436,44.21253 -0.90886,48.64428 -0.0745,4.43175 0.79465,16.11439 1.93137,25.96141 1.83421,15.88915 1.308,19.51576 -4.67679,32.23091 -3.70896,7.87999 -7.54207,16.9849 -8.51806,20.23316 -0.97596,3.24823 -4.05945,6.61945 -6.85223,7.49157 -2.79279,0.87211 -8.38982,5.85802 -12.43786,11.07978 -4.04806,5.22178 -11.2207,13.43438 -15.93923,18.25022 -13.5692,13.84908 -21.60776,24.27871 -30.41819,39.46611 -15.36137,26.47977 -19.63504,29.29677 -44.15067,29.10137 -11.75162,-0.094 -23.97878,-1.208 -27.17143,-2.4765 z m 36.69737,-28.88085 c -0.72839,-6.20166 -2.57538,-7.69494 -11.78334,-9.52676 -6.00575,-1.19477 -14.12271,-2.83181 -18.03767,-3.63785 -8.79452,-1.8107 -11.8994,4.10571 -6.28988,11.98542 3.66676,5.15066 10.55443,7.05655 29.28617,8.10379 6.85387,0.3832 7.59473,-0.36853 6.82472,-6.9246 z m 34.26056,-28.23385 c 11.86903,-4.41934 17.63648,-8.35702 21.46253,-14.65341 2.8776,-4.73556 7.5997,-9.34949 10.49355,-10.25317 5.76006,-1.7987 7.35423,-12.08304 1.84919,-11.92949 -1.87679,0.0524 -6.48348,1.8225 -10.23707,3.93367 -8.82127,4.96147 -21.48401,5.02298 -33.3089,0.1617 -5.17368,-2.1269 -14.60978,-3.7964 -20.96913,-3.71005 -7.92609,0.1077 -13.44335,-1.53562 -17.54309,-5.22493 -3.28935,-2.96009 -8.43838,-6.11101 -11.44229,-7.00208 -3.00392,-0.89105 -7.12976,-5.32791 -9.16855,-9.85966 -4.14969,-9.22376 -17.29307,-10.69088 -18.94486,-2.11469 -1.44807,7.51845 14.76511,37.89045 25.8521,48.42853 19.86506,18.88152 35.68985,22.00359 61.95652,12.22344 z m -20.10998,-59.76149 c 0,-2.64797 -2.6929,-4.02887 -7.8567,-4.02887 -5.10423,0 -9.30334,-2.11717 -11.98608,-6.04329 -5.00208,-7.32047 -9.12601,-4.73129 -4.88437,3.06661 1.65775,3.04763 6.97819,6.66812 11.8232,8.04553 12.36652,3.51575 12.90395,3.47245 12.90395,-1.03998 z m 68.65571,-20.30228 c 12.3493,-12.67257 17.87169,-26.70114 10.51099,-26.70114 -1.50144,0 -2.72989,1.74165 -2.72989,3.87035 0,6.28831 -4.83733,7.39839 -12.03093,2.76089 -3.69894,-2.3846 -10.18302,-3.94566 -14.409,-3.46901 -10.42464,1.17579 -12.48633,18.67246 -3.52152,29.88576 7.44958,9.31806 6.70839,9.53015 22.18035,-6.34685 z m 19.51844,-46.17399 c 7.61166,-5.56614 2.29327,-18.49267 -9.97612,-24.2473 -8.79881,-4.12684 -11.73775,-4.32673 -21.66725,-1.47371 -13.70362,3.93744 -16.18473,6.80483 -12.25345,14.16117 4.11121,7.69303 7.5198,9.45079 18.51005,9.54541 5.25503,0.0452 11.39728,1.2539 13.64943,2.68591 5.32175,3.38378 6.26567,3.32978 11.73734,-0.67148 z m -36.85229,-34.78253 c 4.99348,-4.91303 3.91064,-10.20646 -2.08787,-10.20646 -5.48412,0 -12.21024,8.67294 -9.09961,11.73345 2.70687,2.66326 7.60863,1.99422 11.18748,-1.52699 z m 27.98903,-16.92123 c -0.21402,-3.98667 -6.32138,-3.25426 -7.73827,0.92799 -0.7654,2.25917 0.48256,3.26603 3.32904,2.68591 2.5044,-0.51039 4.48854,-2.13665 4.40923,-3.6139 z M 122.89329,954.977 C 110.70953,948.5407 102.71773,940.61383 94.818909,927.13067 87.026885,913.8298 84.119112,910.04823 54.5539,874.76586 26.229895,840.96471 19.131043,822.1482 24.405807,794.85407 c 3.203884,-16.57841 3.200931,-21.07632 -0.01984,-30.22094 -5.216824,-14.81194 -5.132797,-64.84554 0.129714,-77.23761 4.669214,-10.99498 14.312953,-16.83632 11.122403,-6.73699 -4.829236,15.28643 -7.000588,34.98923 -4.219363,38.28642 2.066574,2.44995 1.51404,5.7524 -1.962442,11.72936 -4.008886,6.89229 -4.253577,9.24504 -1.426535,13.71636 1.876797,2.96839 3.412358,8.24111 3.412358,11.71716 0,4.21429 2.386247,7.38982 7.161791,9.53065 6.492183,2.91039 6.778198,3.64129 3.05908,7.81738 -6.72389,7.55007 -12.950757,21.32797 -12.950757,28.65553 0,8.89577 25.000429,35.14086 31.232844,32.78778 3.416483,-1.28991 4.255677,0.50832 4.255677,9.11907 0,9.275 1.015457,11.0803 7.507187,13.34642 4.128953,1.44132 9.801804,3.92796 12.606336,5.52585 6.722203,3.83002 11.706424,-0.78722 5.936094,-5.49902 -5.926501,-4.83932 -5.235053,-10.83811 1.249245,-10.83811 3.964095,0 5.459773,1.7906 5.459773,6.53637 0,5.12502 1.620971,6.72783 7.507188,7.42307 l 7.50719,0.8867 -8.34067,4.46209 c -14.866984,7.95355 -20.184893,31.52497 -9.299075,41.2178 5.023479,4.47296 6.947105,4.62922 19.791675,1.60773 7.82506,-1.8407 18.23123,-4.01645 23.12481,-4.83496 4.89359,-0.81853 9.57278,-2.56335 10.39819,-3.87737 0.82541,-1.31403 8.0343,-2.38915 16.01975,-2.38915 26.64303,0 27.61792,-14.31 2.20313,-32.33906 -16.36337,-11.60806 -20.89237,-12.24509 -47.0731,-6.62112 -3.75359,0.80633 -1.91092,-0.39489 4.09483,-2.66937 11.47888,-4.34725 18.62954,-11.19227 16.02445,-15.33949 -0.84971,-1.35271 0.46992,-4.64998 2.9325,-7.32726 4.1998,-4.56596 4.05805,-4.94667 -2.28599,-6.13988 -7.68687,-1.44576 -9.96974,-0.27104 -14.21987,7.3173 -3.54758,6.33399 -13.44066,8.4299 -18.86885,3.99748 -2.24487,-1.83307 -7.164331,-2.40972 -11.874343,-1.39189 -11.190757,2.41831 -12.371023,-1.17069 -7.423391,-22.57333 3.244598,-14.03561 3.640653,-21.77858 1.643861,-32.13801 -3.919379,-20.33388 0.379198,-27.68344 9.190425,-15.71347 4.254108,5.77918 4.374228,5.36831 2.748308,-9.40068 -1.912387,-17.37115 -1.409859,-17.83698 10.16171,-9.41956 7.72689,5.6207 8.461,5.70951 10.95476,1.3252 2.1009,-3.69363 3.81002,-4.10044 7.9869,-1.90106 7.01082,3.69164 6.77551,7.98099 -0.43782,7.98099 -4.43547,0 -5.28478,1.07572 -3.71103,4.70034 1.12245,2.58519 3.60319,10.2968 5.51276,17.13691 5.35415,19.17866 10.74795,27.5483 25.68101,39.84955 15.31537,12.61619 17.18141,19.17929 6.77897,23.8426 -7.5925,3.40365 -6.70065,8.47744 1.49012,8.47744 3.21962,0 5.43138,-2.23475 5.98114,-6.0433 0.63898,-4.4267 2.69796,-6.0433 7.69705,-6.0433 7.77856,0 11.01312,-9.52139 4.93389,-14.52362 -1.96292,-1.61517 -6.64007,-5.37203 -10.39366,-8.34857 l -6.82472,-5.41189 7.02728,1.55664 c 4.26082,0.94382 8.13859,0.16695 9.85019,-1.97342 4.75073,-5.94081 10.59882,-27.27341 9.61938,-35.08949 -0.99527,-7.94241 -5.23351,-9.84908 -7.72025,-3.47313 -1.94608,4.9897 -17.29492,2.62325 -22.19366,-3.42176 -2.84375,-3.50918 -2.18554,-5.48135 3.9231,-11.75468 9.33316,-9.58479 17.95731,-9.6389 24.9777,-0.15673 7.20611,9.73305 9.28818,7.05912 4.70868,-6.04719 -3.80788,-10.89793 -7.90529,-14.45103 -10.99416,-9.53365 -7.57765,12.06338 -13.26766,-14.52809 -6.1755,-28.86033 2.27322,-4.59385 2.22028,-9.23918 -0.20703,-18.16844 -4.00459,-14.73149 -4.311,-31.67626 -0.53124,-29.37787 1.50144,0.91299 2.72989,3.97151 2.72989,6.79671 0,2.82519 3.21059,12.12097 7.13465,20.65728 3.92406,8.53631 8.78256,23.71086 10.79666,33.72121 2.32205,11.54092 7.33477,24.05515 13.69946,34.20064 9.25729,14.7564 10.04687,17.62137 10.15858,36.86051 0.0666,11.47328 -1.26683,23.39578 -2.96323,26.49445 -3.1344,5.72534 -5.58916,17.71934 -13.98802,68.3456 -5.50955,33.21022 -13.17046,48.88654 -28.93293,59.20465 -14.36788,9.40522 -42.431,12.55469 -54.59773,6.12739 z m 36.35232,-36.78267 c 0.73381,-6.09874 -0.16629,-7.17912 -5.98114,-7.17912 -9.18243,0 -11.49825,4.55098 -5.58642,10.97823 6.18786,6.72737 10.47023,5.32092 11.56756,-3.79911 z m -45.90692,-99.52974 c 0,-6.39702 -11.70778,-7.44452 -17.66843,-1.5808 -5.358519,5.27139 -5.329511,5.2964 6.14224,5.2964 7.99368,0 11.52619,-1.13875 11.52619,-3.7156 z m 21.83909,-10.76954 c 0,-2.05783 -1.71224,-4.38797 -3.80498,-5.17809 -3.49465,-1.31942 -12.64672,-17.77503 -16.45029,-29.57798 -0.87268,-2.70803 -3.12161,-4.38934 -4.99761,-3.73623 -4.06164,1.41399 -3.51098,18.69567 0.93495,29.34207 4.07396,9.75564 24.31793,17.37295 24.31793,9.15023 z M 61.963456,786.81933 c 1.044744,-7.20481 9.033802,-9.48796 11.457245,-3.27431 2.30466,5.9091 -0.185073,9.29016 -6.841054,9.29016 -4.124116,0 -5.271672,-1.4955 -4.616191,-6.01585 z m 7.697053,-20.42696 c 0,-1.2483 2.33494,-4.34868 5.188758,-6.88974 6.115944,-5.44569 10.89511,-0.99189 5.631542,5.24816 -3.569492,4.23169 -10.8203,5.33173 -10.8203,1.64158 z m 83.863001,-69.14206 c -4.1735,-2.22687 -6.91967,-5.11311 -6.1026,-6.41386 0.81707,-1.30075 -0.98916,-3.13779 -4.01383,-4.08232 -7.39284,-2.3086 -6.94038,-6.32108 1.04982,-9.31001 3.60208,-1.34745 8.46822,-5.14551 10.81365,-8.44014 4.26442,-5.99023 4.26442,-5.99023 7.40902,1.8449 1.72952,4.30933 3.77961,12.97194 4.55574,19.25026 1.58269,12.80266 -0.79551,14.04297 -13.7118,7.15117 z"
         id="path4516"
         inkscape:connector-curvature="0" />
      <path
         style="fill:#b28be6"
         d="m 282.59164,1013.7749 c -4.11031,-1.5725 -7.58864,-5.1905 -15.2068,-15.81719 -2.25587,-3.14676 -5.79013,-15.23336 -7.85392,-26.8591 -5.74838,-32.38184 -11.26703,-54.20225 -19.01414,-75.18087 -11.05011,-29.92284 -10.06343,-52.67674 3.48047,-80.26381 5.79897,-11.81168 11.38094,-27.07705 12.40439,-33.92303 1.02344,-6.84598 4.40238,-18.93258 7.50874,-26.8591 3.10636,-7.92652 6.26296,-17.73567 7.01466,-21.79811 0.7517,-4.06244 2.45575,-7.38625 3.78678,-7.38625 3.13604,0 3.05199,7.26886 -0.39702,34.33209 -2.73755,21.48069 -2.62025,22.38838 4.15601,32.16045 6.97307,10.05589 6.97307,10.05589 0.97205,10.97607 -3.73081,0.57207 -7.66619,-1.25185 -10.40275,-4.82135 -4.77662,-6.23048 -8.28756,-4.89326 -8.28756,3.15651 0,2.79115 -3.68535,12.38302 -8.18966,21.31526 -9.69407,19.22375 -9.81818,20.73079 -2.72989,33.14759 3.00288,5.26024 5.45977,12.33726 5.45977,15.72671 0,8.79301 12.01103,42.36047 20.91995,58.4654 11.51492,20.81588 24.88001,30.79145 42.30165,31.57359 7.83732,0.35185 14.94534,1.06276 15.79562,1.57977 0.85025,0.51704 6.03305,-1.20734 11.51731,-3.83196 5.48425,-2.62462 13.13263,-5.55266 16.99638,-6.50678 3.97103,-0.98059 8.88384,-5.27142 11.3008,-9.87002 2.35168,-4.4744 7.28781,-9.48553 10.9692,-11.13586 7.64062,-3.42523 8.02248,-4.70977 3.28105,-11.03726 -3.18368,-4.24863 -4.18423,-4.17697 -14.93043,1.06942 -11.51807,5.62325 -11.51807,5.62325 -33.31755,-1.66537 -11.98969,-4.00875 -23.68526,-6.57661 -25.9901,-5.7064 -2.45019,0.92505 -6.97366,-1.15602 -10.89151,-5.01076 -3.97313,-3.9091 -8.42951,-5.94029 -10.94731,-4.98969 -2.33553,0.88181 -4.24642,0.36601 -4.24642,-1.14619 0,-1.51219 1.46166,-3.22881 3.24815,-3.81471 2.19227,-0.71899 0.86164,-5.26646 -4.09319,-13.9888 l -7.34134,-12.92351 8.52925,1.67837 c 4.69109,0.92311 9.60415,1.67837 10.91791,1.67837 1.31376,0 2.38865,2.83433 2.38865,6.29849 0,7.48701 6.73572,14.07814 16.94981,16.586 4.06737,0.99868 8.82447,3.51016 10.57135,5.58108 5.2559,6.23099 26.26601,4.90232 29.96331,-1.89483 2.0638,-3.79411 2.17386,-6.55056 0.33389,-8.36088 -3.39824,-3.3435 -8.68041,-0.43547 -8.68041,4.7789 0,2.12869 -1.74221,3.87034 -3.87155,3.87034 -7.97301,0 -12.50776,-3.45368 -12.50776,-9.52591 0,-5.24567 1.59591,-6.40094 9.80659,-7.09889 l 9.8066,-0.83361 0.7039,-33.06577 c 0.60099,-28.23102 1.50455,-34.12186 6.17956,-40.28864 7.56714,-9.98175 14.16473,-10.98598 12.39685,-1.88694 -1.93587,9.96376 5.9463,17.49429 18.31123,17.49429 10.71342,0 16.50219,3.81116 16.50219,10.86454 0,14.27698 -29.20716,16.74465 -34.77771,2.93831 -4.31876,-10.70383 -4.42067,22.80376 -0.11738,38.63364 2.66128,9.78995 2.62361,13.32713 -0.18919,17.7585 -4.82889,7.60776 -2.43282,8.86651 7.37689,3.87542 5.20194,-2.64667 8.91439,-3.22054 9.96941,-1.54099 4.02604,6.40933 9.08722,1.63975 13.14228,-12.3851 2.39506,-8.28363 6.45618,-16.57304 9.02467,-18.42092 3.45724,-2.48726 4.78525,-7.77831 5.11376,-20.37413 0.81173,-31.12715 12.29636,-18.68427 12.29636,13.32243 0,22.74699 -12.23742,52.54691 -23.27389,56.67536 -3.71518,1.38975 -6.76495,3.46324 -6.77732,4.60774 -0.0136,1.14449 -5.8475,8.39354 -12.96696,16.10903 -15.2453,16.52152 -23.7312,27.60952 -40.65371,53.11962 -6.85972,10.34074 -13.87318,19.68934 -15.58552,20.77464 -3.64137,2.308 -42.15783,2.3599 -48.15645,0.065 z m 49.22503,-23.75075 c 3.33298,-8.6251 1.99323,-10.86631 -7.56085,-12.64828 -4.14733,-0.77354 -15.3733,-3.35174 -24.94658,-5.72931 -18.91661,-4.69806 -25.4551,-2.83973 -22.9655,6.52716 1.8752,7.05522 7.62758,11.32673 16.54208,12.28353 4.09756,0.43979 11.35911,1.51883 16.13679,2.39787 6.60376,1.21503 9.36589,0.45019 11.519,-3.18957 2.56271,-4.33208 2.84021,-4.21258 2.9153,1.25548 0.11248,8.17894 5.05769,7.64839 8.35976,-0.89688 z M 124.25823,954.86422 C 113.1445,950.22259 101.23447,938.09799 94.068092,924.13019 89.697279,915.61115 84.537808,907.66438 82.6026,906.47073 80.667392,905.27706 76.744447,900.67446 73.884948,896.24271 71.025447,891.81096 61.420552,879.86528 52.540738,869.69676 34.706423,849.27419 26.43131,833.04671 24.388552,814.49037 c -1.170065,-10.62883 -0.882222,-11.57597 2.16979,-7.13964 7.709989,11.20703 19.544914,23.3715 26.893825,27.64267 5.35577,3.11277 8.001111,7.03782 8.566143,12.71009 0.910518,9.14051 20.565159,21.85299 30.024002,19.41929 5.994868,-1.54244 6.039092,-2.3833 -0.542713,10.31856 -6.531422,12.60463 -6.686239,15.39166 -1.412394,25.42587 5.161159,9.81979 16.272885,12.40895 30.373025,7.07729 5.8425,-2.20921 16.76496,-4.6149 24.27215,-5.34595 44.17028,-4.30138 53.91881,-17.46043 27.01688,-36.46872 -12.68208,-8.96086 -13.45307,-13.51872 -2.28679,-13.51872 5.23707,0 6.6636,-1.3975 6.6636,-6.52797 0,-4.72483 1.6966,-6.76504 6.14225,-7.38625 7.27433,-1.01648 9.63233,-10.73408 4.77258,-19.66833 -2.69894,-4.96177 -2.07456,-8.14791 3.85158,-19.65418 4.06088,-7.88468 7.07268,-18.25017 7.07268,-24.34154 0,-5.83501 1.42262,-11.07567 3.16138,-11.64592 2.24994,-0.7379 1.72634,-4.8678 -1.81615,-14.32485 -6.30325,-16.82718 -8.27197,-19.00589 -13.39443,-14.82311 -2.25003,1.83727 -5.16839,2.68532 -6.48526,1.88456 -2.96631,-1.80375 -1.25382,-17.03931 2.83951,-25.26226 2.2798,-4.57982 2.15959,-9.49971 -0.47965,-19.6316 -1.93702,-7.43611 -2.93889,-14.09377 -2.22638,-14.7948 2.66061,-2.61775 15.43924,28.49906 18.46052,44.95258 1.93885,10.55881 6.7931,23.00699 12.72307,32.62691 11.81571,19.16808 15.76812,51.34222 8.22768,66.97652 -4.31951,8.95607 -6.46737,19.05601 -15.29213,71.90888 -5.2972,31.72578 -13.37037,47.69523 -27.65666,54.70736 -9.11982,4.47629 -44.93066,8.11287 -51.76843,5.25711 z m 39.93902,-23.03321 c -0.90533,-3.32381 -1.66283,-9.97144 -1.68333,-14.7725 -0.0419,-9.79745 -7.99648,-12.07223 -17.72936,-5.07001 -4.84649,3.48674 -4.64594,4.18062 4.25554,14.72408 10.42982,12.35371 17.80637,14.8447 15.15715,5.11843 z m -31.54462,-10.81079 c -0.33766,-3.21154 -4.08196,-2.58959 -5.25503,0.87293 -0.60057,1.7727 0.38219,2.73962 2.18391,2.14872 1.80173,-0.5909 3.18373,-1.95064 3.07112,-3.02165 z m 182.50822,-33.0598 c -1.82518,-2.16377 -2.62179,-4.6196 -1.77025,-5.45741 2.10681,-2.07289 12.87922,1.46736 12.87922,4.23265 0,4.26288 -7.81911,5.12493 -11.10897,1.22476 z m -51.00961,-1.78987 c 1.33581,-3.99082 12.98062,-6.22333 12.98062,-2.48861 0,2.60485 -6.30394,5.84599 -11.3703,5.84599 -1.50376,0 -2.2284,-1.51082 -1.61032,-3.35738 z m -116.0294,-36.03439 c -1.13497,-1.7226 -0.79505,-6.41472 0.75536,-10.42693 6.81331,-17.63168 -10.46621,-21.72365 -25.38456,-6.01132 -7.24117,7.62655 -7.89338,7.79891 -14.17852,3.74706 -4.30041,-2.77234 -9.485378,-3.67711 -14.931248,-2.60548 -7.210194,1.41881 -8.343045,0.86673 -8.343045,-4.06583 0,-4.97391 1.579051,-5.70756 12.284488,-5.70756 8.825565,0 13.892845,-1.58245 17.996645,-5.62014 3.44892,-3.39336 7.81739,-5.07849 11.0255,-4.25306 3.12718,0.8046 7.26033,-0.68912 10.04543,-3.63042 4.57938,-4.83619 5.14866,-4.60473 17.63832,7.17156 15.25495,14.38365 14.942,13.21605 4.91036,18.32004 -4.55511,2.3176 -8.37438,6.68148 -8.8755,10.14114 -0.56163,3.87736 -1.62571,4.94061 -2.94323,2.94094 z m 175.16358,-21.34291 c -2.87779,-3.41166 -6.67473,-3.98115 -17.89388,-2.6838 -12.73432,1.47256 -14.42876,1.06461 -16.01608,-3.85604 -0.97632,-3.02655 -0.45584,-7.06685 1.15662,-8.97845 1.61244,-1.91159 2.12342,-4.27091 1.1355,-5.24292 -3.45008,-3.3945 11.45572,-1.54461 18.22292,2.26156 3.75359,2.11118 10.20295,3.88134 14.3319,3.93369 6.74129,0.0855 7.50719,1.05424 7.50719,9.49585 0,10.21197 -2.7262,11.84885 -8.44417,5.07011 z m 100.31019,-11.75853 c -2.18423,-10.74531 -17.00094,-17.01449 -34.39588,-14.55344 l -12.42702,1.75819 8.01792,-8.38806 c 6.16837,-6.45312 10.34191,-8.38805 18.09249,-8.38805 13.94278,0 19.68982,-6.8417 11.337,-13.49645 -8.1144,-6.46479 -7.64016,-7.99082 2.48327,-7.99082 8.53698,0 8.53698,0 7.22543,-13.42955 -0.98977,-10.13503 -0.4053,-13.42955 2.38256,-13.42955 2.90032,0 3.69411,6.92574 3.69411,32.23092 0,17.727 -0.67313,32.23091 -1.49589,32.23091 -0.82273,0 -4.46926,-3.32381 -8.10337,-7.38625 -3.74565,-4.18708 -6.64487,-5.81716 -6.69379,-3.76352 -0.0475,1.9925 3.59908,7.0099 8.1034,11.14977 7.91814,7.2775 10.72528,16.94248 5.79213,19.94222 -1.31862,0.80183 -3.12419,-2.11701 -4.01236,-6.48632 z M 91.299785,805.73332 c 1.110622,-4.8781 1.476279,-13.70391 0.812567,-19.61291 -0.910237,-8.10383 -0.426624,-10.01489 1.96824,-7.77772 4.075821,3.80744 2.675534,33.8357 -1.643143,35.23617 -2.223127,0.72091 -2.559653,-1.59984 -1.137664,-7.84554 z m 34.564265,-19.8499 c -3.92929,-8.44444 -6.56726,-15.92112 -5.86215,-16.61487 0.7051,-0.69374 4.57152,5.57429 8.59204,13.92896 4.02051,8.35467 6.65848,15.83136 5.86215,16.61486 -0.79634,0.78351 -4.66275,-5.48452 -8.59204,-13.92895 z m -97.168652,-8.34244 c -0.0093,-4.14482 -1.877148,-11.04584 -4.150883,-15.3356 -4.789166,-9.03553 -3.854674,-61.76758 1.332499,-75.19109 4.51047,-11.67233 5.591637,-7.37271 2.884475,11.47108 -1.336488,9.3029 -1.78233,18.57493 -0.990761,20.6045 0.791569,2.02957 -0.02192,8.04606 -1.807731,13.36998 -2.737893,8.16226 -2.562914,10.42353 1.116078,14.42329 2.399665,2.60888 4.363027,7.22031 4.363027,10.24762 0,3.02731 2.415781,7.16245 5.368403,9.1892 5.277168,3.62237 5.253969,3.81306 -1.364943,11.22102 l -6.733346,7.53603 -0.01682,-7.53603 z m 354.506092,-4.80372 c -3.53584,-3.6676 -8.74315,-6.68925 -11.57183,-6.71477 -17.0302,-0.15366 -37.01739,-13.73787 -33.49636,-22.76569 2.00527,-5.1415 17.49816,-8.0282 22.25231,-4.14616 2.12489,1.7351 5.13538,2.38128 6.68997,1.43597 3.55887,-2.16407 27.44139,13.7683 27.44139,18.30655 0,1.84946 -1.53556,4.89441 -3.41235,6.76656 -2.7339,2.72714 -2.47096,4.08828 1.32252,6.84605 2.60417,1.89318 3.93499,4.22913 2.95736,5.19101 -3.03683,2.98791 -5.53047,1.98097 -12.18301,-4.91952 z M 181.58585,756.35158 c 0,-4.74312 5.87678,-3.91711 7.56405,1.06317 0.59433,1.75423 -0.86446,3.18952 -3.24174,3.18952 -2.37727,0 -4.32231,-1.91371 -4.32231,-4.25269 z"
         id="path4514"
         inkscape:connector-curvature="0" />
      <path
         style="fill:#ad83e4"
         d="m 282.45785,1014.0182 c -6.13995,-1.6326 -18.66355,-21.83566 -20.45019,-32.99027 -4.10761,-25.64517 -10.66466,-52.61667 -19.47556,-80.10997 -12.68368,-39.57785 -12.21379,-57.08834 2.3238,-86.5955 5.45858,-11.07938 12.03827,-29.20927 14.62152,-40.28865 2.58326,-11.07937 6.38384,-23.40811 8.44575,-27.39719 2.06191,-3.98908 3.74892,-9.80154 3.74892,-12.91658 0,-3.11505 1.23296,-4.91399 2.73991,-3.99764 1.50695,0.91634 2.09625,4.31148 1.30958,7.54476 -0.78669,3.23328 -2.53099,14.73662 -3.87624,25.56298 -1.37368,11.05518 -4.32699,21.72937 -6.73693,24.34943 -2.36006,2.56583 -5.09857,8.81614 -6.08557,13.88958 -0.987,5.07345 -4.68693,14.9254 -8.22208,21.89323 -7.30789,14.40398 -8.19047,27.73909 -2.56913,38.81731 2.12213,4.18216 5.91233,14.85588 8.42269,23.71938 7.04016,24.85723 24.34653,57.96722 36.21927,69.29349 15.15453,14.45704 52.80935,23.53064 48.15795,11.60452 -1.6996,-4.35772 17.68813,-13.20871 26.22514,-11.97244 6.27063,0.90808 6.27063,0.90808 0.42996,7.62286 -7.98928,9.18495 -25.03751,34.30629 -25.03751,36.89395 0,1.15865 -3.12083,5.41805 -6.93519,9.46545 -6.46776,6.8628 -8.35367,7.3378 -27.98133,7.0472 -11.57538,-0.1713 -22.94901,-0.8175 -25.27476,-1.4359 z m 50.34461,-21.30242 c 4.45851,-11.4315 2.23834,-13.37242 -22.22949,-19.43342 -36.95897,-9.15522 -42.01217,-7.99767 -34.00275,7.78914 4.40644,8.68521 5.75588,9.34149 25.13062,12.22196 28.38642,4.22026 29.23648,4.20447 31.10162,-0.57768 z M 122.66597,953.40386 C 109.66211,945.53133 102.13119,937.82811 97.509747,927.67209 94.816062,921.75246 88.5898,912.25919 83.673613,906.57591 43.537824,860.17768 34.388727,847.58663 28.936998,831.24705 c -3.126505,-9.37056 -5.684555,-18.22067 -5.684555,-19.6669 0,-4.9694 4.586478,-2.62286 7.602287,3.88949 1.660389,3.58546 8.507383,10.53525 15.215541,15.44399 8.648957,6.32892 12.701317,11.47831 13.931644,17.70311 1.989885,10.06774 20.366349,23.49322 29.08607,21.2497 6.183613,-1.59101 6.169832,-1.69389 1.06349,7.93936 -7.601911,14.34119 -4.231512,27.47556 8.770445,34.17825 6.40777,3.30329 9.08088,3.14761 22.19782,-1.29257 8.20202,-2.77645 16.6655,-5.04809 18.80772,-5.04809 7.02815,0 1.81124,6.68268 -6.3065,8.07844 -10.43709,1.79451 -11.69415,9.324 -2.89602,17.34649 5.84123,5.32627 7.42752,5.72324 10.11908,2.53236 2.52245,-2.99041 2.26297,-3.7841 -1.23715,-3.7841 -4.75977,0 -5.9981,-4.10071 -1.97675,-6.54602 1.34879,-0.82017 6.45024,2.18322 11.33656,6.67419 9.70707,8.92171 17.90122,9.45459 17.09668,1.11189 -2.52365,-26.16906 -2.49724,-26.29724 5.87144,-28.49931 4.37819,-1.15204 9.03049,-3.97605 10.33842,-6.27554 1.30794,-2.29951 3.3997,-3.5597 4.64835,-2.80042 1.24865,0.75927 1.2817,-2.93211 0.0734,-8.20307 -1.96338,-8.56515 -8.87274,-16.91967 -14.18524,-17.15222 -1.07326,-0.047 -3.25304,-2.47843 -4.84396,-5.40321 -2.66861,-4.90601 -2.22023,-5.18549 5.79027,-3.6092 8.50028,1.67268 8.64736,1.53399 6.99488,-6.59534 -1.45068,-7.13652 -0.83902,-8.42272 4.35075,-9.14888 5.35966,-0.74992 6.06634,-2.50616 6.28415,-15.61744 0.14099,-8.4879 2.58806,-19.97613 5.75203,-27.00409 8.05897,-17.90094 10.04151,-34.96662 5.32706,-45.85508 -2.15779,-4.98359 -5.26461,-12.40546 -6.90405,-16.49304 -2.62837,-6.55327 -3.61605,-7.04163 -8.35377,-4.13054 -8.07005,4.95863 -9.11781,1.55438 -4.41763,-14.35322 3.17174,-10.73464 3.57271,-16.75291 1.57319,-23.61251 -1.47591,-5.0633 -2.17595,-9.70534 -1.55566,-10.31565 2.6816,-2.63839 11.99348,21.08995 14.96714,38.13894 2.28025,13.07346 6.04517,22.7398 12.6975,32.60051 11.75093,17.41833 16.04036,50.29343 8.44713,64.74057 -2.38577,4.53923 -5.58832,15.36424 -7.1168,24.05557 -1.52846,8.69133 -5.0708,29.09766 -7.87185,45.34742 -6.13312,35.58006 -12.49035,48.95618 -27.10932,57.04015 -13.38798,7.40326 -45.60207,10.67067 -54.15485,5.49282 z m 252.7418,-10.63591 c 0,-4.86555 5.43286,-10.26546 10.32806,-10.26546 5.21111,0 2.88707,5.45159 -4.33544,10.1699 -5.13508,3.35465 -5.99262,3.36832 -5.99262,0.0956 z m 16.46613,-15.7954 c -0.0478,-2.30285 -1.76545,-6.44567 -3.81709,-9.20628 -3.61765,-4.8677 -3.95856,-4.84264 -11.2877,0.8296 -9.36654,7.24903 -16.4533,7.35225 -32.75503,0.47707 -7.00544,-2.9545 -15.41845,-5.37182 -18.69566,-5.37182 -7.38671,0 -24.28695,-8.69056 -25.84533,-13.29036 -1.76959,-5.22329 21.44872,-0.70366 28.33761,5.51613 6.33629,5.72085 16.47358,6.33319 40.57078,2.45065 11.10818,-1.78973 17.26967,-1.7149 19.6623,0.23878 4.68116,3.82242 12.81472,-3.98898 17.07899,-16.4025 1.77609,-5.17038 6.0986,-13.66932 9.60554,-18.88653 5.05966,-7.52713 6.26373,-12.65725 5.8312,-24.84466 -0.59096,-16.65232 1.31395,-19.23685 6.2779,-8.51767 5.59801,12.08837 3.88168,37.1252 -3.65663,53.34011 -3.75359,8.07398 -6.82472,15.92358 -6.82472,17.44351 0,2.52572 -8.43223,8.32436 -12.10502,8.32436 -0.84943,0 -1.54441,-1.81299 -1.54441,-4.02886 0,-2.21588 -1.31122,-4.02887 -2.91385,-4.02887 -1.60261,0 -2.21107,2.17857 -1.35214,4.84125 0.85893,2.66267 -0.2476,7.19514 -2.45911,10.07216 -3.20871,4.17441 -4.03835,4.38526 -4.10763,1.04393 z m -54.68454,-33.58757 c 0,-6.14709 0.94905,-6.79604 8.83809,-6.0433 l 8.83809,0.8433 0.53093,-28.95147 c 0.53842,-29.3582 3.6942,-44.76091 10.27115,-50.13137 2.99607,-2.44645 3.38369,2.1492 2.21953,26.31477 -1.05663,21.93393 -0.38671,32.23503 2.67049,41.06291 4.40677,12.7248 2.40745,23.79175 -4.2981,23.79175 -2.12544,0 -4.50691,-2.41732 -5.29219,-5.37182 -0.78528,-2.9545 -2.728,-5.37182 -4.31718,-5.37182 -1.58917,0 -4.20429,2.41732 -5.81138,5.37182 -4.38774,8.06649 -13.64943,7.03864 -13.64943,-1.51477 z m -21.83909,-6.54296 c 0,-1.47725 1.84268,-2.68591 4.09483,-2.68591 2.25216,0 4.09483,1.20866 4.09483,2.68591 0,1.47725 -1.84267,2.68591 -4.09483,2.68591 -2.25215,0 -4.09483,-1.20866 -4.09483,-2.68591 z m -49.13795,-2.68591 c 0,-1.47725 1.84267,-2.68591 4.09483,-2.68591 2.25215,0 4.09483,1.20866 4.09483,2.68591 0,1.47725 -1.84268,2.68591 -4.09483,2.68591 -2.25216,0 -4.09483,-1.20866 -4.09483,-2.68591 z m 124.20982,-43.62683 c -4.50431,-1.52169 -9.72522,-3.16817 -11.60201,-3.65883 -1.8768,-0.49067 -3.41236,-2.58949 -3.41236,-4.66404 0,-2.75743 3.31681,-3.63442 12.33199,-3.26066 13.54919,0.56173 19.30562,4.23662 16.77998,10.71231 -1.83994,4.71758 -2.57731,4.76315 -14.0976,0.87122 z m -283.36732,-6.68147 c -4.03315,-3.96818 -5.56293,-4.13231 -10.461425,-1.12243 -3.805658,2.33838 -6.652031,2.62559 -8.453644,0.853 -4.203326,-4.13561 -0.214569,-7.9262 6.927105,-6.58298 3.535099,0.66489 11.085134,-0.70586 16.777854,-3.04611 16.36469,-6.72746 18.56792,-5.87044 13.22869,5.14567 -5.01262,10.34225 -10.78905,11.86592 -18.01858,4.75285 z m 26.6628,-11.6192 c -2.08805,-3.3241 3.12468,-7.79622 9.16751,-7.86502 5.14575,-0.0586 2.69631,9.12511 -2.70687,10.1489 -2.47029,0.46807 -5.37757,-0.55967 -6.46064,-2.28388 z m 290.8281,-5.06173 c 0,-3.04168 1.22845,-5.53033 2.72989,-5.53033 1.50144,0 2.72988,1.74166 2.72988,3.87035 0,2.12869 -1.22844,4.61734 -2.72988,5.53033 -1.50144,0.913 -2.72989,-0.82866 -2.72989,-3.87035 z m -122.84488,-2.93892 c 0,-4.63402 0.83131,-5.02858 5.45977,-2.59141 3.00288,1.5812 5.45978,4.04105 5.45978,5.46632 0,1.42528 -2.4569,2.59141 -5.45978,2.59141 -3.67131,0 -5.45977,-1.79061 -5.45977,-5.46632 z m -27.98133,-13.55019 c -4.97356,-2.85016 -6.70078,-13.21441 -2.20221,-13.21441 1.4163,0 4.48742,2.68626 6.82471,5.96945 6.95972,9.77632 5.04138,12.78298 -4.6225,7.24496 z m 131.71701,0.17878 c -2.25216,-1.45201 -7.47307,-1.9418 -11.60202,-1.08842 -7.96594,1.64642 -10.48789,-2.54694 -3.18908,-5.30263 8.18155,-3.08898 16.6873,-1.61671 21.61581,3.7415 5.43379,5.90754 0.93665,7.65345 -6.82471,2.64955 z m 17.58366,-6.12164 c -0.7448,-1.90965 -0.21539,-8.25511 1.17642,-14.10103 1.3918,-5.84591 2.65396,-8.06053 2.80479,-4.92137 0.15096,3.13915 1.042,9.48461 1.9804,14.10102 1.70618,8.39348 -3.06973,12.33605 -5.96161,4.92138 z M 26.646998,766.01839 c -4.099765,-12.92452 -4.358883,-19.74709 -0.664669,-17.50072 1.501438,0.91299 2.729887,4.72346 2.729887,8.4677 0,4.54885 1.811601,7.27383 5.459772,8.21248 6.268037,1.61272 6.82569,3.73178 2.183909,8.29878 -4.986977,4.90664 -6.036813,4.09801 -9.708899,-7.47824 z M 354.93362,752.54654 c -0.95292,-1.51703 1.28289,-2.68591 5.13757,-2.68591 3.75359,0 7.58392,1.20866 8.51186,2.68591 0.95293,1.51702 -1.28288,2.68591 -5.13756,2.68591 -3.75359,0 -7.58392,-1.20866 -8.51187,-2.68591 z m 69.6121,-6.87329 c 0,-3.89824 1.18161,-6.15478 2.72989,-5.21331 1.50144,0.913 2.72988,4.00597 2.72988,6.87329 0,2.86732 -1.22844,5.21331 -2.72988,5.21331 -1.50144,0 -2.72989,-3.09298 -2.72989,-6.87329 z"
         id="path4512"
         inkscape:connector-curvature="0" />
      <path
         style="fill:#a577e2"
         d="m 282.59164,1013.0798 c -3.7536,-1.1828 -5.67355,-2.271 -4.26657,-2.4182 1.40699,-0.1472 -0.60479,-3.5915 -4.47061,-7.654 -7.96253,-8.3675 -9.69831,-12.90282 -11.86023,-30.98907 -0.8401,-7.02816 -3.30584,-17.73775 -5.4794,-23.79906 -2.17357,-6.0613 -3.95194,-13.43498 -3.95194,-16.38599 0,-2.95098 -4.15762,-17.60509 -9.23916,-32.56469 -12.41038,-36.53509 -11.71205,-57.77651 2.75053,-83.66408 5.34576,-9.56874 10.13529,-17.39771 10.64342,-17.39771 1.5405,0 -3.26499,14.02567 -9.31568,27.18945 -8.86968,19.29672 -7.87403,27.12929 8.33963,65.60646 18.33594,43.51361 26.4192,57.2205 40.97157,69.47612 12.19765,10.27256 10.25575,11.74156 -7.29685,5.51987 -20.67486,-7.3284 -26.03968,-3.83438 -17.97974,11.70989 6.75795,13.0333 12.50916,16.56962 26.94753,16.56962 5.88039,0 14.66637,1.36329 19.52439,3.02952 10.96778,3.76177 16.79369,-0.81195 17.84914,-14.01279 0.59626,-7.45751 2.50426,-9.72429 11.98994,-14.24446 6.20445,-2.95657 11.28084,-6.41747 11.28084,-7.69086 0,-1.27339 -1.22845,-1.56827 -2.72988,-0.65528 -1.50144,0.913 -2.72989,0.38 -2.72989,-1.18443 0,-1.56444 3.07112,-2.84443 6.82471,-2.84443 7.054,0 9.09192,3.67615 3.8163,6.88414 -1.65463,1.00615 -4.77926,5.60996 -6.9436,10.23069 -3.49772,7.46736 -13.26102,22.43239 -19.49955,29.88859 -1.23601,1.4772 -2.38081,3.7594 -2.54401,5.0715 -0.84208,6.7701 -35.76732,9.6428 -52.63089,4.3292 z M 118.37289,948.73145 c -14.51657,-9.52837 -19.775193,-16.42922 -22.338434,-29.31455 -1.561896,-7.85159 -1.256075,-8.61124 2.298305,-5.70888 3.923439,3.2037 12.632139,2.65161 24.560529,-1.55707 4.48586,-1.58273 4.85108,-1.28091 2.04742,1.69204 -5.13044,5.44023 -4.13287,11.68532 2.90583,18.19132 6.62343,6.12215 14.095,7.59701 16.78573,3.31347 0.91217,-1.45216 5.10133,-0.59555 9.8512,2.01443 7.91648,4.34994 8.43823,4.31497 12.40212,-0.83086 3.73215,-4.845 4.04383,-14.57533 0.8052,-25.13783 -0.7017,-2.28853 2.93019,-5.07024 9.73427,-7.45565 15.36078,-5.38525 15.53602,-5.8042 12.05622,-28.82383 -2.72005,-17.99373 -2.57544,-21.17891 1.08885,-23.98355 2.48995,-1.9058 5.46207,-11.32666 7.23621,-22.93695 1.65591,-10.83654 4.82129,-23.96624 7.03418,-29.17711 5.48148,-12.9077 5.66664,-29.65831 0.46173,-41.76955 -5.85473,-13.62327 -4.1406,-12.6697 6.47015,3.59935 10.4572,16.03361 12.27819,41.67929 4.65534,65.56282 -4.77973,14.97559 -12.66197,56.10911 -14.9722,78.13253 -1.78955,17.05969 -14.13352,37.30554 -27.01852,44.31415 -4.68258,2.54702 -16.35284,5.43811 -25.93392,6.42464 -16.40191,1.68885 -18.16307,1.30605 -30.13021,-6.54892 z m 259.76477,-9.51419 c 0,-2.21587 1.99309,-4.02886 4.42907,-4.02886 3.62748,0 3.81401,0.7292 1.0307,4.02886 -1.86913,2.21588 -3.86222,4.02887 -4.42908,4.02887 -0.56689,0 -1.03069,-1.81299 -1.03069,-4.02887 z m 12.57655,-19.02105 c -2.36585,-6.06596 -2.14001,-6.50884 2.43782,-4.78049 2.25216,0.85034 4.09483,3.2297 4.09483,5.28754 0,5.08856 -4.48605,4.74039 -6.53265,-0.50705 z m -41.24036,-2.12297 c -8.18966,-3.44333 -8.18966,-3.44333 5.15831,-5.25068 18.61182,-2.52008 20.77561,-2.31864 20.77561,1.93415 0,7.29592 -12.62826,8.91085 -25.93392,3.31653 z m 55.96267,-10.83979 c 0,-5.3553 3.96469,-16.37605 9.5546,-26.55913 6.32561,-11.52333 9.68083,-21.36467 9.9281,-29.12063 0.32472,-10.18465 0.66369,-9.43435 2.59465,5.74333 1.93055,15.17428 1.3816,19.56683 -4.19581,33.57387 -3.52933,8.8635 -7.11525,18.23061 -7.96875,20.8158 -2.86281,8.6714 -9.91279,5.50426 -9.91279,-4.45324 z m -92.81613,0.45977 c -6.82472,-2.98149 -6.82472,-2.98149 -0.48393,-4.07103 7.62252,-1.30976 14.13336,0.81985 14.13336,4.62283 0,3.48416 -4.86084,3.28766 -13.64943,-0.5518 z M 76.503586,897.62061 C 74.184417,893.20806 68.691719,885.65394 64.297596,880.83366 44.890171,859.54405 34.71404,845.49541 31.822732,836.00055 c -4.493855,-14.75752 -3.92002,-18.75655 1.727486,-12.03877 2.594129,3.08574 8.764377,8.34361 13.711662,11.68413 5.50222,3.71524 9.62259,9.16077 10.61112,14.02381 2.04243,10.04764 15.753507,23.74275 23.770427,23.74275 5.657853,0 6.090693,1.17472 5.932253,16.09995 -0.192675,18.15126 -4.236966,21.11293 -11.072094,8.10819 z m 261.723134,-1.24927 c -2.95172,-7.56819 2.4926,-11.49831 9.70666,-7.00699 3.24812,2.02222 3.30774,3.16506 0.34819,6.67364 -4.45517,5.2817 -8.07806,5.40179 -10.05485,0.33335 z m 24.02469,-2.82239 c -5.02703,-10.85541 -6.84511,-41.39564 -3.50979,-58.95782 4.63046,-24.38177 7.64655,-23.05803 6.26971,2.75172 -0.92664,17.37022 -0.008,27.12182 3.68384,39.11983 4.36288,14.17754 4.45769,16.43494 0.83974,19.9946 -3.61797,3.55969 -4.44027,3.23134 -7.2835,-2.90833 z M 109.08315,834.6476 c -6.58808,-4.7841 -3.26093,-8.7739 9.39316,-11.26395 l 9.06182,-1.78317 -4.43994,8.44758 c -5.01007,9.53234 -6.53363,10.03235 -14.01504,4.59954 z m 26.09463,-14.95332 c 0,-1.47725 1.84267,-2.68591 4.09483,-2.68591 2.25215,0 4.09483,1.20866 4.09483,2.68591 0,1.47725 -1.84268,2.68591 -4.09483,2.68591 -2.25216,0 -4.09483,-1.20866 -4.09483,-2.68591 z m 135.42144,-23.04991 c -2.32361,-5.95768 -2.14607,-6.4951 2.14575,-6.4951 3.17276,0 7.11678,5.33146 7.11678,9.62036 0,3.17359 -7.83721,0.52925 -9.26253,-3.12526 z m -11.34743,-14.55283 c 1.78434,-13.05679 7.39588,-30.86865 10.7713,-34.18969 1.15104,-1.13249 1.44949,0.96009 0.66324,4.65019 -0.78626,3.6901 -2.16049,11.19069 -3.05385,16.66798 -0.89336,5.47729 -3.51613,13.33358 -5.82837,17.45841 -4.19209,7.47832 -4.19937,7.46524 -2.55232,-4.58689 z M 30.53214,772.24321 c -4.572041,-4.49839 -1.805242,-9.1343 3.716307,-6.22686 3.044929,1.60334 4.815101,4.06319 3.933719,5.46632 -1.871569,2.97947 -5.071429,3.2976 -7.650026,0.76054 z M 179.36781,733.5773 c 0.65688,-1.93889 2.80667,-4.05405 4.7773,-4.70034 2.04742,-0.67148 3.07113,0.33574 2.38865,2.35017 -0.65687,1.93889 -2.80666,4.05404 -4.7773,4.70034 -2.04741,0.67148 -3.07112,-0.33574 -2.38865,-2.35017 z m 12.29544,-4.53018 c -1.2139,-1.84531 -2.61559,-9.70159 -3.11486,-17.45842 -0.90777,-14.10331 -0.90777,-14.10331 3.037,-5.03746 4.09345,9.40753 4.16022,28.70167 0.0779,22.49588 z"
         id="path4510"
         inkscape:connector-curvature="0" />
      <path
         style="fill:#9d6ce0"
         d="m 282.59164,1013.0798 c -3.7536,-1.1828 -5.35841,-2.271 -3.56625,-2.4182 1.79218,-0.1472 -0.35762,-4.1631 -4.7773,-8.924 -4.41967,-4.761 -8.03577,-10.70546 -8.03577,-13.20991 0,-2.50448 -0.68301,-6.76758 -1.51781,-9.47358 -0.83479,-2.70603 1.55718,0.64983 5.31549,7.45743 6.83329,12.37742 6.83329,12.37742 20.83733,11.05349 8.10179,-0.76595 18.66399,0.18908 25.06049,2.26623 10.45795,3.39584 11.33318,3.25394 16.16898,-2.62185 2.81192,-3.41661 5.11256,-9.48024 5.11256,-13.47472 0,-5.66905 2.11692,-8.25595 9.64723,-11.78905 5.30597,-2.48947 10.18119,-4.52633 10.83385,-4.52633 2.61575,0 -2.92556,10.26421 -14.13783,26.18762 -6.50117,9.23277 -10.89509,16.80547 -9.76426,16.82807 1.13086,0.022 0.21348,1.2128 -2.03876,2.6448 -4.84588,3.0812 -39.35939,3.0812 -49.13795,0 z m -9.47104,-61.68508 c -2.6716,-2.90454 -7.43696,-5.0197 -10.5897,-4.70034 -4.93468,0.49982 -5.98212,-1.28792 -7.52817,-12.84894 -0.98776,-7.38625 -5.16237,-22.49449 -9.27691,-33.57387 -4.11454,-11.07938 -7.94408,-23.7703 -8.51008,-28.20205 -0.81292,-6.36508 -0.29423,-5.80086 2.46919,2.68591 1.92405,5.909 5.13175,10.74364 7.12821,10.74364 1.99646,0 8.85201,11.67541 15.23457,25.94538 6.38255,14.26994 14.33039,30.28468 17.66187,35.5883 6.82216,10.86064 2.20191,13.9193 -6.58898,4.36197 z m -149.54484,-0.22768 c -6.50117,-3.83218 -6.00016,-6.46144 1.36495,-7.16322 3.37823,-0.3219 14.38469,-1.3661 24.45879,-2.32044 22.13736,-2.0971 29.26408,-8.89831 24.22555,-23.11904 -3.3103,-9.34294 -1.95971,-12.92095 4.87727,-12.92095 9.61071,0 16.905,-10.07119 15.1609,-20.9326 -0.93724,-5.8367 0.0732,-14.95574 2.44246,-22.04195 2.22259,-6.64763 4.89275,-18.0824 5.93369,-25.4106 1.04094,-7.32821 4.37596,-19.85442 7.41116,-27.83603 3.95172,-10.39177 5.17008,-18.64636 4.29121,-29.0736 -0.67653,-8.02669 -0.18304,-13.53411 1.09962,-12.2721 4.95796,4.87808 5.93975,44.65412 1.31919,53.44536 -2.40137,4.56892 -4.96183,14.18527 -5.68991,21.36966 -0.72808,7.18439 -2.60584,17.26644 -4.17281,22.40455 -1.56697,5.13811 -3.62997,18.55528 -4.58445,29.81594 -2.22762,26.28082 -11.65624,44.41238 -27.13409,52.17973 -12.09623,6.07035 -43.26237,8.43838 -51.00353,3.87529 z m -21.7424,-20.19984 c -2.568831,-5.54716 -2.448596,-7.36321 0.61065,-9.22347 5.54674,-3.37286 8.16479,-0.73344 8.16479,8.23137 0,9.74145 -4.4887,10.2489 -8.77544,0.9921 z m 258.56003,-14.58017 c 0.92795,-1.47725 3.52983,-2.68591 5.78199,-2.68591 2.25215,0 3.33562,1.20866 2.40767,2.68591 -0.92794,1.47725 -3.52982,2.68591 -5.78198,2.68591 -2.25215,0 -3.33562,-1.20866 -2.40768,-2.68591 z m 47.77301,-8.74293 c 0,-5.19777 1.88409,-10.93915 4.21413,-12.84176 2.31776,-1.89259 6.57247,-8.38604 9.45491,-14.4299 3.3805,-7.08819 5.25489,-9.08202 5.28052,-5.61701 0.0218,2.9545 -2.39017,10.64061 -5.36007,17.08025 -2.9699,6.43964 -5.39983,13.24144 -5.39983,15.1151 0,1.87367 -1.84267,4.91132 -4.09483,6.75034 -3.50719,2.86382 -4.09483,1.99461 -4.09483,-6.05702 z m -68.24715,-14.0873 c 0,-2.46209 1.32058,-4.04342 2.93463,-3.51407 1.61404,0.52935 2.93462,2.11068 2.93462,3.51407 0,1.40339 -1.32058,2.98471 -2.93462,3.51405 -1.61405,0.52937 -2.93463,-1.05196 -2.93463,-3.51405 z m 24.3472,-0.67148 c -0.12203,-1.10794 -0.7552,-5.03608 -1.40712,-8.72921 -0.65195,-3.69312 -1.69321,-13.96673 -2.31391,-22.83023 -1.12856,-16.11546 -1.12856,-16.11546 1.11483,-2.68591 1.23386,7.38625 3.60337,16.83205 5.26557,20.99065 3.7548,9.39401 3.86724,15.26913 0.29229,15.26913 -1.50144,0 -2.82969,-0.90649 -2.95166,-2.01443 z M 109.69884,834.01913 c -3.21018,-3.15846 -1.97535,-5.33519 4.73243,-8.34222 7.95409,-3.56575 10.57179,-1.62695 6.90498,5.11416 -2.74157,5.04015 -8.24428,6.56653 -11.63741,3.22806 z"
         id="path4508"
         inkscape:connector-curvature="0" />
    </g>
  </g>
</svg>
