<?xml version="1.0" encoding="UTF-8" standalone="no"?>
<!-- Created with Inkscape (http://www.inkscape.org/) -->

<svg
   xmlns:dc="http://purl.org/dc/elements/1.1/"
   xmlns:cc="http://creativecommons.org/ns#"
   xmlns:rdf="http://www.w3.org/1999/02/22-rdf-syntax-ns#"
   xmlns:svg="http://www.w3.org/2000/svg"
   xmlns="http://www.w3.org/2000/svg"
   xmlns:xlink="http://www.w3.org/1999/xlink"
   xmlns:sodipodi="http://sodipodi.sourceforge.net/DTD/sodipodi-0.dtd"
   xmlns:inkscape="http://www.inkscape.org/namespaces/inkscape"
   width="150"
   height="150"
   id="svg2"
   version="1.1"
   inkscape:version="0.48.3.1 r9886"
   sodipodi:docname="New document 1">
  <defs
     id="defs4" />
  <sodipodi:namedview
     id="base"
     pagecolor="#ffffff"
     bordercolor="#666666"
     borderopacity="1.0"
     inkscape:pageopacity="0.0"
     inkscape:pageshadow="2"
     inkscape:zoom="3.959798"
     inkscape:cx="41.778643"
     inkscape:cy="69.750629"
     inkscape:document-units="px"
     inkscape:current-layer="layer1"
     showgrid="false"
     inkscape:window-width="1366"
     inkscape:window-height="718"
     inkscape:window-x="0"
     inkscape:window-y="0"
     inkscape:window-maximized="1" />
  <metadata
     id="metadata7">
    <rdf:RDF>
      <cc:Work
         rdf:about="">
        <dc:format>image/svg+xml</dc:format>
        <dc:type
           rdf:resource="http://purl.org/dc/dcmitype/StillImage" />
        <dc:title></dc:title>
      </cc:Work>
    </rdf:RDF>
  </metadata>
  <g
     inkscape:label="Layer 1"
     inkscape:groupmode="layer"
     id="layer1"
     transform="translate(0,-902.3622)">
    <image
       y="926.82281"
       x="22.05459"
       id="image3909"
       xlink:href="file:///home/martin/websites/feats/public_html/img/home.png"
       height="94"
       width="116" />
    <g
       id="g3912">
      <path
         style="fill:#c9b4e5"
         d="m 43.817161,1019.2574 c -5.146067,-2.7922 -5.762571,-5.5615 -5.762571,-25.88493 0,-16.48593 0.198623,-18.74436 1.785303,-20.29966 6.798238,-6.66381 37.564514,-28.58333 40.119607,-28.58333 2.788375,0 7.295916,3.1469 33.09509,23.10505 l 7.5,5.80198 0.28371,19.46315 c 0.15604,10.70474 0.0315,20.48964 -0.27684,21.74414 -1.12798,4.5901 -5.88976,6.2112 -18.25687,6.2153 l -11.25,0 0,-14.0454 c 0,-13.57917 -0.0815,-14.12699 -2.454545,-16.50005 -2.13291,-2.1329 -3.345,-2.45037 -9.25,-2.42274 -11.001127,0.0515 -12.295455,2.28441 -12.295455,21.21159 l 0,11.7566 -10.25,-0.04 c -7.10553,-0.028 -11.089782,-0.4957 -12.987429,-1.5254 z M 22.985023,971.23899 c -0.927185,-1.11719 -1.018691,-2.07472 -0.310585,-3.25 1.408645,-2.33801 48.145946,-37.80275 52.252276,-39.64957 6.057565,-2.72438 9.239201,-1.67844 19.627876,6.45257 8.33589,6.52433 8.43709,6.56565 10.13662,4.13923 1.23395,-1.76172 2.5034,-2.10841 7.72008,-2.10841 7.9787,0 8.6433,0.74036 8.6433,9.62857 0,8.08825 -0.1619,7.82151 9.04968,14.90966 6.88425,5.29731 8.66874,7.8912 6.89727,10.02569 -0.65551,0.78984 -1.90529,1.43608 -2.77729,1.43608 -0.87199,0 -12.86201,-8.52387 -26.64448,-18.94195 -13.782466,-10.41806 -25.802317,-19.22717 -26.710779,-19.57578 -1.150703,-0.44156 -9.557395,5.30434 -27.713511,18.94195 -14.333969,10.76668 -26.690466,19.57578 -27.458881,19.57578 -0.768416,0 -1.988625,-0.71272 -2.711576,-1.58382 z"
         id="path3918"
         inkscape:connector-curvature="0" />
      <path
         style="fill:#a783d4"
         d="m 43.45459,1017.4228 -3.4,-3.4 0,-19.85553 0,-19.85553 18.634838,-14.24447 c 13.30099,-10.16727 19.383376,-14.23079 21.25,-14.1967 1.787706,0.0326 8.468695,4.5472 21.115162,14.26818 l 18.5,14.22041 0.29451,16.98183 c 0.3513,20.25571 -0.0202,22.79231 -3.89222,26.57731 -2.89678,2.8317 -3.23355,2.9045 -13.43677,2.9045 l -10.46552,0 0,-14.8257 c 0,-14.57151 -0.04341,-14.86644 -2.532306,-17.20464 -3.336055,-3.13406 -13.556298,-4.00943 -18.281686,-1.56584 -4.907558,2.5378 -5.367222,4.34246 -5.010317,19.67068 l 0.324309,13.9283 -9.85,-0 c -9.85,-0 -9.85,-0 -13.25,-3.4014 z M 22.695819,970.33025 c -0.702379,-1.83037 -3.04702,0.10725 26.858771,-22.19616 13.75,-10.25459 25.24737,-19.01292 25.549711,-19.46294 0.302341,-0.45002 1.877341,-1.07187 3.5,-1.38188 2.547322,-0.48667 4.432499,0.56574 13.80217,7.70514 l 10.851879,8.26879 1.98153,-2.72019 c 1.7321,-2.3778 2.6589,-2.7202 7.36293,-2.7202 6.64947,0 7.45178,1.16274 7.45178,10.79941 l 0,6.93089 8.45763,6.38485 c 8.05515,6.08102 10.54387,9.55152 6.84944,9.55152 -0.93112,0 -13.34865,-8.73045 -27.59453,-19.40099 -14.245867,-10.67055 -26.489879,-19.62674 -27.208911,-19.90266 -0.719031,-0.27592 -13.323783,8.52953 -28.010561,19.56765 -14.686777,11.03813 -27.282799,20.06933 -27.991161,20.06933 -0.708361,0 -1.545666,-0.67165 -1.860678,-1.49256 z"
         id="path3916"
         inkscape:connector-curvature="0" />
      <path
         style="fill:#9f79d1"
         d="m 92.05459,1019.8228 c 0,-0.55 0.45,-1 1,-1 0.597963,0 1.084789,-4.7239 1.210897,-11.75 l 0.210898,-11.74999 0.330684,10.49999 c 0.346045,10.9877 -0.127812,15 -1.771531,15 -0.539521,0 -0.980948,-0.45 -0.980948,-1 z m -50.557887,-26.47916 0.05789,-18.97918 17.93718,-13.77082 c 17.790728,-13.65839 21.016892,-15.33849 23.56282,-12.27083 1.054051,1.27005 0.83288,1.5 -1.442752,1.5 -2.180333,0 -29.918725,19.81604 -38.057248,27.18773 -0.55,0.49818 -1.251049,8.64724 -1.557887,18.10902 l -0.557886,17.20324 0.05789,-18.97916 z m -18.4268,-23.27083 c -0.0084,-1.2375 0.322187,-2.14615 0.734687,-2.01922 0.796438,0.24506 48.018502,-34.99928 51.328186,-38.30897 2.814411,-2.81441 8.588481,-3.09799 8.588481,-0.42181 0,0.95805 -0.962736,1.5 -2.664623,1.5 -1.905903,0 -9.902303,5.43828 -28.083333,19.09922 -13.980291,10.50457 -26.093711,19.35925 -26.918711,19.67706 -0.825,0.31781 -1.830609,1.06066 -2.234687,1.65078 -0.414222,0.60493 -0.741367,0.0915 -0.75,-1.17706 z m 79.984687,-25.25 c 0,-0.55 0.46114,-1 1.02475,-1 0.56361,0 1.46145,-1.14859 1.99518,-2.55243 0.89168,-2.34529 1.39049,-2.52788 6.14665,-2.25 6.71999,0.39263 7.96851,2.80243 1.45194,2.80243 -3.5247,0 -4.78901,0.45005 -5.61852,2 -1.09032,2.03728 -5,2.81921 -5,1 z"
         id="path3914"
         inkscape:connector-curvature="0" />
    </g>
  </g>
</svg>
