<?xml version="1.0" encoding="UTF-8" standalone="no"?>
<!-- Created with Inkscape (http://www.inkscape.org/) -->

<svg
   xmlns:dc="http://purl.org/dc/elements/1.1/"
   xmlns:cc="http://creativecommons.org/ns#"
   xmlns:rdf="http://www.w3.org/1999/02/22-rdf-syntax-ns#"
   xmlns:svg="http://www.w3.org/2000/svg"
   xmlns="http://www.w3.org/2000/svg"
   xmlns:xlink="http://www.w3.org/1999/xlink"
   xmlns:sodipodi="http://sodipodi.sourceforge.net/DTD/sodipodi-0.dtd"
   xmlns:inkscape="http://www.inkscape.org/namespaces/inkscape"
   width="744.09448819"
   height="1052.3622047"
   id="svg2"
   version="1.1"
   inkscape:version="0.48.3.1 r9886"
   sodipodi:docname="New document 1">
  <defs
     id="defs4" />
  <sodipodi:namedview
     id="base"
     pagecolor="#ffffff"
     bordercolor="#666666"
     borderopacity="1.0"
     inkscape:pageopacity="0.0"
     inkscape:pageshadow="2"
     inkscape:zoom="1.979899"
     inkscape:cx="329.47814"
     inkscape:cy="521.23767"
     inkscape:document-units="px"
     inkscape:current-layer="layer1"
     showgrid="false"
     inkscape:window-width="1366"
     inkscape:window-height="718"
     inkscape:window-x="0"
     inkscape:window-y="0"
     inkscape:window-maximized="1" />
  <metadata
     id="metadata7">
    <rdf:RDF>
      <cc:Work
         rdf:about="">
        <dc:format>image/svg+xml</dc:format>
        <dc:type
           rdf:resource="http://purl.org/dc/dcmitype/StillImage" />
        <dc:title></dc:title>
      </cc:Work>
    </rdf:RDF>
  </metadata>
  <g
     inkscape:label="Layer 1"
     inkscape:groupmode="layer"
     id="layer1">
    <image
       y="412.2193"
       x="369.07144"
       id="image3079"
       xlink:href="file:///home/martin/websites/feats/public_html/img/social.png"
       height="206"
       width="39" />
    <g
       id="g3100">
      <path
         style="fill:#f3f2f3"
         d="m 369.07144,515.2193 0,-103 19.5,0 19.5,0 0,103 0,103 -19.5,0 -19.5,0 0,-103 z"
         id="path3116"
         inkscape:connector-curvature="0" />
      <path
         style="fill:#9dd3e5"
         d="m 373.17804,616.30635 c -0.86964,-0.55068 -1.16728,-1.747 -0.79185,-3.18266 0.33085,-1.26517 0.13968,-2.85684 -0.42483,-3.53703 -0.56451,-0.68019 -0.88318,-2.72861 -0.70815,-4.55204 0.26605,-2.77166 0.76603,-3.3669 3.04898,-3.62988 2.62694,-0.30261 2.672,-0.40423 1.1853,-2.67322 -1.69561,-2.58783 -2.10123,-6.77803 -0.99387,-10.26703 0.53164,-1.67505 0.31458,-2.24519 -0.85479,-2.24519 -2.00331,0 -2.00164,-1.4229 0.004,-3.42857 1.28401,-1.28402 4.22243,-1.57143 16.06574,-1.57143 8.07895,0 15.35044,0.45819 16.42857,1.03518 1.34099,0.71768 1.93426,2.0979 1.93426,4.5 0,3.06249 -0.30117,3.46482 -2.59362,3.46482 -1.75261,0 -2.76321,-0.64852 -3.11663,-2 -0.66213,-2.532 -2.28975,-2.61491 -2.28975,-0.11663 0,1.09901 -0.93704,2.14683 -2.25,2.51598 -2.20946,0.62122 -2.21396,0.65354 -0.25,1.79404 1.1,0.63878 2.54819,1.86909 3.2182,2.73402 1.10155,1.42201 1.22124,1.41527 1.25,-0.0704 0.0369,-1.90839 2.36725,-3.04923 4.5318,-2.21862 1.20393,0.46199 1.5,2.68621 1.5,11.26862 0,6.98345 -0.4163,11.10931 -1.2,11.89301 -0.67882,0.67882 -3.93035,1.2 -7.48658,1.2 -6.1431,0 -6.31804,-0.0742 -7.66518,-3.25 -0.75823,-1.7875 -2.78927,-4.49097 -4.51342,-6.00771 -1.72415,-1.51677 -3.13482,-3.65427 -3.13482,-4.75002 0,-2.15791 -0.7399,-2.44329 -2.85689,-1.1019 -1.81727,1.15148 -0.54909,7.10961 1.51327,7.10961 2.02468,0 7.6334,5.7221 6.85046,6.98893 -0.76618,1.23971 -14.46796,1.32167 -16.40024,0.0981 z m 16.46621,-24.3571 c -0.33396,-2.08845 -0.13363,-4.68205 0.44518,-5.76357 0.98746,-1.84509 0.71096,-1.96638 -4.48281,-1.96638 -3.04435,0 -5.53518,0.19038 -5.53518,0.42308 0,0.23269 1.35,1.77307 3,3.42307 2.38813,2.38814 3,3.86312 3,7.23191 0,4.22932 0.001,4.23075 2.09,2.34049 1.68676,-1.5265 1.97285,-2.62404 1.48281,-5.6886 z m -14.20873,-13.89954 c -3.55774,-1.72269 -4.36408,-5.21903 -4.36408,-18.92292 0,-12.46744 0.10026,-13.09866 2.45455,-15.45294 2.36525,-2.36526 2.94893,-2.45455 16.04545,-2.45455 13.09652,0 13.6802,0.0893 16.04545,2.45455 2.35614,2.35614 2.45455,2.97953 2.45455,15.54966 0,14.2716 -1.06982,18.24599 -5.20995,19.35503 -3.74357,1.00281 -25.11378,0.59075 -27.42597,-0.52883 z m 20.63592,-10.33041 c 0,-3.16667 0.59259,-5.09259 2,-6.5 2.3872,-2.3872 2.52448,-3.58476 0.5,-4.36163 -0.825,-0.31658 -1.5,-1.27885 -1.5,-2.13837 0,-0.85952 0.675,-1.82179 1.5,-2.13837 2.35532,-0.90382 1.77041,-3.36163 -0.8,-3.36163 -2.82098,0 -4.7,1.74759 -4.7,4.37126 0,1.08419 -0.68635,2.72967 -1.52523,3.65662 -1.36697,1.51048 -1.36697,1.8167 0,2.95118 0.97199,0.80668 1.52523,2.97458 1.52523,5.97672 0,2.59099 0.3,5.01089 0.66667,5.37755 1.58895,1.58896 2.33333,0.36606 2.33333,-3.83333 z m -20.68463,-29.50698 c -3.64004,-1.46661 -4.31537,-4.25102 -4.31537,-17.79242 0,-11.56763 0.2185,-13.20867 2.07258,-15.56574 l 2.07258,-2.63486 14.90174,0 14.90174,0 1.52568,2.95034 c 1.12095,2.16767 1.52568,6.16005 1.52568,15.04966 0,12.54988 -1.11605,17.06308 -4.5448,18.37882 -2.44674,0.9389 -25.64125,0.6209 -28.13983,-0.3858 z m 7.11385,-14.0702 c 0.75911,-6.70962 -0.50489,-9.93483 -3.0619,-7.81271 -1.39794,1.16019 -1.9027,9.33115 -0.76033,12.3081 1.36543,3.55825 3.1483,1.46138 3.82223,-4.49539 z m 8.57078,0.5685 c 0.45319,-4.52407 0.73403,-4.99132 3,-4.99132 2.31082,0 2.52287,0.39727 2.80226,5.25 0.25522,4.43292 0.60539,5.25 2.25,5.25 1.70644,0 1.94774,-0.71854 1.94774,-5.8 0,-3.19 -0.54,-6.34 -1.2,-7 -1.38756,-1.38756 -12.41016,-1.63979 -13.23641,-0.3029 -0.30494,0.49341 -0.26527,3.66365 0.0881,7.04499 0.51193,4.8978 0.9685,6.08613 2.24543,5.84421 1.12991,-0.21406 1.75037,-1.77638 2.10284,-5.29498 z m -8.18758,-13.75583 c 0.39799,-2.06658 -2.48881,-3.4591 -4.01242,-1.93549 -1.52361,1.52361 -0.13109,4.41041 1.93549,4.01242 0.95785,-0.18446 1.89247,-1.11908 2.07693,-2.07693 z m -5.54249,-12.43861 c -1.22655,-0.23692 -3.13905,-1.58632 -4.25,-2.99868 -1.77827,-2.2607 -2.01993,-4.04161 -2.01993,-14.88601 0,-13.27704 0.83558,-16.56061 4.65732,-18.30192 2.55961,-1.16623 23.19858,-1.52338 27.13273,-0.46951 4.00058,1.07166 5.20995,5.17109 5.20995,17.66036 0,14.29878 -0.9421,17.31074 -5.84011,18.67118 -3.53952,0.98311 -20.34603,1.20228 -24.88996,0.32458 z m 5.73007,-9.32054 c 0,-0.99532 -0.5625,-2.00589 -1.25,-2.2457 -2.02486,-0.70631 -3.75,0.34856 -3.75,2.29301 0,0.99533 0.5625,2.00589 1.25,2.24571 2.02486,0.70631 3.75,-0.34856 3.75,-2.29301 z m 8,0.974 c 0,-5.04774 -6.48702,-11.93643 -11.25,-11.9466 -2.60821,-0.006 -2.21431,3.8664 0.5,4.91491 2.54811,0.98431 6.14656,4.71599 7.0696,7.33135 0.86302,2.44529 3.6804,2.21589 3.6804,-0.29966 z m 9.23571,-1.81642 c -0.71227,-8.86275 -9.81497,-18.22637 -18.74333,-19.28059 -2.60106,-0.30713 -2.99238,-0.0347 -2.99238,2.0831 0,1.94672 0.70349,2.617 3.5,3.33476 6.78141,1.74055 11.68762,7.1988 14.42919,16.05272 0.33481,1.08126 1.27854,1.67622 2.31779,1.46121 1.3124,-0.27153 1.68659,-1.18925 1.48873,-3.6512 z m -26.78116,-31.58847 c -2.37381,-2.3738 -2.45455,-2.91807 -2.45455,-16.54545 0,-13.62739 0.0807,-14.17165 2.45455,-16.54546 2.3536,-2.3536 2.98765,-2.45454 15.41821,-2.45454 7.13001,0 13.69211,0.27953 14.58244,0.62118 3.42875,1.31574 4.5448,5.82894 4.5448,18.37882 0,12.54988 -1.11605,17.06308 -4.5448,18.37882 -0.89033,0.34165 -7.45243,0.62118 -14.58244,0.62118 -12.43056,0 -13.06461,-0.10094 -15.41821,-2.45455 z m 17.7461,-7.5844 c 3.69262,-1.02557 10.79935,-7.98127 10.79935,-10.56985 0,-0.68684 -1.52163,-2.86219 -3.3814,-4.83412 -3.70271,-3.92602 -5.67359,-3.92657 -7.46171,-0.002 -1.28845,2.82784 -3.07512,3.05576 -7.20655,0.91931 -2.73666,-1.41519 -2.95034,-1.39601 -2.95034,0.26481 0,0.98477 0.94952,3.56208 2.11004,5.72736 l 2.11004,3.93688 -2.11004,1.70861 c -2.5656,2.07749 -2.62517,2.60675 -0.36004,3.19869 2.98905,0.78112 4.62269,0.71354 8.45065,-0.34962 z"
         id="path3114"
         inkscape:connector-curvature="0" />
      <path
         style="fill:#e1a89b"
         d="m 373.17804,616.30635 c -0.86964,-0.55068 -1.16728,-1.747 -0.79185,-3.18266 0.33085,-1.26517 0.13968,-2.85684 -0.42483,-3.53703 -0.56451,-0.68019 -0.88318,-2.72861 -0.70815,-4.55204 0.26605,-2.77166 0.76603,-3.3669 3.04898,-3.62988 2.62694,-0.30261 2.672,-0.40423 1.1853,-2.67322 -1.69561,-2.58783 -2.10123,-6.77803 -0.99387,-10.26703 0.53164,-1.67505 0.31458,-2.24519 -0.85479,-2.24519 -2.00331,0 -2.00164,-1.4229 0.004,-3.42857 1.28401,-1.28402 4.22243,-1.57143 16.06574,-1.57143 8.07895,0 15.35044,0.45819 16.42857,1.03518 1.34099,0.71768 1.93426,2.0979 1.93426,4.5 0,3.06249 -0.30117,3.46482 -2.59362,3.46482 -1.75261,0 -2.76321,-0.64852 -3.11663,-2 -0.66213,-2.532 -2.28975,-2.61491 -2.28975,-0.11663 0,1.09901 -0.93704,2.14683 -2.25,2.51598 -2.20946,0.62122 -2.21396,0.65354 -0.25,1.79404 1.1,0.63878 2.54819,1.86909 3.2182,2.73402 1.10155,1.42201 1.22124,1.41527 1.25,-0.0704 0.0369,-1.90839 2.36725,-3.04923 4.5318,-2.21862 1.20393,0.46199 1.5,2.68621 1.5,11.26862 0,6.98345 -0.4163,11.10931 -1.2,11.89301 -0.67882,0.67882 -3.93035,1.2 -7.48658,1.2 -6.1431,0 -6.31804,-0.0742 -7.66518,-3.25 -0.75823,-1.7875 -2.78927,-4.49097 -4.51342,-6.00771 -1.72415,-1.51677 -3.13482,-3.65427 -3.13482,-4.75002 0,-2.15791 -0.7399,-2.44329 -2.85689,-1.1019 -1.81727,1.15148 -0.54909,7.10961 1.51327,7.10961 2.02468,0 7.6334,5.7221 6.85046,6.98893 -0.76618,1.23971 -14.46796,1.32167 -16.40024,0.0981 z m 16.46621,-24.3571 c -0.33396,-2.08845 -0.13363,-4.68205 0.44518,-5.76357 0.98746,-1.84509 0.71096,-1.96638 -4.48281,-1.96638 -3.04435,0 -5.53518,0.19038 -5.53518,0.42308 0,0.23269 1.35,1.77307 3,3.42307 2.38813,2.38814 3,3.86312 3,7.23191 0,4.22932 0.001,4.23075 2.09,2.34049 1.68676,-1.5265 1.97285,-2.62404 1.48281,-5.6886 z m -15.70037,-16.39932 c -1.78749,-2.17423 -1.62801,-28.71529 0.18568,-30.90066 1.64445,-1.98144 28.58846,-2.0142 31.19188,-0.0379 1.52294,1.15607 1.75,3.18115 1.75,15.60795 0,12.4268 -0.22706,14.45188 -1.75,15.60795 -1.25858,0.9554 -5.7172,1.33737 -15.87755,1.36025 -12.00548,0.027 -14.33371,-0.21895 -15.50001,-1.63757 z m 23.92956,-8.07328 c 0.22906,-3.97626 0.77255,-5.49448 2.25,-6.28518 2.58612,-1.38405 2.46823,-3.62338 -0.26785,-5.08769 l -2.21585,-1.18589 2.21585,-1.47127 c 2.8478,-1.89087 2.82305,-3.99354 -0.0625,-5.30828 -3.7869,-1.72543 -7.72165,0.3575 -7.72165,4.08759 0,1.79408 -0.61944,3.29384 -1.5,3.63174 -0.825,0.31659 -1.5,1.60432 -1.5,2.86163 0,1.25731 0.675,2.54504 1.5,2.86163 1.04889,0.40249 1.5,2.03862 1.5,5.44032 0,5.4783 0.5371,6.40847 3.45885,5.99023 1.71142,-0.24498 2.08994,-1.13908 2.34315,-5.53483 z m -21.48663,-30.26433 c -3.73816,-1.50614 -4.54385,-4.40542 -3.77827,-13.59612 0.65869,-7.90749 1.85179,-11.21354 2.96296,-8.21028 0.26727,0.72236 0.82659,4.41544 1.24294,8.20685 0.88695,8.07686 3.11618,10.64664 6.09376,7.02471 l 1.71146,-2.08183 1.64382,2.08183 c 2.45867,3.1138 5.1739,1.03711 5.80796,-4.44211 0.275,-2.37642 1.03669,-4.4971 1.69264,-4.71263 1.0535,-0.34615 1.74521,1.94498 2.63764,8.73656 0.11432,0.86994 1.22266,1.5 2.63865,1.5 2.03709,0 2.58538,-0.66262 3.30983,-4 0.47755,-2.2 0.637,-6.09016 0.35433,-8.64481 -0.47694,-4.31034 -0.33821,-4.67841 1.92648,-5.11133 l 2.44043,-0.46652 0,10.74739 0,10.74739 -3.40113,1.61394 c -3.76858,1.78831 -23.27445,2.22224 -27.2835,0.60696 z m 0.95456,-38.69614 c -1.22655,-0.23692 -3.13905,-1.58632 -4.25,-2.99868 -1.77827,-2.2607 -2.01993,-4.04161 -2.01993,-14.88601 0,-13.27704 0.83558,-16.56061 4.65732,-18.30192 2.55961,-1.16623 23.19858,-1.52338 27.13273,-0.46951 4.00058,1.07166 5.20995,5.17109 5.20995,17.66036 0,14.29878 -0.9421,17.31074 -5.84011,18.67118 -3.53952,0.98311 -20.34603,1.20228 -24.88996,0.32458 z m 5.73007,-9.32054 c 0,-0.99532 -0.5625,-2.00589 -1.25,-2.2457 -2.02486,-0.70631 -3.75,0.34856 -3.75,2.29301 0,0.99533 0.5625,2.00589 1.25,2.24571 2.02486,0.70631 3.75,-0.34856 3.75,-2.29301 z m 8,0.974 c 0,-5.04774 -6.48702,-11.93643 -11.25,-11.9466 -2.60821,-0.006 -2.21431,3.8664 0.5,4.91491 2.54811,0.98431 6.14656,4.71599 7.0696,7.33135 0.86302,2.44529 3.6804,2.21589 3.6804,-0.29966 z m 9.23571,-1.81642 c -0.71227,-8.86275 -9.81497,-18.22637 -18.74333,-19.28059 -2.60106,-0.30713 -2.99238,-0.0347 -2.99238,2.0831 0,1.94672 0.70349,2.617 3.5,3.33476 6.78141,1.74055 11.68762,7.1988 14.42919,16.05272 0.33481,1.08126 1.27854,1.67622 2.31779,1.46121 1.3124,-0.27153 1.68659,-1.18925 1.48873,-3.6512 z m -23.23571,-30.84336 c -4.6019,-1.69209 -5,-3.02356 -5,-16.72304 0,-18.31312 -0.72737,-17.57613 17.3067,-17.53572 10.21505,0.0229 14.68381,0.40416 15.9433,1.36025 1.52077,1.15443 1.75,3.17104 1.75,15.39561 0,14.00592 -0.0115,14.0762 -2.63486,16.13976 -2.33804,1.8391 -3.94331,2.06369 -14.25,1.99363 -6.38833,-0.0434 -12.29014,-0.32714 -13.11514,-0.63049 z m 15.20075,-7.32954 c 3.60906,-1.00237 11.77796,-9.01844 11.79279,-11.57218 0.004,-0.61114 -1.94914,-3.21115 -4.33931,-5.7778 -4.84009,-5.19745 -6.73055,-5.29792 -9.21689,-0.48986 -1.71723,3.32074 -1.77682,3.33945 -4.72252,1.48294 -1.21815,-0.76773 -3.22732,-1.69805 -4.46482,-2.06738 -1.88667,-0.56308 -2.25,-0.29107 -2.25,1.68443 0,1.29577 0.90664,4.13426 2.01475,6.30776 2.28637,4.48459 2.03418,6.17145 -0.99321,6.64351 -2.84888,0.44421 -2.80768,2.06345 0.0907,3.56282 2.9196,1.51037 7.17697,1.58988 12.08855,0.22576 z"
         id="path3112"
         inkscape:connector-curvature="0" />
      <path
         style="fill:#ea8f59"
         d="m 374.05587,615.70054 c -1.03151,-1.24289 -0.93478,-1.87863 0.53255,-3.5 3.30727,-3.6545 10.82596,-1.946 13.51047,3.07004 0.98702,1.84427 0.6724,1.94872 -5.86982,1.94872 -4.96265,0 -7.26832,-0.42844 -8.1732,-1.51876 z m 19.01557,-0.96912 c 0,-1.6084 -1.41343,-3.81779 -3.99836,-6.25 -2.19909,-2.06916 -3.99909,-4.1907 -4,-4.71451 -9e-4,-0.52382 1.4019,-2.40048 3.11734,-4.17037 2.50169,-2.58109 3.10771,-4.03523 3.062,-7.34729 -0.0476,-3.44697 0.35036,-4.31492 2.40814,-5.25251 1.84685,-0.84148 2.7593,-0.82902 3.63801,0.0497 0.89716,0.89715 0.80203,1.17286 -0.40469,1.17286 -0.86765,0 -2.13775,0.675 -2.82244,1.5 -1.52987,1.84338 0.24464,4.5 3.00581,4.5 0.96851,0 1.99628,0.9 2.28394,2 0.59988,2.29396 3.71025,2.74261 3.71025,0.53518 0,-1.27987 2.82889,-3.53518 4.43426,-3.53518 1.01924,0 0.59199,20.08243 -0.46944,22.06574 -0.85958,1.60613 -2.13188,1.93426 -7.5,1.93426 -6.22074,0 -6.46482,-0.0939 -6.46482,-2.48788 z m -20.33333,-6.17879 c -1.21849,-1.21848 -0.68858,-5.38769 0.75519,-5.94172 2.10022,-0.80593 5.57814,1.3991 5.57814,3.53658 0,2.4691 -4.54382,4.19465 -6.33333,2.40514 z m 4.33333,-10.33333 c -2.35187,-2.35187 -2.63036,-7.23196 -0.51299,-8.98922 3.28496,-2.72628 8.51299,1.47204 8.51299,6.83627 0,4.19031 -4.69825,5.4547 -8,2.15295 z m 28.60699,-9.58179 c -0.85768,-2.23506 -0.79004,-2.41821 0.89301,-2.41821 0.83333,0 1.5,0.88889 1.5,2 0,2.38425 -1.53559,2.65261 -2.39301,0.41821 z m -31.73455,-13.08758 c -1.78749,-2.17423 -1.62801,-28.71529 0.18568,-30.90066 1.64445,-1.98144 28.58846,-2.0142 31.19188,-0.0379 1.52294,1.15607 1.75,3.18115 1.75,15.60795 0,12.4268 -0.22706,14.45188 -1.75,15.60795 -1.25858,0.9554 -5.7172,1.33737 -15.87755,1.36025 -12.00548,0.027 -14.33371,-0.21895 -15.50001,-1.63757 z m 23.92956,-8.07328 c 0.22906,-3.97626 0.77255,-5.49448 2.25,-6.28518 2.58612,-1.38405 2.46823,-3.62338 -0.26785,-5.08769 l -2.21585,-1.18589 2.21585,-1.47127 c 2.8478,-1.89087 2.82305,-3.99354 -0.0625,-5.30828 -3.7869,-1.72543 -7.72165,0.3575 -7.72165,4.08759 0,1.79408 -0.61944,3.29384 -1.5,3.63174 -0.825,0.31659 -1.5,1.60432 -1.5,2.86163 0,1.25731 0.675,2.54504 1.5,2.86163 1.04889,0.40249 1.5,2.03862 1.5,5.44032 0,5.4783 0.5371,6.40847 3.45885,5.99023 1.71142,-0.24498 2.08994,-1.13908 2.34315,-5.53483 z m -21.48663,-30.26433 c -3.73816,-1.50614 -4.54385,-4.40542 -3.77827,-13.59612 0.65869,-7.90749 1.85179,-11.21354 2.96296,-8.21028 0.26727,0.72236 0.82659,4.41544 1.24294,8.20685 0.88695,8.07686 3.11618,10.64664 6.09376,7.02471 l 1.71146,-2.08183 1.64382,2.08183 c 2.45867,3.1138 5.1739,1.03711 5.80796,-4.44211 0.275,-2.37642 1.03669,-4.4971 1.69264,-4.71263 1.0535,-0.34615 1.74521,1.94498 2.63764,8.73656 0.11432,0.86994 1.22266,1.5 2.63865,1.5 2.03709,0 2.58538,-0.66262 3.30983,-4 0.47755,-2.2 0.637,-6.09016 0.35433,-8.64481 -0.47694,-4.31034 -0.33821,-4.67841 1.92648,-5.11133 l 2.44043,-0.46652 0,10.74739 0,10.74739 -3.40113,1.61394 c -3.76858,1.78831 -23.27445,2.22224 -27.2835,0.60696 z m -1.87424,-41.42298 c -1.78224,-1.3129 -1.9234,-2.59044 -1.72458,-15.60723 0.13668,-8.94815 0.64289,-14.69099 1.37245,-15.57005 1.61579,-1.94691 28.59639,-1.94753 31.161,-7.1e-4 1.52094,1.15455 1.75,3.1718 1.75,15.41149 0,17.90225 0.71954,17.19646 -17.53138,17.19646 -9.77578,0 -13.57743,-0.36175 -15.02749,-1.42996 z m 8.81212,-4.29923 c 1.81098,-1.63891 1.96125,-1.63891 2.87843,0 1.18281,2.11357 5.71675,2.28776 6.49883,0.24968 0.95104,-2.47837 -3.51579,-10.28647 -7.18028,-12.55125 -6.28744,-3.88585 -12.28077,-0.79978 -7.57863,3.90236 1.70729,1.70729 1.78816,2.16588 0.56149,3.18393 -1.76453,1.46443 -1.88493,5.59548 -0.18309,6.28219 2.19247,0.88468 3.04847,0.70214 5.00325,-1.06691 z m 18.58324,-1.15008 c 0.55435,-3.91968 -2.86213,-11.199 -7.37351,-15.71038 -7.36615,-7.36616 -18.46298,-9.41588 -18.46298,-3.41035 0,2.28184 1.71501,3.6011 5.82428,4.4803 1.82835,0.39118 4.8104,2.01607 6.62677,3.61087 3.09946,2.72136 3.96288,4.20727 6.52265,11.22521 0.83694,2.29455 1.5367,2.75775 3.77679,2.5 2.01921,-0.23235 2.83889,-0.94834 3.086,-2.69565 z m -24.83649,-32.83017 c -4.6019,-1.69209 -5,-3.02356 -5,-16.72304 0,-18.31312 -0.72737,-17.57613 17.3067,-17.53572 10.21505,0.0229 14.68381,0.40416 15.9433,1.36025 1.52077,1.15443 1.75,3.17104 1.75,15.39561 0,14.00592 -0.0115,14.0762 -2.63486,16.13976 -2.33804,1.8391 -3.94331,2.06369 -14.25,1.99363 -6.38833,-0.0434 -12.29014,-0.32714 -13.11514,-0.63049 z m 15.20075,-7.32954 c 3.60906,-1.00237 11.77796,-9.01844 11.79279,-11.57218 0.004,-0.61114 -1.94914,-3.21115 -4.33931,-5.7778 -4.84009,-5.19745 -6.73055,-5.29792 -9.21689,-0.48986 -1.71723,3.32074 -1.77682,3.33945 -4.72252,1.48294 -1.21815,-0.76773 -3.22732,-1.69805 -4.46482,-2.06738 -1.88667,-0.56308 -2.25,-0.29107 -2.25,1.68443 0,1.29577 0.90664,4.13426 2.01475,6.30776 2.28637,4.48459 2.03418,6.17145 -0.99321,6.64351 -2.84888,0.44421 -2.80768,2.06345 0.0907,3.56282 2.9196,1.51037 7.17697,1.58988 12.08855,0.22576 z"
         id="path3110"
         inkscape:connector-curvature="0" />
      <path
         style="fill:#3aabcd"
         d="m 373.97632,615.60468 c -1.1488,-1.38422 -1.00777,-1.88364 0.98834,-3.5 4.11457,-3.33178 10.47762,-1.79801 13.13423,3.1659 0.98702,1.84427 0.6724,1.94872 -5.86982,1.94872 -5.1428,0 -7.25584,-0.41341 -8.25275,-1.61462 z m 19.09512,-1.0009 c 0,-1.77539 -1.28485,-3.79 -4,-6.27189 -2.2,-2.01099 -4,-4.07509 -4,-4.58687 0,-0.51178 1.44,-2.41621 3.2,-4.23207 2.45825,-2.53626 3.19475,-4.16989 3.17737,-7.0476 -0.0243,-4.01821 0.95332,-5.24353 4.12263,-5.16735 1.78641,0.0429 1.75178,0.14759 -0.32424,0.97993 -3.02396,1.21238 -2.49175,4.02333 1.08647,5.73832 1.50577,0.7217 2.73777,1.91448 2.73777,2.65063 0,2.51708 3.01378,2.64638 3.95541,0.1697 0.74501,-1.95952 2.86522,-3.61728 4.62638,-3.61728 0.91631,0 0.34985,20.25922 -0.61697,22.06574 -0.85958,1.60613 -2.13188,1.93426 -7.5,1.93426 -6.30529,0 -6.46482,-0.0645 -6.46482,-2.61552 z m -20.33333,-6.05115 c -1.21849,-1.21848 -0.68858,-5.38769 0.75519,-5.94172 2.09603,-0.80432 5.57814,1.39735 5.57814,3.52694 0,1.07131 -0.94578,2.10165 -2.25,2.45116 -2.88564,0.77333 -3.27712,0.76984 -4.08333,-0.0364 z m 5.16148,-9.3697 c -2.19906,-1.28317 -3.24864,-6.30942 -1.85954,-8.90498 1.5124,-2.82595 4.47568,-2.58058 6.95881,0.57621 4.47463,5.68857 0.76362,11.74985 -5.09927,8.32877 z m 27.81022,-10.46363 c -0.35062,-0.91371 -0.002,-1.5 0.89301,-1.5 0.80774,0 1.46862,0.675 1.46862,1.5 0,0.825 -0.40186,1.5 -0.89301,1.5 -0.49116,0 -1.15203,-0.675 -1.46862,-1.5 z m -31.76593,-13.16937 c -1.78749,-2.17423 -1.62801,-28.71529 0.18568,-30.90066 1.64445,-1.98144 28.58846,-2.0142 31.19188,-0.0379 1.52294,1.15607 1.75,3.18115 1.75,15.60795 0,12.4268 -0.22706,14.45188 -1.75,15.60795 -1.25858,0.9554 -5.7172,1.33737 -15.87755,1.36025 -12.00548,0.027 -14.33371,-0.21895 -15.50001,-1.63757 z m 23.92956,-8.07328 c 0.22906,-3.97626 0.77255,-5.49448 2.25,-6.28518 2.58612,-1.38405 2.46823,-3.62338 -0.26785,-5.08769 l -2.21585,-1.18589 2.21585,-1.47127 c 2.8478,-1.89087 2.82305,-3.99354 -0.0625,-5.30828 -3.7869,-1.72543 -7.72165,0.3575 -7.72165,4.08759 0,1.79408 -0.61944,3.29384 -1.5,3.63174 -0.825,0.31659 -1.5,1.60432 -1.5,2.86163 0,1.25731 0.675,2.54504 1.5,2.86163 1.04889,0.40249 1.5,2.03862 1.5,5.44032 0,5.4783 0.5371,6.40847 3.45885,5.99023 1.71142,-0.24498 2.08994,-1.13908 2.34315,-5.53483 z m -21.48663,-30.26433 c -3.73816,-1.50614 -4.54385,-4.40542 -3.77827,-13.59612 0.65869,-7.90749 1.85179,-11.21354 2.96296,-8.21028 0.26727,0.72236 0.82659,4.41544 1.24294,8.20685 0.88695,8.07686 3.11618,10.64664 6.09376,7.02471 l 1.71146,-2.08183 1.64382,2.08183 c 2.45867,3.1138 5.1739,1.03711 5.80796,-4.44211 0.275,-2.37642 1.03669,-4.4971 1.69264,-4.71263 1.0535,-0.34615 1.74521,1.94498 2.63764,8.73656 0.11432,0.86994 1.22266,1.5 2.63865,1.5 2.03709,0 2.58538,-0.66262 3.30983,-4 0.47755,-2.2 0.637,-6.09016 0.35433,-8.64481 -0.47694,-4.31034 -0.33821,-4.67841 1.92648,-5.11133 l 2.44043,-0.46652 0,10.74739 0,10.74739 -3.40113,1.61394 c -3.76858,1.78831 -23.27445,2.22224 -27.2835,0.60696 z m -0.0355,-41.01312 c -3.05896,-1.23087 -3.64669,-4.54189 -2.52173,-14.20618 0.63955,-5.49426 1.00991,-6.86998 1.10245,-4.09515 0.0767,2.29822 0.81781,4.85702 1.64703,5.68624 0.93468,0.93468 1.1247,1.74436 0.5,2.13045 -1.69835,1.04963 -1.12074,5.09244 1.00205,7.01353 1.75852,1.59144 2.3235,1.65084 4.5202,0.4752 1.92872,-1.03222 2.78389,-1.07018 3.69029,-0.16378 1.52498,1.52498 5.04541,1.51417 6.57979,-0.0202 0.93333,-0.93333 1.46667,-0.93333 2.4,0 1.69725,1.69725 5.31584,1.4883 6.88076,-0.39731 1.29929,-1.56555 0.76272,-4.71104 -2.56334,-15.0269 -0.58204,-1.80521 -0.22179,-2.19218 2.39884,-2.57681 2.85266,-0.41868 3.09437,-0.22203 3.22564,2.62421 0.1284,2.78393 0.21008,2.69605 0.8581,-0.92319 0.51776,-2.89176 0.75551,-1.05317 0.85809,6.63606 l 0.14191,10.63606 -3.40113,1.61394 c -3.78414,1.79569 -23.27898,2.21946 -27.31895,0.59384 z m 0.72008,-38.68934 c -4.6019,-1.69209 -5,-3.02356 -5,-16.72304 0,-18.31312 -0.72737,-17.57613 17.3067,-17.53572 10.21505,0.0229 14.68381,0.40416 15.9433,1.36025 1.52077,1.15443 1.75,3.17104 1.75,15.39561 0,14.00592 -0.0115,14.0762 -2.63486,16.13976 -2.33804,1.8391 -3.94331,2.06369 -14.25,1.99363 -6.38833,-0.0434 -12.29014,-0.32714 -13.11514,-0.63049 z m 15.20075,-7.32954 c 3.60906,-1.00237 11.77796,-9.01844 11.79279,-11.57218 0.004,-0.61114 -1.94914,-3.21115 -4.33931,-5.7778 -4.84009,-5.19745 -6.73055,-5.29792 -9.21689,-0.48986 -1.71723,3.32074 -1.77682,3.33945 -4.72252,1.48294 -1.21815,-0.76773 -3.22732,-1.69805 -4.46482,-2.06738 -1.88667,-0.56308 -2.25,-0.29107 -2.25,1.68443 0,1.29577 0.90664,4.13426 2.01475,6.30776 2.28637,4.48459 2.03418,6.17145 -0.99321,6.64351 -2.84888,0.44421 -2.80768,2.06345 0.0907,3.56282 2.9196,1.51037 7.17697,1.58988 12.08855,0.22576 z"
         id="path3108"
         inkscape:connector-curvature="0" />
      <path
         style="fill:#d97152"
         d="m 373.97632,615.60468 c -1.1488,-1.38422 -1.00777,-1.88364 0.98834,-3.5 4.11457,-3.33178 10.47762,-1.79801 13.13423,3.1659 0.98702,1.84427 0.6724,1.94872 -5.86982,1.94872 -5.1428,0 -7.25584,-0.41341 -8.25275,-1.61462 z m 19.09512,-1.0009 c 0,-1.77539 -1.28485,-3.79 -4,-6.27189 -2.2,-2.01099 -4,-4.07509 -4,-4.58687 0,-0.51178 1.44,-2.41621 3.2,-4.23207 2.45825,-2.53626 3.19475,-4.16989 3.17737,-7.0476 -0.0243,-4.01821 0.95332,-5.24353 4.12263,-5.16735 1.78641,0.0429 1.75178,0.14759 -0.32424,0.97993 -3.02396,1.21238 -2.49175,4.02333 1.08647,5.73832 1.50577,0.7217 2.73777,1.91448 2.73777,2.65063 0,2.51708 3.01378,2.64638 3.95541,0.1697 0.74501,-1.95952 2.86522,-3.61728 4.62638,-3.61728 0.91631,0 0.34985,20.25922 -0.61697,22.06574 -0.85958,1.60613 -2.13188,1.93426 -7.5,1.93426 -6.30529,0 -6.46482,-0.0645 -6.46482,-2.61552 z m -20.33333,-6.05115 c -1.21849,-1.21848 -0.68858,-5.38769 0.75519,-5.94172 2.09603,-0.80432 5.57814,1.39735 5.57814,3.52694 0,1.07131 -0.94578,2.10165 -2.25,2.45116 -2.88564,0.77333 -3.27712,0.76984 -4.08333,-0.0364 z m 5.16148,-9.3697 c -2.19906,-1.28317 -3.24864,-6.30942 -1.85954,-8.90498 1.5124,-2.82595 4.47568,-2.58058 6.95881,0.57621 4.47463,5.68857 0.76362,11.74985 -5.09927,8.32877 z m 27.81022,-10.46363 c -0.35062,-0.91371 -0.002,-1.5 0.89301,-1.5 0.80774,0 1.46862,0.675 1.46862,1.5 0,0.825 -0.40186,1.5 -0.89301,1.5 -0.49116,0 -1.15203,-0.675 -1.46862,-1.5 z m -31.74687,-13.13074 c -1.3724,-1.65363 -1.55077,-4.90654 -1.12676,-20.54783 0.32497,-11.98786 0.0952,-11.82906 17.05669,-11.78963 9.78688,0.0228 14.17646,0.40976 15.42857,1.36025 1.52294,1.15607 1.75,3.18115 1.75,15.60795 0,12.4268 -0.22706,14.45188 -1.75,15.60795 -1.25858,0.9554 -5.7172,1.33737 -15.87755,1.36025 -11.8673,0.0267 -14.34409,-0.2291 -15.48095,-1.59894 z m 23.9105,-8.11191 c 0.22906,-3.97626 0.77255,-5.49448 2.25,-6.28518 2.34349,-1.2542 2.46903,-2.73896 0.42277,-5.00005 -1.36697,-1.51048 -1.36697,-1.8167 0,-2.95118 2.40832,-1.99873 1.8685,-4.89668 -1.04851,-5.6288 -3.71677,-0.93285 -7.42626,1.04719 -7.42626,3.96398 0,1.31944 -0.675,2.95919 -1.5,3.64388 -0.825,0.68469 -1.5,2.26664 -1.5,3.51546 0,1.24881 0.675,2.52958 1.5,2.84617 1.04889,0.40249 1.5,2.03862 1.5,5.44032 0,5.4783 0.5371,6.40847 3.45885,5.99023 1.71142,-0.24498 2.08994,-1.13908 2.34315,-5.53483 z M 376.35136,496.1992 c -3.05896,-1.23087 -3.64669,-4.54189 -2.52173,-14.20618 0.63955,-5.49426 1.00991,-6.86998 1.10245,-4.09515 0.0767,2.29822 0.81781,4.85702 1.64703,5.68624 0.93468,0.93468 1.1247,1.74436 0.5,2.13045 -1.69835,1.04963 -1.12074,5.09244 1.00205,7.01353 1.75852,1.59144 2.3235,1.65084 4.5202,0.4752 1.92872,-1.03222 2.78389,-1.07018 3.69029,-0.16378 1.52498,1.52498 5.04541,1.51417 6.57979,-0.0202 0.93333,-0.93333 1.46667,-0.93333 2.4,0 1.69725,1.69725 5.31584,1.4883 6.88076,-0.39731 1.29929,-1.56555 0.76272,-4.71104 -2.56334,-15.0269 -0.58204,-1.80521 -0.22179,-2.19218 2.39884,-2.57681 2.85266,-0.41868 3.09437,-0.22203 3.22564,2.62421 0.1284,2.78393 0.21008,2.69605 0.8581,-0.92319 0.51776,-2.89176 0.75551,-1.05317 0.85809,6.63606 l 0.14191,10.63606 -3.40113,1.61394 c -3.78414,1.79569 -23.27898,2.21946 -27.31895,0.59384 z"
         id="path3106"
         inkscape:connector-curvature="0" />
      <path
         style="fill:#4867aa"
         d="m 374.624,615.49568 c -0.84601,-2.20468 1.89001,-4.27638 5.64767,-4.27638 1.76681,0 3.98896,1.11906 5.95719,3 l 3.13921,3 -7.04133,0 c -5.74247,0 -7.16333,-0.31794 -7.70274,-1.72362 z m 19.12481,1.08555 c 2.00337,-0.81705 -0.52736,-6.09267 -4.48926,-9.3584 l -3.60858,-2.9745 3.4064,-3.51452 c 3.61613,-3.7309 6.96792,-4.47997 9.01407,-2.01451 0.68469,0.825 2.03469,1.5 3,1.5 0.96531,0 2.31531,-0.675 3,-1.5 0.68469,-0.825 1.86479,-1.5 2.62245,-1.5 1.05912,0 1.37755,1.91343 1.37755,8.27776 0,10.35455 -1.17943,11.76136 -9.76143,11.64329 -3.15621,-0.0434 -5.20875,-0.29502 -4.5612,-0.55912 z m -20.11947,-9.13736 c -0.91446,-0.91447 -0.63215,-4.22457 0.36031,-4.22457 1.98678,0 4.08179,1.2782 4.08179,2.49036 0,1.33821 -3.47963,2.69667 -4.4421,1.73421 z m 5.9421,-9.22457 c -0.33992,-0.55 0.33508,-1 1.5,-1 1.16492,0 1.83992,0.45 1.5,1 -0.33992,0.55 -1.01492,1 -1.5,1 -0.48508,0 -1.16008,-0.45 -1.5,-1 z m -5.6085,-22.63074 c -1.3724,-1.65363 -1.55077,-4.90654 -1.12676,-20.54783 0.32497,-11.98786 0.0952,-11.82906 17.05669,-11.78963 9.78688,0.0228 14.17646,0.40976 15.42857,1.36025 1.52294,1.15607 1.75,3.18115 1.75,15.60795 0,12.4268 -0.22706,14.45188 -1.75,15.60795 -1.25858,0.9554 -5.7172,1.33737 -15.87755,1.36025 -11.8673,0.0267 -14.34409,-0.2291 -15.48095,-1.59894 z m 23.9105,-8.11191 c 0.22906,-3.97626 0.77255,-5.49448 2.25,-6.28518 2.34349,-1.2542 2.46903,-2.73896 0.42277,-5.00005 -1.36697,-1.51048 -1.36697,-1.8167 0,-2.95118 2.40832,-1.99873 1.8685,-4.89668 -1.04851,-5.6288 -3.71677,-0.93285 -7.42626,1.04719 -7.42626,3.96398 0,1.31944 -0.675,2.95919 -1.5,3.64388 -0.825,0.68469 -1.5,2.26664 -1.5,3.51546 0,1.24881 0.675,2.52958 1.5,2.84617 1.04889,0.40249 1.5,2.03862 1.5,5.44032 0,5.4783 0.5371,6.40847 3.45885,5.99023 1.71142,-0.24498 2.08994,-1.13908 2.34315,-5.53483 z"
         id="path3104"
         inkscape:connector-curvature="0" />
      <path
         style="fill:#ad3021"
         d="m 374.624,615.49568 c -0.84601,-2.20468 1.89001,-4.27638 5.64767,-4.27638 1.76681,0 3.98896,1.11906 5.95719,3 l 3.13921,3 -7.04133,0 c -5.74247,0 -7.16333,-0.31794 -7.70274,-1.72362 z m 19.12481,1.08555 c 2.00337,-0.81705 -0.52736,-6.09267 -4.48926,-9.3584 l -3.60858,-2.9745 3.4064,-3.51452 c 3.61613,-3.7309 6.96792,-4.47997 9.01407,-2.01451 0.68469,0.825 2.03469,1.5 3,1.5 0.96531,0 2.31531,-0.675 3,-1.5 0.68469,-0.825 1.86479,-1.5 2.62245,-1.5 1.05912,0 1.37755,1.91343 1.37755,8.27776 0,10.35455 -1.17943,11.76136 -9.76143,11.64329 -3.15621,-0.0434 -5.20875,-0.29502 -4.5612,-0.55912 z m -20.11947,-9.13736 c -0.91446,-0.91447 -0.63215,-4.22457 0.36031,-4.22457 1.98678,0 4.08179,1.2782 4.08179,2.49036 0,1.33821 -3.47963,2.69667 -4.4421,1.73421 z m 5.9421,-9.22457 c -0.33992,-0.55 0.33508,-1 1.5,-1 1.16492,0 1.83992,0.45 1.5,1 -0.33992,0.55 -1.01492,1 -1.5,1 -0.48508,0 -1.16008,-0.45 -1.5,-1 z"
         id="path3102"
         inkscape:connector-curvature="0" />
    </g>
  </g>
</svg>
