<?xml version="1.0" encoding="UTF-8" standalone="no"?>
<!-- Created with Inkscape (http://www.inkscape.org/) -->

<svg
   xmlns:dc="http://purl.org/dc/elements/1.1/"
   xmlns:cc="http://creativecommons.org/ns#"
   xmlns:rdf="http://www.w3.org/1999/02/22-rdf-syntax-ns#"
   xmlns:svg="http://www.w3.org/2000/svg"
   xmlns="http://www.w3.org/2000/svg"
   xmlns:sodipodi="http://sodipodi.sourceforge.net/DTD/sodipodi-0.dtd"
   xmlns:inkscape="http://www.inkscape.org/namespaces/inkscape"
   width="450"
   height="450"
   id="svg2"
   version="1.1"
   inkscape:version="0.48.4 r9939"
   sodipodi:docname="tickets.svg">
  <defs
     id="defs4">
    <inkscape:path-effect
       effect="spiro"
       id="path-effect4360"
       is_visible="true" />
    <inkscape:path-effect
       effect="spiro"
       id="path-effect4356"
       is_visible="true" />
  </defs>
  <sodipodi:namedview
     id="base"
     pagecolor="#ffffff"
     bordercolor="#666666"
     borderopacity="1.0"
     inkscape:pageopacity="0.0"
     inkscape:pageshadow="2"
     inkscape:zoom="0.49497475"
     inkscape:cx="222.24276"
     inkscape:cy="534.64262"
     inkscape:document-units="px"
     inkscape:current-layer="layer1"
     showgrid="false"
     inkscape:window-width="1680"
     inkscape:window-height="989"
     inkscape:window-x="-9"
     inkscape:window-y="-9"
     inkscape:window-maximized="1" />
  <metadata
     id="metadata7">
    <rdf:RDF>
      <cc:Work
         rdf:about="">
        <dc:format>image/svg+xml</dc:format>
        <dc:type
           rdf:resource="http://purl.org/dc/dcmitype/StillImage" />
        <dc:title />
      </cc:Work>
    </rdf:RDF>
  </metadata>
  <g
     inkscape:label="Layer 1"
     inkscape:groupmode="layer"
     id="layer1"
     transform="translate(0,-602.3622)">
    <g
       id="g4631">
      <path
         style="fill:#f3e9f9"
         d="m 24.20408,901.16317 c -5.135564,-3.2935 -5.135564,-207.11228 0,-210.40577 5.148168,-3.30157 405.99905,-3.30157 411.14723,0 5.13558,3.29349 5.13558,207.11227 0,210.40577 -5.14818,3.30158 -405.999062,3.30158 -411.14723,0 z m 393.94194,-106.15409 0,-95.12014 -25.95627,0.003 -25.95626,0.003 -0.83701,7.81378 c -0.94587,8.82993 3.06797,13.10213 12.32433,13.11769 3.4712,0.006 11.31711,0.90216 17.43537,1.99183 10.00948,1.78269 11.12412,2.61609 11.12412,8.31726 0,8.0146 -3.93242,10.05314 -22.42832,11.62664 -10.84628,0.92272 -14.94357,2.11276 -15.15855,4.40271 -0.51924,5.53083 -7.05189,25.83706 -9.5778,29.77171 -3.31531,5.16431 -9.19751,17.09686 -9.19751,18.65796 0,0.69641 4.67213,2.51813 10.38251,4.04827 9.07443,2.43155 10.3825,3.62474 10.3825,9.47061 0,7.63773 -3.73126,9.47826 -23.46918,11.57665 -13.56957,1.44262 -26.00266,8.05148 -34.48875,18.33266 -4.13862,5.01406 -4.13862,5.01406 17.41256,6.30919 26.74569,1.6073 29.37089,2.60949 28.1581,10.74943 -0.94416,6.33696 -1.31265,6.49621 -20.24346,8.74811 -10.60499,1.26152 -28.78262,2.33362 -40.39475,2.38245 -21.11295,0.0888 -21.11295,0.0888 -37.82199,10.55075 -9.18996,5.75406 -16.70903,10.89055 -16.70903,11.41441 0,0.52387 39.37937,0.95248 87.5097,0.95248 l 87.50969,0 0,-95.12015 z"
         id="path4651"
         inkscape:connector-curvature="0" />
      <path
         style="fill:#ead8f7"
         d="m 24.979528,899.17877 c -0.784963,-1.31511 -1.080326,-48.61952 -0.656362,-105.12089 l 0.770843,-102.72976 204.683691,0 204.68369,0 0,104.63217 0,104.63216 -204.02733,0.48872 c -161.646743,0.38722 -204.323785,-0.008 -205.454532,-1.9024 z M 420.39884,796.07337 c 0.42848,-52.89061 -0.38705,-95.74887 -1.83969,-96.68044 -1.47437,-0.94554 -33.4209,-1.08498 -73.44715,-0.3206 l -70.83785,1.3528 1.03398,8.24169 c 1.19887,9.55603 -2.17672,8.81168 55.3282,12.20029 58.98604,3.47588 67.3387,4.42267 70.87235,8.03347 7.60471,7.77078 -0.33328,9.89959 -41.52006,11.13484 -21.03837,0.63098 -48.43249,1.76423 -60.87585,2.51835 l -22.62426,1.37112 -3.33194,10.63998 c -1.83258,5.85198 -2.65194,11.07607 -1.82083,11.60907 0.83112,0.53301 13.70304,1.53307 28.60427,2.22237 33.64818,1.5565 43.08018,6.85124 29.95471,16.81534 -4.52084,3.43195 -9.85321,4.10702 -41.29027,5.22727 -30.93525,1.10236 -36.29407,1.76471 -37.46258,4.63033 -0.89947,2.20585 1.09875,4.06344 5.87113,5.45793 6.05935,1.77055 7.08529,3.24726 6.31506,9.0897 -1.01235,7.67901 -4.05053,8.81747 -29.33647,10.99293 -10.33786,0.88941 -16.71883,3.02159 -26.69787,8.92098 -7.21225,4.26373 -17.11787,9.36645 -22.01248,11.33939 -5.08687,2.05043 -6.99308,3.63882 -4.44964,3.70775 2.4473,0.0663 40.92176,0.80389 85.49879,1.63905 69.50179,1.30212 81.75113,1.96864 85.97618,4.67822 6.35967,4.07852 2.04115,8.90229 -10.03148,11.20513 -13.88833,2.64919 -126.88404,5.98989 -207.42316,6.13243 -100.681513,0.17826 -90.476125,-1.10818 -90.476125,11.40453 l 0,10.43447 86.768085,0.54641 c 47.72245,0.30052 132.15447,0.52748 187.62672,0.50434 l 100.85862,-0.042 0.76961,-95.00706 z m -119.42682,22.04452 c -6.52614,-0.7505 -13.53433,-2.02713 -15.57376,-2.83694 -5.72691,-2.27404 -4.42034,-10.38151 2.02981,-12.59532 8.21077,-2.81809 69.2841,-2.55849 73.76249,0.31355 4.67886,3.0006 4.54946,10.04127 -0.23138,12.58579 -4.91226,2.6145 -44.67741,4.29355 -59.98725,2.53292 z"
         id="path4649"
         inkscape:connector-curvature="0" />
      <path
         style="fill:#e1c7f3"
         d="m 27.17051,899.26076 c -5.134408,-3.29275 -5.134408,-203.3082 0,-206.60095 5.147442,-3.30111 400.06694,-3.30111 405.21437,0 5.13442,3.29275 5.13442,203.3082 0,206.60095 -5.14743,3.30111 -400.066928,3.30111 -405.21437,0 z m 393.94194,-104.25168 0,-97.02255 -63.3027,0 c -34.81649,0 -87.61114,0.56468 -117.32144,1.25484 l -54.01871,1.25484 0.88904,7.75886 c 1.10302,9.62636 2.25561,9.79793 78.01622,11.6131 29.36766,0.70364 64.74234,2.15905 78.6104,3.23427 58.82758,4.561 54.87896,3.90428 54.87896,9.12735 0,4.756 0,4.756 -59.3286,6.95173 -41.98158,1.55372 -64.36513,1.61419 -76.55402,0.20683 -12.66655,-1.46251 -20.34385,-1.3897 -29.00831,0.2751 -12.23849,2.35152 -13.22741,5.88316 -1.64738,5.88316 8.92317,0 13.76715,3.45713 13.76715,9.82556 0,7.24549 -7.18064,9.17613 -34.66054,9.31905 -46.50753,0.24189 -9.77921,3.91182 50.7083,5.06682 51.00736,0.97398 59.77536,1.58589 64.2997,4.48741 5.23732,3.35873 4.81621,10.1933 -0.7643,12.40514 -5.21641,2.06753 -112.91149,4.28942 -120.32256,2.48241 -5.5945,-1.36408 -8.92107,-0.90109 -14.78706,2.05803 -5.5181,2.78363 -12.04133,3.81805 -24.07727,3.81805 -32.80974,0 -10.29239,3.4596 35.10728,5.39394 53.89137,2.29614 57.00863,2.82844 55.78104,9.52505 -1.09994,6.00028 -8.61847,7.31965 -51.3314,9.00776 -16.31536,0.64481 -35.00387,1.44508 -41.53002,1.77837 -20.89998,1.06735 -88.589428,-3.25709 -95.858621,-6.12407 -4.129271,-1.6286 -10.162782,-2.24345 -15.138037,-1.54265 l -8.272321,1.1652 -2.09713,37.00383 c -1.153419,20.35212 -1.270715,37.86138 -0.260651,38.90949 1.195171,1.24017 67.55416,1.90563 190.02973,1.90563 l 188.19325,0 0,-97.02255 z m -295.15981,70.50136 c -4.89461,-0.86057 -15.90748,-1.66597 -24.47305,-1.78978 -20.593738,-0.29763 -31.613353,-6.38307 -24.52187,-13.54189 2.456851,-2.48018 19.101841,-2.76531 127.19678,-2.17896 68.40351,0.37107 128.84987,1.25884 134.32522,1.97285 12.42121,1.61978 15.58737,8.44505 4.91958,10.6052 -14.51667,2.93951 -204.29744,7.24452 -217.44666,4.93258 z m 177.98581,-49.0771 c -14.27465,-1.33854 -18.7151,-4.63031 -13.44968,-9.97043 3.32072,-3.36783 54.00574,-6.25157 64.57664,-3.67411 8.51799,2.07691 9.13311,10.28169 0.98059,13.07978 -5.60053,1.92221 -34.3127,2.2334 -52.10755,0.56476 z"
         id="path4647"
         inkscape:connector-curvature="0" />
      <path
         style="fill:#dec1f2"
         d="m 26.536718,802.1431 c -0.02228,-53.62399 -0.707083,-99.21032 -1.52179,-101.30296 -3.408807,-8.75582 -7.881177,-8.56531 201.974562,-8.60326 109.21494,-0.0198 200.24122,-0.0183 202.28064,0.003 2.92033,0.0308 3.70804,22.06453 3.70804,103.72014 l 0,103.68096 -203.20047,0 -203.200476,0 -0.04051,-97.49815 z m 394.240432,89.19642 c 2.42337,-1.87261 3.14347,-29.0005 2.58804,-97.49814 l -0.76953,-94.90364 -81.57683,-0.60029 c -44.86726,-0.33016 -112.33576,-0.0259 -149.93002,0.67611 l -68.35318,1.27641 2.94207,8.13229 2.94208,8.1323 20.91466,1.16075 c 11.50306,0.63842 57.62423,2.08208 102.49148,3.20813 44.86726,1.12606 90.25364,2.9222 100.85863,3.99143 10.60499,1.06922 21.95159,1.94394 25.21466,1.94382 13.26724,-5e-4 19.2818,1.68621 19.2818,5.40734 0,2.07271 -1.66862,3.91488 -3.70804,4.0937 -19.27972,1.69056 -161.00861,3.90645 -220.25745,3.44366 -26.10458,-0.20389 -46.60919,0.19693 -45.5658,0.89073 1.0434,0.6938 23.2198,2.11208 49.2809,3.15172 61.58442,2.45677 64.5128,2.97196 64.5128,11.34965 l 0,6.52154 -44.49646,1.45689 c -24.47305,0.80129 -54.71333,0.96367 -67.20062,0.36084 -14.601,-0.70486 -23.39797,-0.37611 -24.64812,0.92112 -2.39059,2.48063 1.42265,2.78637 36.96978,2.96418 57.18072,0.28603 179.182,4.93098 183.00867,6.96768 5.62761,2.99524 4.74943,8.77344 -1.6682,10.97609 -3.04958,1.04666 -34.08584,2.19781 -68.96951,2.5581 -45.56796,0.47064 -65.47149,1.36904 -70.69416,3.191 -8.06986,2.81522 -69.91551,1.72943 -89.13968,-1.56497 -5.710378,-0.97858 -13.920072,-2.28519 -18.243766,-2.90359 -5.454704,-0.78017 -8.892557,-3.02061 -11.23011,-7.31864 -2.692275,-4.95026 -3.934204,-5.62118 -6.183862,-3.34068 -1.548254,1.56949 -2.835447,1.88335 -2.860431,0.69748 -0.02492,-1.18586 -2.512596,-2.56988 -5.528028,-3.07559 -5.113847,-0.85762 -5.61265,1.19517 -7.416076,30.52041 -1.063409,17.29193 -1.933472,44.13555 -1.933472,59.6525 l 0,28.21261 132.747755,0.51527 c 73.01126,0.2834 157.61356,0.72027 188.00511,0.9708 43.71305,0.36035 55.9588,-0.0866 58.61491,-2.13901 z m -303.7238,-27.86586 c -19.578443,-1.93956 -35.93089,-3.58417 -36.338774,-3.65467 -3.543508,-0.61256 0.582889,-8.05854 5.377883,-9.70427 7.298,-2.50482 247.315051,-1.71698 255.813601,0.83968 7.77166,2.33798 4.94314,7.24151 -5.33687,9.25207 -4.89461,0.95729 -20.91334,1.98215 -35.59717,2.27748 -46.44459,0.93412 -121.11372,3.02885 -134.97257,3.78645 -7.34192,0.40137 -29.36766,-0.85717 -48.9461,-2.79674 z m -11.17948,-46.51325 c -28.663541,-2.46545 -33.468253,-4.1991 -30.76695,-11.10142 1.704739,-4.35592 3.452061,-4.72699 27.81558,-5.90698 30.65133,-1.48453 132.73939,1.66405 144.14811,4.44579 9.30506,2.26882 10.31682,6.77701 2.15001,9.58001 -14.58232,5.00493 -99.33335,6.76834 -143.34675,2.9826 z m 210.78481,-0.15982 c -1.12015,-0.71837 -6.44279,-1.88404 -11.82807,-2.59039 -7.06404,-0.92653 -9.79145,-2.32237 -9.79145,-5.01108 0,-3.32339 3.00014,-3.89597 27.71468,-5.28943 15.24306,-0.85944 29.59317,-1.10033 31.88912,-0.53531 4.33841,1.06766 5.84711,9.7974 1.94963,11.28119 -4.28605,1.63174 -37.91741,3.43821 -39.93391,2.14501 z"
         id="path4645"
         inkscape:connector-curvature="0" />
      <path
         style="fill:#dab9f1"
         d="m 26.577224,795.96029 0,-103.68096 203.200476,0 203.20047,0 0,103.68096 0,103.68096 -203.20047,0 -203.200476,0 0,-103.68096 z m 393.941936,95.69086 c 5.36886,-3.4431 5.10781,-190.47237 -0.26994,-193.33458 -3.46509,-1.84431 -56.68009,-1.59643 -341.759466,1.59199 -11.865722,0.13271 -11.865722,0.13271 -3.745329,2.95838 4.466216,1.55411 10.090016,5.2683 12.497333,8.25376 5.265426,6.52996 6.344189,6.60344 144.019152,9.80999 49.76187,1.15899 100.48783,2.93652 112.72435,3.95006 12.23653,1.01354 28.25525,2.30862 35.59717,2.87796 14.69442,1.13949 20.64083,3.43354 16.16704,6.23704 -5.14076,3.22144 -114.82074,6.2842 -134.04914,3.74326 -13.81498,-1.82559 -20.25012,-1.74958 -33.57644,0.39658 -13.29387,2.14094 -28.08521,2.32236 -76.3918,0.93697 -55.560555,-1.59342 -60.330667,-1.47148 -65.762533,1.68105 -3.221175,1.8695 -5.014463,4.27303 -3.985082,5.34118 1.029381,1.06815 0.481707,1.39121 -1.217052,0.7179 -1.698759,-0.6733 -4.738249,0.0505 -6.754422,1.60847 -2.016173,1.55796 -7.840723,2.84577 -12.943446,2.86179 -17.811465,0.0559 -17.094535,-2.67399 -18.902856,71.97803 l -1.664461,68.71314 88.704872,0.53376 c 254.83792,1.53343 287.7359,1.4367 291.31205,-0.85673 z M 122.98621,863.61211 c -6.52615,-0.85298 -18.28701,-2.14441 -26.13525,-2.86987 -12.452522,-1.15107 -14.152302,-1.84485 -13.348936,-5.44861 0.747499,-3.35314 3.709364,-4.4194 15.752741,-5.67093 19.064295,-1.98113 228.268795,0.25292 237.639365,2.53771 8.90131,2.17035 9.06152,4.74107 0.41666,6.68529 -14.16802,3.18637 -195.55066,7.22017 -214.32458,4.76641 z m -11.47613,-46.76025 c -26.483498,-2.74574 -34.503542,-4.97667 -34.503542,-9.59782 0,-6.73727 32.784882,-8.86971 96.408982,-6.27077 67.90045,2.77362 77.12719,3.74277 77.12719,8.10119 0,8.12856 -88.08418,13.0496 -139.03263,7.7674 z m 205.77731,-0.91524 c -2.4473,-1.01488 -7.49504,-1.85835 -11.2172,-1.87438 -6.09693,-0.0263 -12.24127,-4.64313 -8.97067,-6.7406 2.71599,-1.74179 48.02076,-4.93272 54.72154,-3.85418 7.64502,1.23054 10.18402,10.05058 3.28832,11.42313 -10.13466,2.01724 -33.89536,2.67438 -37.82199,1.04603 z M 120.96192,791.23429 c -34.548161,-2.77657 -49.888242,-7.2241 -49.888242,-14.46404 0,-7.1559 7.317777,-8.00313 65.261462,-7.55581 121.41068,0.93728 186.94367,3.28613 189.88088,6.80576 1.81127,2.17046 1.35388,4.43282 -1.38215,6.83607 -3.63408,3.19211 -9.81343,3.72761 -55.50562,4.81006 -32.38567,0.76723 -55.48385,0.4893 -62.40593,-0.75089 -9.08461,-1.62764 -12.39587,-1.37806 -19.10162,1.43971 -9.58765,4.02876 -37.56398,5.2335 -66.85878,2.87914 z m 12.65831,-28.92734 c -17.28537,-1.91593 -23.98296,-4.76713 -23.98296,-10.20965 0,-8.34941 8.72118,-9.24007 69.58795,-7.10676 35.79784,1.25467 56.44112,2.75848 59.38657,4.32617 5.4841,2.91886 5.86442,8.36254 0.77355,11.07211 -4.38564,2.33421 -88.28389,3.85577 -105.76511,1.91813 z"
         id="path4643"
         inkscape:connector-curvature="0" />
      <path
         style="fill:#d1a9ee"
         d="m 27.945818,897.27656 c -0.785162,-1.31523 -1.080574,-47.76363 -0.656473,-103.21868 l 0.771094,-100.82735 201.717261,0 201.71726,0 0,102.72976 0,102.72975 -201.06079,0.48892 c -159.273122,0.38729 -201.357486,-0.008 -202.488352,-1.9024 z M 423.36427,795.43162 c 0.65475,-83.10288 0.1409,-97.70565 -3.46847,-98.59393 -2.33037,-0.57349 -88.10942,-0.33559 -190.62012,0.52867 l -186.38309,1.57138 0.464193,4.756 c 0.255291,2.61581 -0.643938,45.41092 -1.998315,95.10025 -1.707352,62.63913 -1.505338,91.08388 0.65875,92.75615 2.472857,1.91085 42.327189,2.31018 191.849852,1.9223 l 188.72859,-0.4896 0.76861,-97.55122 z m -285.54591,69.14906 c -1.63154,-0.42891 -13.31186,-2.19105 -25.95627,-3.91585 -25.30343,-3.45156 -30.252565,-7.31595 -11.865717,-9.265 14.386957,-1.52505 221.258257,-1.58537 227.430897,-0.0664 6.23929,1.53545 5.96801,5.90107 -0.49898,8.02982 -2.85519,0.93984 -33.89147,2.24261 -68.96951,2.89502 -35.07803,0.65243 -75.79229,1.61731 -90.47612,2.1442 -14.68383,0.52688 -28.03276,0.60703 -29.6643,0.17806 z m -29.86168,-49.35323 c -20.610892,-2.79544 -25.017281,-4.17577 -25.017281,-7.83682 0,-4.80533 12.953876,-5.72607 74.160761,-5.27126 59.42785,0.44158 85.65155,2.6316 88.10827,7.35816 3.22791,6.21028 -101.50687,10.59796 -137.25175,5.74992 z m 207.10589,-0.55186 c -2.98782,-0.77317 -5.6623,-8.22305 -2.96643,-8.26311 0.40788,-0.006 8.58482,-0.83475 18.17095,-1.84153 18.48754,-1.94165 28.55032,-0.28293 28.55032,4.70616 0,5.43141 -29.54223,9.07634 -43.75484,5.39848 z M 114.08692,789.25421 c -23.438849,-2.33154 -37.080382,-6.79672 -37.080382,-12.13725 0,-3.11936 2.072577,-4.84302 6.674469,-5.55084 9.827083,-1.5115 79.834933,-1.57206 161.641893,-0.13982 76.29058,1.33565 85.89953,2.51193 79.0669,9.67894 -4.46694,4.68551 -38.01734,6.75458 -91.81379,5.6622 -31.53262,-0.64029 -43.4651,-0.21911 -48.9461,1.72765 -7.95905,2.82693 -44.7212,3.22822 -69.54299,0.75912 z m 14.04505,-29.44181 c -12.24749,-3.40407 -15.40969,-8.18835 -7.85257,-11.88064 6.53238,-3.19161 104.49707,-1.82406 114.46734,1.59792 6.14593,2.1094 7.3128,9.0782 1.70543,10.18519 -12.66852,2.50098 -99.39189,2.57907 -108.3202,0.0975 z M 142.268,736.94603 c -26.92035,-1.3524 -52.570085,-2.53877 -56.999407,-2.63638 -12.225814,-0.2694 -17.111853,-7.3787 -8.238222,-11.9868 5.730324,-2.97576 10.600265,-3.37263 32.332609,-2.63492 14.07237,0.4777 66.94596,1.41517 117.49687,2.08328 50.55092,0.66811 101.9054,2.03011 114.12107,3.02668 23.11223,1.88551 35.13947,6.00174 26.98437,9.23519 -5.5911,2.21682 -61.31279,4.2441 -105.55686,3.84039 -19.57844,-0.17865 -43.60652,0.0929 -53.39574,0.60333 -9.78922,0.51048 -39.82433,-0.17837 -66.74469,-1.53077 z m 239.16844,-2.42907 c -2.85379,-2.96128 3.53593,-7.20112 7.25658,-4.81503 1.88362,1.20798 2.52787,3.12701 1.43165,4.2645 -2.34247,2.43069 -6.61537,2.70144 -8.68823,0.55053 z"
         id="path4641"
         inkscape:connector-curvature="0" />
      <path
         style="fill:#c796ea"
         d="M 30.25899,898.06263 C 27.317851,896.8652 26.687779,874.95049 27.29256,794.8864 l 0.767879,-101.65587 78.610401,0.3069 c 224.36462,0.87593 236.53493,1.25272 85.15138,2.63623 -81.24237,0.74248 -148.295466,1.72325 -149.006878,2.17948 -0.71141,0.45624 -1.652507,44.43456 -2.091328,97.72961 l -0.797854,96.90009 192.07636,0.48946 192.07636,0.48949 0,-98.93883 c 0,-75.68415 -0.83668,-98.93883 -3.55972,-98.93883 -2.44846,0 -2.60331,-0.61334 -0.49604,-1.96477 1.68502,-1.08062 5.28923,-1.41707 8.00936,-0.74766 4.52941,1.11466 4.94569,9.59337 4.94569,100.73413 0,54.73435 -0.81025,100.87116 -1.80059,102.52621 -1.61721,2.70275 -21.93311,3.00624 -199.49244,2.98008 -108.73051,-0.0152 -199.37228,-0.71331 -201.42615,-1.54949 z m 92.75082,-37.06874 c -15.03229,-3.00557 -17.21341,-7.94447 -4.24313,-9.60808 11.12987,-1.42753 81.33822,-1.22173 154.02426,0.45153 43.33865,0.99766 51.91253,1.66633 51.91253,4.04864 0,2.34916 -7.86588,3.09445 -44.49646,4.21605 -99.44998,3.04504 -145.13177,3.30422 -157.1972,0.89186 z m 1.45961,-45.12594 c -12.90084,-1.72981 -22.17899,-6.43813 -19.06152,-9.67302 3.9883,-4.13851 25.59441,-5.51917 56.73441,-3.6254 17.62103,1.07161 38.88297,1.94911 47.24876,1.94998 17.88488,0.002 24.96189,3.45407 17.23684,8.40822 -3.20927,2.05813 -9.48482,3.03251 -18.64258,2.89456 -7.59264,-0.11438 -26.48629,0.25183 -41.98588,0.8138 -15.4996,0.56197 -34.18811,0.21631 -41.53003,-0.76814 z m 193.37845,-5.14987 c 0.71909,-2.39467 5.39712,-3.76437 16.8495,-4.93344 16.9061,-1.72579 23.33625,-0.0456 20.1574,5.267 -2.77958,4.64531 -38.4056,4.3242 -37.0069,-0.33356 z m -208.94249,-23.2369 c -21.218856,-2.6406 -30.399477,-12.43684 -13.358652,-14.25443 22.647942,-2.41565 199.641372,-0.85052 220.999052,1.95427 7.98023,1.048 8.76916,5.65844 1.40099,8.18734 -6.46059,2.21739 -91.83895,3.19205 -110.76819,1.26449 -10.13937,-1.03249 -16.07592,-0.60705 -22.84252,1.63699 -9.73788,3.22942 -53.5593,3.93315 -75.43068,1.21134 z m 21.69316,-29.88516 c -7.3389,-3.29657 -7.94401,-7.3909 -1.33276,-9.01789 6.96138,-1.71315 81.49843,-1.11869 94.44024,0.75321 13.66512,1.9765 15.58794,3.16676 11.62486,7.19597 -4.38623,4.45943 -95.12261,5.38532 -104.73234,1.06871 z m 29.1313,-20.50912 c -0.99006,-0.63493 -16.54889,-1.98445 -34.57518,-2.99892 -36.298876,-2.0428 -42.215261,-2.98256 -42.215261,-6.70546 0,-4.68418 6.595436,-5.24332 57.548341,-4.87878 166.05604,1.18803 228.74321,3.97276 219.38976,9.7459 -5.92743,3.65852 -71.61583,6.37493 -92.63956,3.83092 -11.39919,-1.37938 -24.72865,-1.8548 -30.37101,-1.08324 -13.6639,1.86846 -74.89545,3.52717 -77.13709,2.08958 z"
         id="path4639"
         inkscape:connector-curvature="0" />
      <path
         style="fill:#c28ae8"
         d="m 29.543654,795.96029 0,-101.77856 25.956265,0.33594 25.956265,0.33594 -20.765012,1.09086 -20.765012,1.09086 -0.768305,98.44935 -0.768303,98.44936 51.451994,0 c 28.298604,0 113.435064,0.5649 189.192144,1.25532 129.20276,1.17749 138.06479,1.04712 142.97774,-2.1036 4.89241,-3.13758 5.18196,-9.80176 4.39411,-101.13217 -0.46389,-53.77529 0.15772,-97.77295 1.38138,-97.77256 1.22365,3.8e-4 2.22482,45.80105 2.22482,101.77926 l 0,101.77855 -200.23404,0 -200.234046,0 0,-101.77855 z m 95.418946,63.61228 c -3.8076,-0.97871 -6.3672,-2.85062 -5.68802,-4.15983 0.91883,-1.77114 15.59757,-2.50048 57.35222,-2.84971 58.66187,-0.49061 70.43565,0.74377 59.25839,6.2127 -6.68909,3.27293 -98.71745,3.93402 -110.92259,0.79684 z m 182.68389,-1.205 c -8.54837,-1.41315 -5.86807,-4.38399 3.95523,-4.38399 5.74206,0 8.70944,0.84086 7.97228,2.2591 -1.39274,2.67953 -4.84839,3.29515 -11.92751,2.12489 z M 130.40228,815.63075 c -18.28507,-2.62346 -24.34573,-6.50652 -16.31536,-10.45323 4.98665,-2.45081 11.61009,-2.6788 41.53002,-1.42951 19.57844,0.81748 41.02278,1.32934 47.65408,1.13748 12.54273,-0.36291 24.3164,3.36169 21.1179,6.68065 -1.01504,1.05327 -15.56909,2.4953 -32.34232,3.20451 -16.77324,0.70922 -34.50148,1.62381 -39.39609,2.03242 -4.89461,0.40861 -14.90631,-0.11893 -22.24823,-1.17232 z m 207.65012,-6.35364 c 0,-2.14558 2.08193,-2.92861 6.67447,-2.51032 3.67096,0.33435 6.67447,1.46399 6.67447,2.51032 0,1.04632 -3.00351,2.17596 -6.67447,2.51031 -4.59254,0.41829 -6.67447,-0.36474 -6.67447,-2.51031 z M 103.21795,785.24289 c -9.015232,-2.11756 -13.096426,-7.01516 -8.371051,-10.04559 2.193061,-1.40643 32.382631,-1.88197 95.764621,-1.50845 104.07949,0.61336 128.15909,1.75966 128.15909,6.10101 0,3.83669 -88.27511,6.74109 -107.43984,3.53494 -10.19381,-1.70536 -14.74254,-1.52169 -24.53308,0.99057 -13.62898,3.49722 -69.97736,4.12254 -83.57974,0.92752 z m 40.00709,-25.80756 c -3.55248,-0.44018 -8.10129,-2.06933 -10.10847,-3.62034 -5.95645,-4.60274 1.56369,-7.44667 18.9393,-7.16235 8.48474,0.13884 25.43849,0.41744 37.67502,0.61913 34.48474,0.56838 41.53002,1.56488 41.53002,5.87406 0,3.48029 -1.95636,3.68895 -30.40591,3.24301 -16.72325,-0.26214 -35.07804,0.0462 -40.78841,0.6851 -5.71038,0.63894 -13.28908,0.80157 -16.84155,0.36139 z m 31.6737,-23.62541 c -12.23653,-0.82331 -31.88589,-2.06079 -43.66524,-2.74996 -23.84863,-1.3953 -32.234521,-4.78852 -21.19671,-8.57691 5.02648,-1.72518 20.92866,-1.93983 63.22818,-0.85344 31.082,0.79828 79.48149,1.56175 107.55442,1.69659 42.49098,0.2041 51.84144,0.75556 55.81556,3.29178 4.38448,2.79808 4.06253,3.23557 -3.9466,5.36311 -8.76369,2.32799 -50.9992,1.87939 -81.4528,-0.86514 -9.98828,-0.90016 -17.62618,-0.37952 -26.0163,1.77339 -12.57974,3.22798 -15.2895,3.27756 -50.32051,0.92058 z"
         id="path4637"
         inkscape:connector-curvature="0" />
      <path
         style="fill:#bd82e7"
         d="m 29.543654,795.96029 c 0,-98.81551 0.164504,-101.77856 5.650586,-101.77856 4.747105,0 5.475061,1.14067 4.55281,7.13401 -3.280706,21.32004 -3.810119,190.2502 -0.602675,192.30718 5.52751,3.54484 380.048025,3.13586 384.649755,-0.42005 2.49332,-1.92668 3.18802,-28.9908 2.58806,-100.82794 -0.45107,-54.0069 0.18107,-98.1941 1.40473,-98.19378 1.22365,3.2e-4 2.22482,45.80093 2.22482,101.77914 l 0,101.77855 -200.23404,0 -200.234046,0 0,-101.77855 z M 131.8855,858.8036 c -13.27667,-3.6727 -6.1433,-4.46047 48.11163,-5.3132 49.54378,-0.7787 60.15119,0.28882 50.40813,5.07294 -7.26615,3.56788 -85.79815,3.7594 -98.51976,0.24026 z m -4.97417,-44.13337 c -12.02956,-1.30736 -17.04599,-6.06245 -9.92065,-9.40379 6.70777,-3.14553 14.98322,-3.24047 50.49198,-0.5793 14.68383,1.10047 32.482,1.89821 39.55149,1.77277 10.78928,-0.19144 12.6916,0.31147 11.8448,3.13136 -0.75801,2.52422 -4.32242,3.47868 -14.33684,3.83905 -43.42616,1.56269 -70.65857,1.99765 -77.63078,1.23991 z m -15.35821,-29.12512 c -13.2075,-1.63566 -18.830941,-5.6517 -12.306497,-8.78881 5.949387,-2.8606 75.257407,-4.92865 87.809027,-2.62009 5.52868,1.01687 36.34633,1.84884 68.48366,1.84884 56.74683,0 69.70544,1.30668 58.4201,5.89078 -6.28948,2.55478 -95.88711,2.11751 -104.88571,-0.51189 -6.25921,-1.82894 -9.62365,-1.61601 -18.67977,1.18222 -12.16444,3.75868 -58.4805,5.52045 -78.84081,2.99895 z m 25.90927,-29.44419 c -2.95096,-4.93174 1.88773,-6.74951 17.9664,-6.74951 18.16186,0 27.12028,3.96574 16.89007,7.47694 -9.00213,3.08971 -32.87049,2.59159 -34.85647,-0.72743 z m 66.11184,-0.40816 c -4.85718,-3.11497 -1.03209,-4.61302 10.39915,-4.07273 16.3826,0.77432 19.11609,5.341 3.19699,5.341 -6.39019,0 -12.50845,-0.57073 -13.59614,-1.26827 z M 151.1673,733.08261 c -7.34192,-1.48361 -19.02224,-2.71046 -25.95627,-2.72635 -11.56253,-0.0265 -16.25684,-2.16264 -10.10808,-4.59971 3.93974,-1.56153 86.43291,-1.70574 102.06742,-0.17843 14.90193,1.45574 17.41638,3.66193 8.89929,7.80825 -7.05939,3.43667 -57.40238,3.23251 -74.90236,-0.30376 z m 116.43238,1.11464 c -3.67095,-1.01467 -6.67447,-3.15656 -6.67447,-4.75976 0,-4.2374 69.69768,-4.35534 72.23062,-0.12223 0.91906,1.53597 0.20498,3.37378 -1.58707,4.08402 -5.39691,2.13908 -56.79735,2.78026 -63.96908,0.79796 z"
         id="path4635"
         inkscape:connector-curvature="0" />
      <path
         style="fill:#b674e4"
         d="m 30.904023,895.36084 c -2.909403,-4.87272 0.09495,-199.90539 3.089277,-200.546 1.95949,-0.41922 2.679988,33.01367 2.122575,98.49274 -0.621034,72.95298 0.06232,99.82762 2.588048,101.77933 2.699306,2.08583 2.384639,2.65193 -1.47407,2.65193 -2.698284,0 -5.544907,-1.0701 -6.32583,-2.378 z M 151.1673,857.62287 c -15.12071,-1.03494 -14.52338,-1.13942 8.15768,-1.4268 24.37793,-0.30889 31.82903,0.53691 16.31536,1.85199 -4.48672,0.38035 -15.49959,0.1891 -24.47304,-0.42519 z m 42.05533,0.41398 c -2.57973,-1.04894 0.86545,-2.01671 10.05492,-2.82447 20.66696,-1.81667 25.01693,-1.53414 25.01693,1.6248 0,3.19168 -27.83148,4.14368 -35.07185,1.19967 z m -65.04517,-44.10689 c -12.70045,-2.51355 -13.32063,-8.63067 -0.99266,-9.79103 11.87349,-1.11758 57.4479,2.09991 60.91455,4.30048 5.63361,3.57613 -3.9019,5.93257 -26.95536,6.66127 -12.8291,0.40552 -27.66404,-0.12131 -32.96653,-1.17072 z m -22.24823,-30.48767 c -2.85519,-1.0665 -5.19125,-3.07094 -5.19125,-4.45431 0,-2.72076 79.73496,-6.44778 85.87533,-4.01403 5.44316,2.1574 3.37501,6.03236 -4.43808,8.31535 -9.31478,2.72179 -69.04802,2.84164 -76.246,0.15299 z m 107.5331,-3.65243 c 0,-1.14733 11.47952,-1.84933 28.9227,-1.76869 18.92036,0.0875 26.87093,0.69914 22.98983,1.76869 -8.44221,2.32651 -51.91253,2.32651 -51.91253,0 z m -68.2279,-23.09826 c -7.20937,-1.84238 -7.25558,-1.97108 -1.65784,-4.61769 6.59463,-3.11795 15.95705,-3.48168 22.39806,-0.87018 9.33264,3.78392 -8.7181,8.56015 -20.74022,5.48787 z m 27.5855,-22.27727 c -19.96132,-1.33842 -29.38223,-4.79782 -21.62784,-7.94184 8.83968,-3.58404 66.94159,-1.39307 73.4316,2.76905 7.34822,4.71249 -19.17282,7.36071 -51.80376,5.17279 z m 95.31639,-2.39724 c -3.68203,-3.8207 5.75059,-5.43581 31.91903,-5.46538 25.1579,-0.0284 34.84543,2.17512 25.76978,5.86164 -6.08394,2.47129 -55.25081,2.13356 -57.68881,-0.39626 z"
         id="path4633"
         inkscape:connector-curvature="0" />
    </g>
  </g>
</svg>
